<?xml version="1.0" encoding="UTF-8" standalone="no"?>
<svg
   xmlns:dc="http://purl.org/dc/elements/1.1/"
   xmlns:cc="http://creativecommons.org/ns#"
   xmlns:rdf="http://www.w3.org/1999/02/22-rdf-syntax-ns#"
   xmlns:svg="http://www.w3.org/2000/svg"
   xmlns="http://www.w3.org/2000/svg"
   viewBox="0 0 757.33331 1014.6667"
   height="1014.6667"
   width="757.33331"
   xml:space="preserve"
   id="svg2"
   version="1.1"><metadata
     id="metadata8"><rdf:RDF><cc:Work
         rdf:about=""><dc:format>image/svg+xml</dc:format><dc:type
           rdf:resource="http://purl.org/dc/dcmitype/StillImage" /></cc:Work></rdf:RDF></metadata><defs
     id="defs6" /><g
     transform="matrix(1.3333333,0,0,-1.3333333,0,1014.6667)"
     id="g10"><g
       transform="scale(0.1)"
       id="g12"><path
         id="path14"
         style="fill:#0000ff;fill-opacity:1;fill-rule:nonzero;stroke:none"
         d="m 5388.73,2661.25 c 25.24,23.53 53.13,43.92 80,65.47 64.59,-56.13 127.41,-115.81 175.07,-187.42 17.06,-28.78 34.59,-63.28 24.02,-97.52 -20.81,-57.16 -73.05,-107.15 -136.41,-108.51 -62.68,-4.57 -119.08,27.41 -176.78,45.28 -65.74,-21.14 -135.79,-18.75 -204.06,-16.84 -1.09,-61.39 -48.76,-107.76 -96.84,-139 -65.54,-41.33 -146.16,-27.55 -219.41,-27.55 -5.73,34.51 -12,68.95 -16.16,103.73 52.51,0.68 106.67,-6.75 157.82,8.8 27.21,8.05 48.42,29.46 59.33,55.31 -52.31,3.68 -110.42,6.69 -150.72,44.81 -36.7,40.03 -40.38,99.78 -31.86,150.93 7.03,41.06 29.34,88.25 74.35,96.98 58.92,14.74 130.94,16.58 178.69,-26.93 43.85,-42.22 45.28,-107.29 48.83,-163.96 24.96,0.61 49.92,0.27 74.95,0.75 -25.23,41.67 -31.99,100.12 0.27,140.01 36.83,46.11 101.08,70.05 158.91,55.66 z m -59.13,-93.3 v 0 c -13.03,-3.48 -20.94,-18.34 -17.12,-31.31 3.55,-26.05 28.58,-47.19 55.11,-44.8 16.58,7.77 33.49,23.87 29.87,43.98 -6.34,28.58 -42.62,38.68 -67.86,32.13 z m -362.9,-70.86 v 0 c 4.71,-33.76 47.2,-30.56 72.77,-31.31 -0.95,22.51 2.19,45.49 -3.41,67.45 -5.32,21.01 -30.27,29.88 -49.58,25.31 -24.21,-9.28 -22.16,-40.31 -19.78,-61.45 z m 534.09,54.29 v 0 c 0.61,-38.54 -3.55,-79.32 -30.01,-109.53 13.3,-3.28 26.46,-7.17 40.1,-9.35 27.83,-5.11 57.7,25.85 45.08,53.27 -12.2,26.18 -31.85,48.76 -55.17,65.61 z m -2218.6,270.28 c 37.58,0.27 75.16,0.34 112.74,0 0.13,-104.35 -0.14,-208.7 0,-312.98 0.95,-15.89 2.11,-39.82 22.37,-42.76 24.08,-3 48.76,-0.14 72.43,5.25 20.12,31.51 8.73,72.5 22.78,106.4 25.03,59.06 92.27,97.59 155.97,87.43 50.07,-7.23 98.83,-37.85 118.95,-85.66 13.37,-25.51 14.46,-54.56 15.14,-82.8 -0.96,-14.05 10.64,-26.53 24.69,-27.28 52.11,-5.93 105.1,-8.93 157.27,-1.97 17.73,1.15 37.24,15.07 34.85,34.57 0.07,34.72 0.14,69.43 -0.54,104.14 38.19,2.46 76.45,1.09 114.64,0.82 -0.2,-44.87 -2.25,-89.96 4.44,-134.56 68.2,-12.89 137.83,-4.71 206.78,-7.23 19.17,-0.54 50,-0.89 52.18,24.63 2.18,39 -0.14,78.15 0.95,117.16 38.67,0.48 77.41,1.16 116.08,-0.47 -1.3,-45.97 0.96,-92.07 -0.96,-138.04 -8.38,-53.34 -52.51,-100.81 -107.14,-107.22 -45.35,-3.34 -90.77,1.23 -136.13,0.69 -45.35,0.88 -90.77,-2.26 -135.99,0.34 -20.33,0.47 -38.47,10.16 -56.2,18.95 -21.35,-8.99 -43.38,-18.2 -66.97,-17.66 -52.25,-0.89 -104.56,-0.54 -156.8,-0.27 -36.63,-0.41 -71.88,12.62 -102.1,32.6 -29.8,-16.37 -61.04,-33.69 -95.82,-35.26 -39.76,-2.66 -78.43,13.84 -109.46,37.72 -26.4,-31.04 -70.73,-35.4 -108.79,-36.56 -43.17,1.02 -89.34,9.41 -123.65,37.17 -30.08,27.76 -30.76,71.81 -31.51,109.74 -0.4,104.34 0,208.76 -0.2,313.11 z m 355.06,-259.17 v 0 c -36.96,-9.14 -48.7,-60.84 -20.39,-85.66 24.75,-27.49 77.41,-17.53 84.84,20.67 16.37,39.08 -26.4,77.88 -64.45,64.99 z M 614.484,2821.86 c 38.055,-0.07 76.114,0.07 114.235,-0.2 -0.34,-104.35 0.344,-208.7 -0.614,-313.04 1.024,-16.38 1.231,-40.73 22.508,-43.04 25.305,-2.19 52.176,-0.41 75.977,8.94 12.14,24.14 5.117,52.03 10.777,77.61 15.071,72.7 92.004,126.78 165.733,113.07 70.45,-8.79 128.76,-71.34 130.53,-142.67 1.57,-18.42 -3.2,-47.4 21.15,-52.52 33.01,-4.84 66.7,-6.89 100.05,-5.73 14.53,-0.55 30.76,10.1 30.89,25.65 1.16,39.01 -0.54,78.09 0.69,117.03 37.91,0.41 75.84,0.54 113.76,-0.07 0.81,-39.35 -0.48,-78.77 0.47,-118.12 -0.75,-31.31 50.82,-41.13 67.18,-19.91 2.66,45.48 0.82,91.18 0.68,136.73 38.2,3.28 76.66,1.37 114.99,1.23 1.02,-39.42 -1.16,-78.84 0.28,-118.26 0.61,-33.96 65.81,-48.01 68.61,-9.41 5.79,42.35 1.16,85.32 1.7,127.88 37.99,0.27 75.98,0.47 114.03,-0.21 -0.48,-60.29 7.51,-122.96 -12.27,-181.21 -19.16,-57.02 -87.3,-82.25 -142.75,-70.65 -22.71,3.68 -42.56,15.48 -61.38,28.03 -7.43,6.88 -15.14,-2.46 -21.41,-5.94 -28.51,-22.64 -67.25,-26.73 -102.24,-21.62 -28.17,3.89 -49.17,24.42 -71.41,40.11 -46.92,-40.65 -112.46,-33.97 -170.02,-34.79 -37.38,-3.27 -71.96,15.55 -102.31,35.2 -29.73,-16.17 -60.63,-33.7 -95.203,-35.54 -39.832,-2.79 -78.914,13.3 -109.601,37.85 -22.918,-28.44 -61.586,-31.65 -95.141,-35.94 -50.336,-0.82 -106.531,6.14 -143.633,43.79 -23.601,23.18 -28.644,57.69 -27.965,89.27 3.071,108.78 1.43,217.64 1.707,326.48 z m 350.282,-261.55 v 0 c -35.668,-12.89 -41.602,-64.99 -11.594,-87.1 27.894,-25.43 78.228,-8.93 83.078,29.4 12.61,40.37 -35.75,74.75 -71.484,57.7 z m 1033.054,368.15 c 56.95,4.16 114.1,1.03 171.18,1.77 1.3,-33.96 0.89,-67.99 0.55,-102.02 -66.23,0 -132.45,-2.05 -198.67,-0.96 -18.69,-0.48 -38.95,-0.07 -55.25,-10.43 -12.95,-11.19 -19.98,-27.28 -28.91,-41.54 -36.01,10.71 -71,24.28 -106.74,35.67 19.65,44.68 45.22,99.1 98.42,109.05 38.87,11.46 79.52,6.55 119.42,8.46 z m 2614.71,-104.55 c 37.72,3.14 75.57,1.36 113.42,1.09 -0.48,-154.54 0.41,-309.16 -0.48,-463.7 -37.44,0.68 -74.95,0.41 -112.39,0.2 -0.48,154.14 0.68,308.27 -0.55,462.41 z m -2651.82,-30.14 4.37,3.81 c 36.56,1.78 73.18,0.41 109.8,0.21 -0.34,-145.47 1.71,-290.95 -1.02,-436.36 -37.85,0.55 -75.7,0.21 -113.55,0.21 0.48,144.04 -0.41,288.08 0.4,432.13 z M 214.141,2662.2 c 30.418,6.89 65.609,7.03 92.82,-9.82 30.898,-26.8 18.894,-81.36 -14.594,-100.8 -37.035,-19.17 -90.367,-8.66 -110.894,29.67 -16.711,29.8 -0.618,71.68 32.668,80.95 z m 196.898,-56.4 c 38.258,2.8 76.59,1.23 114.848,1.02 0.687,-68.95 -0.543,-137.96 0.89,-206.92 1.43,-48.29 -13.914,-97.32 -43.035,-135.85 -40.105,-46.25 -102.574,-67.05 -162.527,-67.73 -51.559,-0.41 -103.735,-5.46 -154.887,2.45 -74.5428,19.03 -141.3788,82.8 -148.8124,161.64 -7.57029,60.15 -3.5508,120.86 -2.5234,181.21 37.918,0.07 75.7695,0 113.6918,0 0.816,-56.54 -1.024,-113.14 0.816,-169.68 0.957,-46.99 52.582,-75.5 95.277,-72.91 53.063,2.11 112.879,-8.73 159.184,23.67 23.258,14.93 26.602,45.08 27.215,70.18 0.476,71 0.613,141.99 -0.137,212.92 z M 3090,2606.82 c 37.78,0 75.7,2.25 113.48,-1.36 -2.18,-55.51 8.8,-113.22 -9.14,-167.03 -18.34,-46.71 -67.11,-80.47 -117.78,-77.41 -68.74,0.89 -137.49,0.34 -206.24,1.03 -3.61,-31.85 -6.41,-65.68 -24.96,-93.03 -24.62,-39.35 -69.98,-58.31 -113.08,-69.63 -36.9,-10.16 -75.43,-4.37 -113.08,-4.5 -42.62,1.08 -87.3,-2.12 -127.33,15.48 -75.23,31.71 -118.47,116.96 -115.06,196.21 1.09,45.15 -0.81,90.3 1.3,135.31 37.58,-0.54 75.23,-0.13 112.81,-0.2 1.5,-54.15 0.67,-108.37 -0.14,-162.52 -1.09,-45.22 43.79,-81.23 87.23,-79.79 50.19,1.56 102.91,-6.97 151.13,10.42 19.99,6.55 26.26,27.63 24.62,46.59 -47.6,15.21 -97.87,1.36 -146.77,4.91 -2.38,34.44 -6.13,68.68 -11.86,102.64 114.78,3 229.7,0.48 344.55,1.23 42.9,0.82 86.41,-5.25 128.84,2.59 14.59,0.75 20.25,15.69 20.52,28.17 2.05,36.9 0.34,73.93 0.96,110.89 z m -126.99,-299.68 c 30.55,6.07 69.22,0 86.82,-28.64 18.82,-32.39 -8.26,-74.54 -42.22,-82.32 -33.76,-7.57 -76.66,5.93 -90.23,40.24 -10.37,31.65 14.19,65.13 45.63,70.72 z m 143.29,-0.68 c 32.12,6.9 74.06,1.3 91.93,-29.73 16.85,-33.69 -12.27,-75.64 -47.33,-81.16 -34.99,-6.96 -80,10.29 -88.59,47.95 -6.08,29.05 16.57,56.33 43.99,62.94 z m 804.23,1.64 c 40.72,14.87 106.4,-5.86 101.21,-57.97 -11.73,-57.77 -95.28,-72.64 -129.51,-26.53 -25.51,28.51 -6.69,75.02 28.3,84.5 z m 149.91,0.41 c 38.6,12.14 99.91,-3.48 101.14,-51.9 -5.45,-61.72 -94.18,-80.89 -130.88,-34.38 -27.82,28.58 -7.57,78.57 29.74,86.28 z m 191.65,-7.5 c 43.64,22.3 113.28,-9.96 101.96,-64.59 -17.19,-59.54 -112.88,-58.72 -136.68,-4.78 -11.87,28.04 8.73,58.66 34.72,69.37 z m 156.72,0.34 c 41.88,19.78 106.19,-6.89 102.99,-58.38 -11.73,-62.06 -107.55,-68.88 -136.47,-16.64 -15.15,28.98 5.79,63.29 33.48,75.02 z m -74.95,-109.81 c 39.08,15.69 95.82,-5.32 101.28,-50.94 0.68,-33.15 -31.65,-59.4 -63.16,-60.84 -32.73,-3.41 -71,15.14 -78.7,49.17 -5.73,27.96 16.43,52.45 40.58,62.61 z M 2398.57,7570.61 c 72.7,17.12 146.23,33.07 220.9,38.53 -138.45,-33.08 -271.37,-86.89 -396.79,-153.86 -178.48,-96.92 -339.58,-229.5 -458.04,-395.44 -178.62,-253.98 -258.15,-574.05 -227.53,-882.32 10.03,-121.13 37.79,-240.55 78.1,-355.13 21.68,-61.24 47.88,-121.26 82.86,-176.23 87.98,-143.63 191.65,-279.7 319.8,-389.98 128.29,-106.32 278.33,-184.41 434.72,-240.54 94.12,-34.1 181,-96.23 232.16,-183.67 70.99,-120.65 125.07,-253.51 141.52,-393.32 2.79,-26.87 7.7,-53.61 9.13,-80.61 1.37,-16.03 -12.21,-27.49 -22.51,-37.65 -44.32,-38.6 -100.32,-61.18 -156.86,-75.09 -84.77,-21.14 -170.85,-40.17 -250.64,-76.8 -95.28,-43.78 -185.23,-98.2 -280.31,-142.47 -102.98,-49.04 -212.1,-85.52 -324.16,-107.14 -55.38,-10.3 -112.6,-10.78 -168.12,-1.03 -40.24,6.69 -77,25.37 -114.03,41.47 -119.56,53.61 -233.73,120.51 -334.8,204.13 -79.26,63.77 -144.39,142.68 -207.47,221.86 -123.035,160.82 -223.156,340.53 -284.812,533.74 -64.657,202.43 -80.477,420.87 -41.125,629.92 5.453,28.43 11.527,56.87 21.55,84.09 36.489,-207.75 107.965,-408.94 206.719,-595.13 84.297,-158.37 190.558,-305.55 318.368,-431.72 83.48,-81.98 178.41,-151.13 276.01,-215.17 41.4,-27.08 98.55,-35.88 143.16,-11.39 -0.96,25.57 -26.47,36.55 -45.42,47.8 -86.55,46.32 -165.67,105.31 -239.4,169.9 -149.42,132.03 -278.05,287.33 -380.218,458.59 -88.254,149.76 -160.277,310.59 -201.672,479.79 -17.664,90.16 -19.371,182.58 -18.621,274.17 0.274,123.31 19.098,246.96 58.996,363.72 93.985,255.62 240.685,495.62 444.265,678.54 -88.59,-155.84 -143.9,-329.21 -176.1,-505.03 -36.41,-204 -33.34,-415.55 14.05,-617.57 54.5,-235.09 167.03,-455.59 320.34,-641.57 175.15,-211.83 400.14,-381.39 649.76,-495.62 41.13,-17.19 85.05,-44.81 130.95,-27.49 29.33,6.96 39.97,46.93 18.55,67.73 -22.85,21.14 -55.1,26.33 -82.11,40.37 -228.28,106.94 -440.04,253.44 -610.75,439.7 -172.48,186.6 -283.17,424.62 -336.44,671.72 -15.96,84.98 -31.92,170.64 -29.26,257.46 -4.36,165.66 22.85,331.66 77.28,488.11 74.61,218.86 205.49,416.1 368.42,579.24 225,224.11 511.58,384.53 819.58,461.39 z m 663.26,38.05 c 34.78,0.34 69.09,-6.07 103.12,-12.68 268.44,-46.85 525.5,-157.14 745.03,-318.57 201.27,-150.59 374.84,-342.24 488.2,-567.78 122.76,-240.07 174.93,-515.61 147.79,-783.91 -29.6,-238.29 -110.97,-471.95 -246.62,-670.9 -131.9,-188.98 -310.32,-341.69 -504.97,-463.29 -89.13,-55.18 -181.75,-105.51 -279.56,-143.77 -28.37,-9.62 -45.76,-48.84 -22.09,-72.03 29.73,-23.25 72.36,-18.88 104.69,-3.13 295.31,125.56 559.05,328.05 750.35,586.33 150.86,205.22 253.71,446.79 289.18,699.41 47.26,335.07 -22.37,681.74 -176.92,981.29 46.18,-33.08 82.05,-77.42 119.83,-119.29 91.94,-107.55 169.62,-227.11 232.23,-353.97 50.34,-103.53 96.37,-210.67 118.46,-324.16 28.85,-145.96 29.61,-296.33 14.26,-443.92 -6.55,-71.21 -29.53,-139.48 -52.51,-206.79 -112.06,-310.87 -304.66,-592.75 -555.44,-808.19 -188.57,-158.23 -414.6,-265.99 -647.65,-341.56 -73.99,-23.73 -149.15,-43.71 -225.19,-59.67 -30.08,-6.01 -60.84,-18.76 -79.87,-43.86 -14.8,-18.82 -12.95,-51.7 10.71,-62.61 34.44,-16.43 75.36,-13.98 111.58,-4.98 205.01,64.8 404.3,148.62 592.33,253.17 99.98,56.33 196.89,118.67 286.17,191.03 197.17,159.66 348.85,370.2 459.13,597.45 77.82,165.45 139.07,340.19 167.51,521.2 3.13,-6.48 6.62,-12.89 8.53,-19.99 65.4,-261.89 38.73,-542.95 -61.66,-792.57 -54.5,-137.22 -127.81,-266.6 -213.54,-386.7 -43.24,-58.25 -86.96,-117.04 -139.4,-167.44 -164.1,-145.33 -344.83,-272.33 -538.18,-375.65 -206.24,-109.53 -429.6,-183.87 -656.38,-237.68 -46.03,-11.46 -98.14,-15.29 -134.62,-48.91 -20.81,-17.18 -24.35,-54.42 -0.42,-70.51 28.79,-18.96 66.03,-15.28 98.7,-11.19 222.94,37.99 444.53,95.82 649.07,194.1 240.95,121.47 458.66,285.36 655.89,468.69 -14.05,-45.56 -38.67,-86.76 -62.27,-127.89 -125.76,-210.87 -308,-384.11 -512.6,-517.78 -221.52,-144.11 -470.59,-242.25 -726.82,-304.18 -302.48,-78.37 -622.14,-78.71 -927.75,-17.94 -159.52,30.29 -315.64,77 -467.38,134.63 -95.96,37.58 -191.04,78.3 -281.34,128.15 -57.76,36.22 -118.26,69.7 -184.21,88.46 -61.18,18.21 -124.95,24.42 -187.07,38.4 -142.62,31.16 -284.48,71.47 -415.696,136.4 -117.852,59.95 -213.403,152.71 -318.641,230.86 112.672,29.19 219.75,77.96 334.738,98.56 108.309,23.59 227.449,2.93 315.639,-66.09 43.24,-36.08 93.64,-62.07 143.7,-87.16 112.94,-54.16 236.93,-94.12 363.58,-86.07 126.99,7.36 252.01,41.6 367.41,94.45 186.94,94.87 382.06,175.21 586.05,225.14 63.29,18.34 137.7,22.03 184.62,74.13 42.49,53.95 34.17,126.93 30.97,190.97 1.09,131.28 29.19,263.05 85.38,381.93 47.41,104.14 140.3,184.89 247.44,223.36 118.74,44.12 232.5,102.3 336.64,174.52 160,112.06 282.49,268.79 385.82,432.68 80.95,126.72 124.47,273.55 153.11,420.05 51.97,270.15 18.69,555.98 -95.21,806.49 -88.11,199.35 -234.82,370.06 -411.66,496.16 -168.73,119.69 -360.38,208.7 -562.19,254.8 z M 105.547,1674.77 221.781,2078.85 H 335.828 L 219.977,1674.77 Z m 337.086,0 H 328.324 l 116.242,404.08 h 246.59 c 42.414,0 75.516,-3.2 99.035,-9.5 23.661,-6.4 42.805,-17.97 57.293,-34.9 14.485,-16.84 21.707,-37.36 21.707,-61.44 0,-34.35 -14.093,-62.76 -42.39,-85.05 -28.324,-22.29 -71.137,-36.12 -128.403,-41.5 14.614,-9.5 28.45,-22.1 41.25,-37.71 25.582,-31.62 53.903,-76.3 85.321,-133.98 H 702.141 c -9.821,22.77 -29.102,58.34 -57.926,106.69 -15.633,26.07 -32.32,43.65 -50.039,52.59 -10.856,5.36 -29.738,8 -56.77,8 h -46.539 z m 65.558,227.96 h 60.645 c 61.422,0 102.144,2.63 122.18,8 20.039,5.27 35.832,13.64 47.207,25.02 11.242,11.48 16.925,23.34 16.925,35.84 0,14.78 -8.136,25.79 -24.562,33.12 -10.09,4.43 -31.934,6.59 -65.559,6.59 H 539.352 Z m 741.789,-138.68 h -220.19 l -66.591,-89.28 H 845.785 l 313.955,404.08 h 126.97 l 90.12,-404.08 h -108.35 z m -14.09,67.27 -32.19,162.66 -134.09,-162.66 z m 654.66,-156.55 h -106.56 l -149.97,271.52 -77.98,-271.52 h -106.4 l 115.84,404.08 h 106.8 l 150.38,-270.39 77.72,270.39 h 106.01 z M 2358.16,105.91 H 2136.53 L 2072.18,16.625 H 1954 l 303.9,404.074 h 127.8 L 2488.5,16.625 h -109.06 z m -16.2,67.266 -37.26,162.66 -130.11,-162.66 z M 2553.7,16.625 2658.61,420.699 h 114.78 L 2668.87,16.625 Z m 339.29,0 h -115.05 l 104.91,404.074 h 248.18 c 42.69,0 76.1,-3.199 99.98,-9.511 24.01,-6.399 43.61,-17.965 58.7,-34.903 15.08,-16.836 22.98,-37.34 23.7,-61.433 1.03,-34.336 -12.31,-62.747 -40.14,-85.047 -27.84,-22.301 -70.5,-36.129 -128,-41.489 14.99,-9.5 29.3,-22.105 42.65,-37.73 26.72,-31.598 56.54,-76.2891 89.9,-133.961 h -123.63 c -10.59,22.7656 -31.03,58.3242 -61.5,106.684 -16.53,26.054 -33.85,43.656 -51.94,52.593 -11.1,5.364 -30.18,7.989 -57.37,7.989 h -46.85 z m 59.16,227.957 h 61.03 c 61.82,0 102.74,2.629 122.75,7.992 20.02,5.27 35.64,13.645 46.75,25.028 11,11.476 16.37,23.328 15.99,35.843 -0.44,14.766 -8.98,25.774 -25.72,33.114 -10.28,4.421 -32.34,6.582 -66.2,6.582 h -126.47 z m 390.46,-227.957 104.93,404.074 h 114.78 L 3475.17,84.1719 h 284.37 L 3742.18,16.625 Z m 468.92,0 104.92,404.074 h 114.78 L 3926.71,16.625 Z m 668.81,0 H 4373.11 L 4214.02,288.141 4143.67,16.625 h -107.12 l 104.54,404.074 h 107.49 l 159.44,-270.386 70.13,270.386 h 106.73 z m 117,0 104.64,404.074 h 414.39 l -17.36,-67.558 h -299.35 l -23.93,-91.723 h 289.31 l -17.38,-67.547 H 4758.23 L 4726.5,84.1719 h 325.22 L 5033.96,16.625 Z m 534.48,130.957 109.34,4.137 c 2.18,-25.215 8.68,-42.246 19.35,-50.985 17.21,-14.402 48.55,-21.5465 93.69,-21.5465 37.62,0 64.67,4.8906 81.18,14.582 16.49,9.7895 24.59,21.5465 24.18,35.2735 -0.35,11.953 -7.57,22.113 -21.6,30.387 -9.8,6.027 -36.64,15.902 -80.4,29.461 -43.74,13.632 -75.71,24.922 -95.89,34.047 -20.18,9.128 -36.28,20.89 -48.17,35.371 -11.89,14.582 -18.12,31.523 -18.7,51 -1.01,34.05 15.19,62.187 48.62,84.668 33.42,22.394 82.4,33.582 146.96,33.582 65.59,0 116.67,-11.098 153.26,-33.297 36.58,-22.297 57.25,-51.844 62.01,-88.817 l -110.13,-3.578 c -3.44,19.297 -13.51,34.153 -30.36,44.414 -16.82,10.254 -41.32,15.43 -73.59,15.43 -31.75,0 -54.42,-4.043 -67.71,-12.137 -13.42,-8.094 -19.88,-18.254 -19.51,-30.574 0.35,-11.578 6.88,-21.18 19.59,-28.703 12.59,-7.711 40.51,-18.25 83.59,-31.699 65.03,-20.035 106.37,-36.223 124.31,-48.739 26.72,-18.433 40.56,-42.046 41.42,-70.836 1.08,-35.66 -17.53,-66.1441 -55.83,-91.3589 -38.28,-25.3008 -92.18,-37.91019 -161.93,-37.91019 -48.02,0 -89.84,5.82809 -125.33,17.49999 -35.61,11.668 -60.95,27.8555 -76.03,48.6406 -15.07,20.7891 -22.55,44.5895 -22.32,71.6875 z M 673.965,797.195 H 307.742 L 196.992,593.125 H 1.73047 L 523.863,1516.74 H 735.031 L 884.922,593.125 H 704.715 Z m -23.442,153.762 -53.546,371.813 -223,-371.813 z m 379.337,-58.496 180.85,9.465 c 2.37,-57.625 12.25,-96.559 29.46,-116.559 27.74,-32.898 79.14,-49.238 153.76,-49.238 62.14,0 107.09,11.176 134.83,33.328 27.74,22.367 41.72,49.25 41.72,80.648 0,27.301 -11.4,50.528 -34.2,69.454 -15.91,13.761 -59.78,36.347 -131.38,67.308 -71.61,31.183 -123.87,56.983 -156.77,77.843 -32.9,20.86 -58.92,47.74 -77.84,80.86 -18.93,33.33 -28.39,72.04 -28.39,116.55 0,77.85 28.17,142.15 84.51,193.54 56.34,51.18 137.85,76.77 244.51,76.77 108.37,0 192.24,-25.38 251.59,-76.12 59.35,-50.97 92.04,-118.49 98.07,-203 l -182.15,-8.17 c -4.72,44.08 -20.64,78.05 -47.95,101.49 -27.32,23.44 -67.53,35.27 -120.85,35.27 -52.48,0 -90.11,-9.24 -112.47,-27.74 -22.58,-18.49 -33.76,-41.71 -33.76,-69.89 0,-26.45 10.32,-48.38 30.96,-65.59 20.43,-17.63 66.02,-41.72 136.55,-72.47 106.45,-45.8 173.98,-82.79 203.01,-111.38 43.21,-42.158 64.94,-96.139 64.94,-161.935 0,-81.504 -32.25,-151.176 -96.77,-208.809 -64.51,-57.84 -154.18,-86.656 -269.45,-86.656 -79.36,0 -148.16,13.328 -206.23,39.992 -58.27,26.664 -99.35,63.648 -123.21,111.176 -23.88,47.523 -35.06,101.937 -33.34,163.863 z m 831.57,-299.336 192.89,923.615 h 684.7 l -32.04,-154.4 h -494.6 l -44.08,-209.68 h 478.04 L 2614.29,998.262 H 2136.04 L 2078.2,747.523 h 537.39 L 2582.9,593.125 Z m 1391.76,0 h -180.21 l -33.33,771.785 -146.88,-771.785 h -171.38 l 192.89,923.615 h 270.75 l 28.37,-647.068 315.04,647.068 h 274.19 L 3609.09,593.125 h -173.32 l 182.13,766.195 z m 1148.55,204.07 h -366.22 l -110.75,-204.07 h -195.26 l 522.13,923.615 h 211.17 L 4612.7,593.125 H 4432.49 Z M 4378.3,950.957 4324.76,1322.77 4101.75,950.957 Z M 5467.07,593.125 h -177.2 L 5040.42,1213.74 4910.75,593.125 h -176.98 l 192.68,923.615 h 177.62 l 250.1,-618.041 129.24,618.041 h 176.34 L 5467.07,593.125" /></g></g></svg>