<?xml version="1.0" encoding="UTF-8" standalone="no"?>
<!-- Created with Inkscape (http://www.inkscape.org/) -->

<svg
   version="1.1"
   id="svg2"
   width="258.66666"
   height="258.66666"
   viewBox="0 0 258.66666 258.66666"
   sodipodi:docname="Iranair-logo.eps"
   xmlns:inkscape="http://www.inkscape.org/namespaces/inkscape"
   xmlns:sodipodi="http://sodipodi.sourceforge.net/DTD/sodipodi-0.dtd"
   xmlns="http://www.w3.org/2000/svg"
   xmlns:svg="http://www.w3.org/2000/svg">
  <defs
     id="defs6" />
  <sodipodi:namedview
     id="namedview4"
     pagecolor="#ffffff"
     bordercolor="#000000"
     borderopacity="0.25"
     inkscape:showpageshadow="2"
     inkscape:pageopacity="0.0"
     inkscape:pagecheckerboard="0"
     inkscape:deskcolor="#d1d1d1" />
  <g
     id="g8"
     inkscape:groupmode="layer"
     inkscape:label="ink_ext_XXXXXX"
     transform="matrix(1.3333333,0,0,-1.3333333,0,258.66667)">
    <g
       id="g10"
       transform="scale(0.1)">
      <path
         d="M 2.59766,1933.23 H 1930.16 V 5.66797 H 2.59766 V 1933.23"
         style="fill:#ffffff;fill-opacity:1;fill-rule:evenodd;stroke:none"
         id="path12" />
      <path
         d="m 1455.55,1327.07 c 0,1.96 -0.98,3.93 -1.96,5.88 -1.95,2.96 -3.92,3.93 -3.92,2.96 -0.99,0.97 -1.97,0 -2.95,-2.96 l -3.93,-5.88 -2.93,2.94 c -1.97,1.97 -3.93,1.97 -5.9,1.97 -2.94,0 -4.9,-0.98 -6.86,-2.95 l -3.93,-5.89 -7.85,-16.68 c -0.98,-1.96 -1.96,-3.92 -3.92,-4.91 l -5.89,-5.89 v 4.92 c 0,3.92 -1.96,6.87 -4.91,10.79 -2.94,1.96 -6.87,2.93 -9.81,2.93 -1.97,0 -3.93,-0.97 -6.87,-4.9 l -4.9,-7.85 c -4.91,-8.83 -6.87,-13.73 -5.89,-16.68 -0.98,-1.96 0.98,-4.91 3.92,-6.86 1.97,-0.99 4.91,-1.97 7.86,-2.95 l 4.89,0.98 h 2.96 c 0,-1.97 -0.99,-4.9 -4.91,-8.83 l -13.74,-10.79 -24.53,-15.71 c -1.97,-0.98 -2.95,-1.96 -2.95,-2.94 h 2.95 l 3.92,0.98 24.54,6.87 c 2.94,1.97 5.88,2.95 6.87,3.92 1.95,0 3.91,2.95 7.85,8.84 l 6.86,11.77 1.97,3.92 3.92,2.95 c 1.96,2.94 5.89,7.85 10.79,14.73 l 7.85,14.71 c 0.98,2.94 3.93,5.89 6.87,5.89 0.98,0 2.94,-0.98 4.91,-1.96 l 5.89,-0.99 c 2.94,0 6.86,1.97 9.82,4.9 1.95,3.93 3.91,8.84 3.91,12.77 z m -91.26,33.36 -11.77,-29.43 -1.96,-17.67 c -0.98,-7.85 -1.96,-15.7 -3.93,-22.56 l -6.87,-25.52 0.98,-1.97 c 0.99,0 1.97,0 2.95,1.97 l 12.76,22.57 3.92,11.77 8.83,64.76 -0.98,1.97 -0.98,-1.97 z m 63.79,-105 5.88,11.78 c -1.96,0 -5.88,-5.89 -11.76,-16.68 -5.9,-11.78 -8.84,-20.61 -8.84,-27.48 0,-1.96 0,-4.9 1.96,-7.85 0.98,-1.95 2.94,-2.94 4.91,-2.94 2.94,0 4.9,0.99 5.89,3.92 1.96,1.97 1.96,4.91 2.94,6.87 0,3.92 -1.96,6.87 -4.91,6.87 l -3.92,3.92 c 0,4.91 2.94,12.76 7.85,21.59 z m -108.92,59.86 v 0.98 h -3.93 c -2.94,0 -5.89,-1.97 -10.79,-4.9 -3.92,-3.92 -8.83,-7.86 -10.8,-12.76 l -4.9,-8.83 -2.95,-3.93 c -1.96,0 -2.93,-1.96 -4.9,-2.94 l -4.91,-7.85 c -2.94,-2.93 -4.9,-3.92 -7.85,-4.91 l -7.85,-1.96 c -4.9,0 -8.83,1.96 -11.78,5.88 -1.96,2.95 -2.93,7.86 -3.92,13.75 v 0.98 l 8.83,69.66 v 4.92 l -0.98,-0.99 c -0.98,-2.93 -3.93,-7.85 -5.89,-15.69 l -4.9,-10.79 -7.85,-64.77 -0.99,-0.99 c 0,-8.83 1.97,-15.7 4.91,-21.58 3.93,-5.89 7.86,-8.84 13.74,-8.84 4.91,0 9.81,2.95 14.72,8.84 l 10.79,15.69 c 1.96,2.95 3.93,3.93 7.85,3.93 l 6.87,-0.98 4.91,-1.96 c 1.96,0 3.93,0.98 6.87,4.9 3.92,2.95 4.9,6.87 4.9,8.84 0,1.96 -0.98,3.92 -4.9,6.86 -2.94,2.95 -3.93,5.9 -3.93,6.87 0,1.96 0.99,3.93 3.93,5.89 1.95,2.94 4.9,2.94 6.86,2.94 1.97,0 2.95,-0.97 3.93,-1.96 l 2.95,-0.98 1.96,-0.98 v 0.98 c 2.94,0.98 5.89,3.93 10.79,8.84 l 3.93,6.85 0.98,4.92 c 1.96,3.92 1.96,4.9 0,4.9 0,0.98 -0.98,0 -2.95,-2.94 l -3.92,-4.91 c -0.98,-1.97 -2.94,-1.97 -3.92,-1.97 z m 2.94,-90.28 -1.97,0.99 c 0,0.97 -1.95,-0.99 -2.93,-3.93 l -7.86,-11.78 c -1.96,-3.92 -2.94,-5.89 -2.94,-6.86 v 4.91 c 0,1.95 -0.99,3.92 -0.99,5.88 -0.97,1.96 -2.93,3.93 -6.86,7.85 l -3.92,2.94 c 0,0 -0.99,0.99 -1.97,0.99 0,0.97 -1.96,-0.99 -3.92,-3.93 l -6.86,-11.78 c -1.97,-4.9 -2.96,-6.86 -2.96,-7.84 0,0 1.97,-2.94 6.87,-6.88 l 3.93,-4.9 c 0.98,-0.98 2.94,-1.96 2.94,-2.94 2.95,0 5.89,3.92 10.8,9.81 l 1.95,4.91 11.79,-11.78 c 1.96,-0.98 2.93,-1.96 2.93,-2.94 2.95,0 5.9,3.92 9.82,9.81 l 3.93,4.91 0.98,5.89 c 0,2.94 -0.98,4.91 -1.97,5.88 -0.98,2.94 -3.92,4.91 -6.86,7.85 z m -62.8,-9.81 -1.96,-1.95 -11.77,-23.56 c 0,0 0.97,-1.96 1.95,-2.94 l 8.84,-7.85 3.92,-1.97 3.93,1.97 c 1.96,1.96 4.9,3.92 5.88,7.85 l 2.95,6.86 c 0.98,1.96 0.98,3.93 0.98,5.9 -0.98,2.94 -0.98,4.89 -2.94,5.88 -0.99,1.96 -3.93,3.93 -7.86,7.86 l -1.96,0.97 z m 59.86,-48.07 c 0,0.96 0,2.94 0,5.88 0,2.94 0,4.9 -0.98,5.89 -0.98,1.96 -2.95,3.92 -6.88,7.85 l -3.92,2.94 -1.97,1.96 c 0,0 -1.95,-1.96 -3.91,-4.9 l -6.87,-11.78 c -1.97,-4.9 -3.93,-6.88 -3.93,-7.84 l 11.78,-10.81 2.93,-2.94 c 2.95,0 5.89,2.94 9.82,8.84 z m -74.58,24.52 c 0,2.95 0.99,4.9 0,6.87 0,1.96 -0.98,3.93 -2.94,5.88 l -6.87,6.88 -3.93,2.94 -13.74,-26.49 1.97,-2.95 8.83,-6.87 3.92,-2.94 c 0.98,0 1.97,0.98 3.93,1.96 1.96,1.97 3.93,4.91 5.89,7.85 z m -52.98,232.56 -2.95,-4.9 -1.96,-6.87 c 0,-1.96 -0.98,-3.92 0,-4.91 0,0 0.97,-0.98 2.94,-0.98 l 2.94,-0.98 -5.88,-11.78 0.97,-0.98 6.87,9.81 13.74,15.71 v 2.94 l -2.94,-2.94 -2.94,-1.97 -5.89,-0.98 c -2.95,0.98 -3.93,0.98 -3.93,1.97 -0.97,1.96 -0.97,2.94 0,3.92 0.98,0.98 1.96,1.96 3.93,2.94 l 3.93,-0.98 c 0.97,0 0.97,0.98 1.96,0.98 0,0.99 0,1.96 0,2.95 l -1.96,0.98 -3.93,0.98 c -1.97,-0.98 -3.93,-1.96 -4.9,-4.91 z m 27.47,-34.34 c -2.94,6.86 -6.87,9.81 -8.83,10.79 l -9.81,-26.49 c 0,-0.99 0,-2.94 0.97,-3.92 l 6.87,-13.74 c 0.98,-2.95 1.97,-4.91 1.97,-6.87 0,-3.93 -1.97,-9.82 -5.89,-19.63 l -9.82,-21.59 c -1.96,-2.94 -1.96,-4.91 -1.96,-6.87 -0.97,-1.96 -1.96,-4.9 -0.97,-7.85 -0.99,-3.92 2.93,-7.85 9.8,-10.79 5.89,-2.95 9.82,-5.89 9.82,-6.87 0,-7.85 -4.91,-14.72 -13.74,-21.59 -9.82,-8.83 -21.59,-12.75 -35.32,-12.75 -8.84,0 -14.73,0.98 -20.61,4.9 -6.87,4.91 -9.81,12.76 -9.81,23.55 0,6.87 1.96,15.7 5.89,25.51 l 13.73,31.41 1.96,5.88 c 0,1.96 0,2.96 -0.98,2.96 -0.98,0.97 -1.96,-1 -2.95,-2.96 l -17.65,-38.27 c -2.95,-5.88 -4.91,-12.75 -6.87,-21.58 -2.95,-8.84 -3.93,-15.71 -3.93,-19.62 0,-11.78 2.94,-21.6 8.83,-28.47 5.89,-8.83 14.73,-13.73 26.5,-13.73 4.9,0 9.81,0.98 14.71,1.97 2.95,1.95 6.87,3.91 11.78,5.88 11.77,8.83 19.63,19.62 27.48,34.35 2.94,7.84 5.89,15.69 7.84,22.56 1.97,5.89 2.95,11.78 2.95,17.66 0,3.93 -0.98,6.88 -1.96,9.81 -0.99,1.97 -2.94,3.94 -5.89,5.89 l -4.91,2.95 c -0.98,0.98 -1.96,1.95 -1.96,3.92 l 11.77,31.4 c 3.93,10.79 4.91,18.65 5.9,24.54 -0.99,5.88 -1.97,11.77 -4.91,17.66 z m -785.015,-32.39 -3.93,-5.88 -8.836,-20.6 -2.941,-8.84 -1.961,-17.66 c -0.981,-7.85 -1.961,-15.7 -3.922,-22.57 l -6.871,-26.5 0.98,-0.98 c 0,0 1.961,0 2.946,1.97 l 12.757,22.57 3.918,11.78 c 1.969,6.86 1.969,10.78 2.95,13.73 l 5.886,51.02 z m -39.258,-32.38 c 0,1.97 0,2.94 -0.981,3.93 l -1.961,-1.96 -7.855,-14.72 -2.937,-10.8 c -0.981,-2.94 -0.981,-5.89 -0.981,-8.83 l -0.98,-20.59 c 0,-3.94 0,-8.85 -1.969,-11.79 -0.977,-3.92 -2.945,-7.85 -4.903,-10.8 l -9.812,-12.75 c -4.91,-4.91 -9.813,-8.83 -13.742,-11.78 -4.906,-1.96 -9.809,-3.92 -14.719,-4.9 l -16.676,-1.96 c -7.855,0 -15.699,1.96 -20.605,5.89 -7.852,4.91 -11.778,12.75 -11.778,23.55 0,4.9 0.977,8.83 1.957,12.75 l 13.743,32.38 1.965,4.91 v 2.95 h -1.965 l -12.754,-23.56 c -2.946,-5.88 -4.906,-9.81 -6.871,-13.74 -1.965,-3.92 -2.946,-9.8 -4.914,-16.68 -0.981,-7.85 -2.938,-13.73 -2.938,-18.64 0,-11.78 3.926,-21.59 9.817,-28.45 6.871,-7.86 15.699,-11.78 27.476,-11.78 9.805,0 19.613,2.94 28.453,7.84 7.856,4.91 15.696,11.78 23.551,20.61 3.918,4.91 8.832,11.78 12.754,18.65 2.945,5.88 5.891,12.76 8.828,19.62 l 3.934,16.69 c 0.98,5.88 1.961,10.79 2.945,15.69 0.976,3.94 0.976,8.83 0.976,14.72 z m -43.172,-39.25 c 0,1.97 -0.98,3.93 -1.965,4.92 -1.969,1.95 -4.906,4.89 -7.847,7.84 -0.985,0 -1.965,0.98 -2.946,0.98 l -2.945,1.96 -7.848,-11.77 -5.89,-13.74 c 0,-1.97 0.98,-2.94 2.941,-3.91 l 11.781,-7.87 1.961,-1.96 c 1.961,0.98 5.887,3.93 10.793,9.83 1.965,3.91 2.945,6.86 2.945,9.8 z m 70.652,-38.26 c 0.977,-0.99 1.957,-1.97 4.907,-1.97 l 22.566,4.91 c 5.883,2.95 9.813,6.86 13.742,13.73 l 6.867,17.67 c 1.957,3.92 3.922,7.85 4.903,9.82 l 3.929,2.93 3.918,1.97 10.797,5.89 c 4.91,1.96 10.789,11.76 15.699,28.46 0,3.91 0,4.91 -0.972,4.91 -0.988,0 -1.969,-1 -3.938,-4.91 -1.961,-3.93 -3.918,-6.88 -4.898,-7.86 l -15.703,-8.84 -8.832,-6.85 -8.832,-16.68 c -2.938,-7.86 -5.887,-12.76 -5.887,-13.75 -1.961,-0.98 -4.91,-4.89 -10.793,-9.81 l -24.527,-15.7 c -1.969,-1.97 -2.946,-2.94 -2.946,-3.92 z m 16.676,-43.19 -7.848,7.86 -3.921,1.96 -10.797,-19.62 -1.961,-5.89 0.98,-1.96 9.817,-8.84 3.922,-1.96 c 0.98,0 1.96,0.98 2.941,1.96 2.945,2.95 4.906,4.91 5.891,7.86 l 2.945,6.87 c 0.98,1.96 0.98,3.91 0.98,5.88 -0.98,2.95 -1.964,4.91 -2.949,5.88 z m 3.926,-13.73 c 0,-0.98 0,-1.96 1.969,-2.94 l 12.75,-9.82 3.925,1.97 c 1.969,1.96 3.926,4.9 4.907,6.87 1.965,2.94 2.953,4.9 3.929,7.85 0,1.95 0,4.91 0,5.88 0,2.95 -0.976,3.92 -1.964,5.89 l -7.852,6.88 -2.945,1.95 -0.981,0.98 -11.769,-19.63 z m 694.751,174.67 -5.89,1.95 -14.72,2.96 -9.82,0.98 c -4.9,0 -9.81,-0.98 -12.76,-3.94 -1.96,-1.95 -3.92,-4.9 -6.87,-8.83 -2.93,-3.92 -3.91,-5.88 -2.93,-7.84 h 0.97 l 1.96,1.96 5.9,4.9 c 1.96,0.98 3.92,1.98 6.86,1.98 l 21.59,-3.94 -4.9,-2.94 c -8.84,-2.94 -14.72,-5.88 -18.65,-8.83 -3.93,-2.94 -7.85,-5.89 -9.81,-9.81 l -6.87,-11.78 -0.99,-3.93 -15.7,-18.64 -2.94,4.91 c -2.94,3.92 -5.88,4.9 -9.81,4.9 -3.93,0 -7.84,-0.98 -10.8,-5.89 l -8.83,-10.79 -5.89,-4.9 c -1.95,-1.97 -3.91,-1.97 -4.9,-2.95 v 6.88 c 0,3.91 -1.95,7.84 -4.9,10.79 -2.95,1.96 -5.89,3.92 -9.82,3.92 -1.96,0 -4.91,-1.96 -7.848,-4.91 -1.965,-1.96 -2.946,-4.9 -4.903,-7.85 -3.929,-8.83 -5.89,-13.74 -5.89,-16.68 0,-2.95 1.961,-4.89 4.91,-6.87 1.965,-1.96 4.898,-2.94 7.841,-2.94 h 3.93 l 3.93,0.98 c 0,-2.94 -1.97,-5.89 -4.91,-8.83 l -13.74,-11.77 -24.524,-15.71 c -1.972,0 -2.945,-1.96 -2.945,-1.96 h 1.957 3.922 l 25.519,7.85 6.861,2.94 c 1.97,0.99 3.93,3.93 6.87,8.83 l 7.86,11.78 1.96,4.91 3.92,2.94 12.76,15.7 c 3.93,3.93 6.86,6.88 9.82,6.88 2.94,0 5.88,-0.98 8.83,-3.93 1.96,-1.97 2.94,-4.91 2.94,-8.83 l -2.94,-13.74 v -3.93 c 1.96,0 2.94,0 2.94,1.96 l 10.79,24.54 c 0.98,2.95 3.93,4.9 5.89,6.86 4.91,3.93 7.84,4.91 11.78,4.91 l 9.8,-1.96 c 3.93,0 6.88,1.96 8.84,5.88 l 2.94,4.91 0.98,4.91 c 0,0.97 -1.96,3.93 -3.92,6.87 l -8.84,9.81 h -0.97 l 2.94,2.94 3.92,2.96 11.78,4.9 c 9.81,3.92 16.68,6.86 18.64,7.84 6.88,3.93 10.8,8.83 10.8,12.76 0,1.97 -0.99,2.94 -3.92,3.93 z m -50.06,-142.29 v 5.9 c 0,2.93 -0.98,4.89 -1.96,5.88 l -7.84,7.85 -2.95,0.98 -0.98,1.96 -6.87,-11.78 -6.88,-14.71 1.97,-1.97 12.76,-10.79 c 0.98,0 1.97,0.98 3.93,1.97 1.95,2.94 3.92,4.91 5.89,7.84 0.97,2.95 1.95,4.91 2.93,6.87 z m -141.293,113.83 c 0.977,0 1.957,0.98 3.914,3.93 l 6.872,15.7 1.968,6.87 c 0,0 0,0.97 -0.98,0.97 l -1.961,1.97 c -1.965,0 -5.899,-1.97 -9.813,-3.93 l -9.812,-6.87 -8.832,-7.85 c -4.91,-3.92 -8.836,-8.83 -14.727,-15.69 -5.879,-7.86 -10.789,-15.71 -14.715,-24.53 -2.941,-7.86 -4.914,-14.73 -4.914,-20.62 0,-2.94 0.985,-5.88 1.973,-7.84 1.965,-1.97 3.922,-3.93 6.867,-4.92 l 8.832,-2.93 c 2.942,-0.99 3.922,-2.95 3.922,-3.93 0,-2.95 -0.98,-5.89 -2.945,-9.82 -0.977,-3.91 -3.926,-6.86 -7.844,-11.77 -3.93,-3.92 -8.832,-6.87 -13.742,-10.79 -7.852,-2.95 -15.699,-4.91 -23.543,-4.91 -10.797,0 -17.672,2.95 -22.574,6.87 -5.887,3.92 -7.852,9.81 -7.852,17.66 0,6.87 1.965,17.68 7.852,32.38 l 14.715,34.35 c 0.984,0.98 0.984,1.96 0.984,2.94 0,1.96 -0.984,2.95 -1.965,2.95 L 856,1324.12 839.313,1288.8 c -3.922,-5.89 -6.864,-13.74 -8.833,-22.57 -1.96,-4.91 -2.933,-9.81 -3.914,-14.72 0,-3.92 -0.988,-8.83 -0.988,-14.72 0,-2.95 0.988,-7.84 1.969,-11.78 0.973,-3.92 2.933,-8.83 5.879,-12.75 4.91,-7.86 13.742,-11.78 25.512,-11.78 10.792,0 19.632,2.95 27.476,7.86 3.926,2.94 7.848,5.88 11.777,9.81 2.946,3.92 5.891,6.86 8.836,10.8 4.899,7.84 9.809,17.65 12.75,28.44 2.946,10.8 4.911,20.62 4.911,29.44 0,5.89 -1.965,9.82 -4.911,11.78 l -10.793,5.89 c -1.957,1.96 -2.945,2.95 -2.945,4.9 0,0 1.961,2.95 4.91,6.87 1.957,2.95 5.887,7.85 10.793,11.77 3.926,3.94 7.848,6.87 11.778,8.84 3.918,1.96 6.867,2.94 8.824,2.94 l 1.969,-0.98 z m 22.563,-33.37 -12.75,-35.32 c -2.949,-4.91 -5.899,-8.83 -7.856,-11.77 l -20.601,-17.67 c -3.93,-2.94 -6.871,-4.91 -7.856,-6.87 0,-1.96 -0.98,-1.96 0,-1.96 0,-0.97 0.985,-0.97 1.965,-1.96 l 12.758,2.94 9.813,3.93 7.851,4.9 3.926,5.89 8.828,19.63 6.867,27.47 0.981,11.78 -0.981,1.96 c -1.965,0 -2.945,-0.98 -2.945,-2.95 z m -139.34,57.9 -0.98,1.97 -1.954,-1.97 -1.972,-3.93 -11.77,-29.44 -1.972,-17.65 c -0.977,-5.89 -1.954,-12.76 -3.914,-22.57 l -6.875,-25.52 0.98,-1.96 c 0,0 0.98,0.98 2.945,1.96 l 5.887,9.83 10.793,24.52 z m -40.227,-61.82 c 0,1.96 -0.98,2.95 -0.98,2.95 -0.984,0 -1.973,-0.99 -1.973,-3.93 l -2.937,-5.89 c -0.981,-1.95 -1.969,-2.94 -3.926,-2.94 h -3.926 l -0.98,-3.93 c -1.961,-1.96 -2.942,-3.92 -4.91,-5.89 l -3.926,-0.97 h -7.84 l -8.836,-6.86 c -2.945,-3.94 -7.855,-4.92 -13.734,-4.92 -3.934,0 -6.867,0.98 -9.817,2.94 -1.961,0.99 -3.933,2.95 -4.906,6.87 l -1.961,8.83 3.918,83.41 -1.957,-0.98 c -5.891,-10.8 -8.832,-18.64 -10.789,-25.51 -1.965,-6.86 -2.945,-13.74 -2.945,-19.63 v -46.12 l -0.985,-8.83 c -1.965,-5.89 -5.89,-10.8 -9.82,-15.7 -4.902,-3.92 -9.809,-6.87 -14.719,-6.87 h -3.914 l -1.969,0.98 c 3.926,5.89 6.872,11.78 8.829,18.65 0.984,3.92 1.964,9.81 2.949,15.7 0.98,4.9 0.98,9.82 1.961,14.71 l 1.961,51.04 c 0,2.94 0,4.9 -0.981,4.9 l -0.98,-1.96 c -3.926,-10.8 -6.867,-19.63 -8.828,-27.48 -1.961,-9.81 -3.93,-18.65 -2.942,-27.48 v -27.47 l -1.969,-8.83 c -0.984,-1.96 -0.984,-3.93 -1.968,-5.89 l -4.899,-7.85 -1.961,-2.94 c 0,-0.99 0.981,-1.97 1.961,-3.93 l 2.946,-2.94 c 1.953,-0.99 2.937,-1.96 5.89,-3.93 0.981,-0.98 3.914,-0.98 6.86,-1.95 3.929,0.97 8.835,2.93 12.761,5.88 1.965,1.96 4.903,5.88 8.832,11.77 l 3.93,6.88 0.973,-3.94 c 2.941,-4.9 7.855,-7.84 14.722,-8.83 5.883,0.99 10.793,3.93 16.68,10.8 4.906,6.87 7.852,10.79 9.809,10.79 l 4.906,0.98 h 4.91 c 1.965,0 3.922,0.98 6.875,3.93 l 3.922,5.89 c 3.93,0 7.844,2.94 11.773,8.83 2.946,6.87 4.91,12.75 4.91,17.66 z m -122.66,60.84 c -3.925,2.95 -8.832,4.91 -13.742,4.91 -2.937,0.98 -3.93,-0.99 -5.887,-3.93 l -9.808,-19.62 c 0,-1.97 0,-2.95 1.961,-3.93 0.976,-0.98 1.957,-1.95 2.937,-1.95 -0.98,-1 -1.961,-1.97 -1.961,-2.96 l -14.711,-13.73 -7.859,-11.77 c -2.938,-3.94 -4.906,-8.84 -6.863,-13.75 -1.961,-5.88 -2.946,-8.83 -1.961,-11.77 -0.985,-2.94 0,-5.89 1.961,-8.83 0,-0.97 2.941,-2.95 4.906,-3.93 l 11.777,-5.89 c 0.977,-0.98 0.977,-1.96 0.977,-3.92 0,-2.94 -1.957,-7.85 -5.891,-12.76 -2.933,-5.89 -7.844,-10.79 -13.73,-13.73 -4.91,-2.95 -9.809,-4.91 -14.727,-5.9 l -15.695,-1.96 c -7.848,0 -14.723,2.95 -20.609,7.86 -5.887,5.88 -7.848,13.73 -7.848,23.55 0,4.9 0.98,10.79 3.926,17.65 0,1.97 2.941,9.82 8.828,23.56 3.929,7.85 5.89,13.74 6.875,18.64 v 5.89 l -4.914,-8.83 -4.899,-10.79 c -5.89,-11.77 -9.816,-21.59 -12.761,-31.4 -4.907,-11.78 -6.872,-22.57 -5.887,-31.41 0,-13.73 2.941,-24.53 7.847,-32.38 5.895,-7.84 12.758,-11.78 23.555,-11.78 18.645,0 35.324,8.83 48.082,27.48 4.91,7.85 9.809,16.68 13.735,26.49 2.949,10.8 4.91,20.61 4.91,28.47 v 3.92 c 0,1.96 0,3.92 -0.977,4.9 0,1.97 -1.969,3.94 -3.933,5.89 l -8.825,3.93 c -2.953,1.96 -4.91,3.93 -4.91,4.9 0,1.96 1.957,4.91 4.91,6.87 l 5.879,6.87 12.766,8.83 c 4.894,2.95 8.824,4.91 12.75,7.86 2.945,1.96 6.871,4.9 10.797,8.83 2.941,4.9 4.906,8.83 4.906,11.77 -0.98,2.94 -1.965,4.9 -5.887,7.85 z m -130.508,-4.91 -0.992,1.96 -3.918,-5.88 -10.793,-29.44 -1.961,-17.66 c -1.972,-9.82 -2.949,-17.67 -3.929,-22.57 l -7.848,-26.5 0.981,-0.98 3.929,1.97 11.77,22.57 3.929,11.78 c 0.981,3.91 1.961,8.82 2.942,13.73 l 5.89,51.02"
         style="fill:#10234e;fill-opacity:1;fill-rule:evenodd;stroke:none"
         id="path14" />
      <path
         d="m 1553.78,1182.09 c -0.59,4.73 -2.67,7.7 -6.51,9.17 -12.13,4.74 -24.56,5.92 -37.88,3.56 -19.82,-3.27 -36.69,-9.18 -49.71,-17.77 -49.13,-30.77 -87.01,-70.13 -113.65,-118.07 -2.66,-4.43 -3.84,-6.81 -3.84,-7.69 -1.48,-15.39 1.48,-26.34 8.88,-32.55 0.89,0 1.47,0 2.07,0.29 6.8,2.38 14.2,8.29 21.9,17.17 0,0.59 0,1.48 0.3,2.07 1.48,9.77 5.02,9.18 10.65,-2.07 1.48,-1.49 3.55,-2.07 6.51,-2.37 h 4.14 c 3.85,5.03 5.34,8.58 4.44,10.95 2.96,-0.6 5.33,-0.6 7.11,0.59 35.2,24.27 68.35,51.2 99.13,80.79 4.73,4.73 9.77,8.58 15.39,11.84 15.68,9.76 26.04,24.26 31.07,44.09 z m -16.67,-12.98 c -0.12,2.7 -1.16,4.45 -3.27,5.47 -6.64,3.21 -13.6,4.43 -21.23,3.68 -11.33,-0.95 -21.13,-3.55 -28.86,-7.81 -29.11,-15.21 -52.24,-35.75 -69.41,-61.64 -1.71,-2.38 -2.48,-3.67 -2.52,-4.17 -1.52,-8.62 -0.33,-14.94 3.57,-18.78 0.5,-0.03 0.84,-0.06 1.19,0.08 3.94,1.03 8.38,4.04 13.12,8.72 0.03,0.34 0.07,0.84 0.26,1.16 1.27,5.44 3.25,4.95 5.92,-1.65 0.77,-0.9 1.92,-1.32 3.58,-1.62 l 2.34,-0.19 c 2.39,2.68 3.39,4.62 2.99,5.99 1.64,-0.46 2.98,-0.57 4.03,0.02 20.97,12.13 40.88,25.87 59.57,41.22 2.89,2.46 5.9,4.41 9.22,6 9.29,4.82 15.78,12.54 19.5,23.52 z m -72.7,-92.08 c -20.42,-15.98 -42.32,-34.32 -60.96,-51.79 0,-0.88 0,-1.17 0,-1.17 11.84,-2.08 19.23,-4.75 22.78,-8.29 3.56,-3.85 5.92,-8.29 7.4,-13.32 1.19,-5.323 2.07,-10.355 3.25,-15.98 14.21,9.473 26.94,14.29 37.59,13.91 22.59,-0.82 41.98,-17.464 41.9,-40.956 -0.05,-13.672 -7.39,-28.493 -19.12,-35.985 -0.24,-0.156 0.3,0 0.3,-0.297 3.25,-4.734 9.77,-7.402 19.54,-7.402 17.16,7.699 24.56,23.086 22.78,46.172 -4.44,56.218 -29.59,94.698 -75.46,115.108 z m 44.98,-118.956 c 0.03,1.559 0.07,3.215 -0.3,4.735 -0.59,7.988 -3.84,15.386 -10.05,21.308 -6.81,7.102 -15.1,10.352 -24.86,10.352 -9.18,0 -16.88,-2.953 -23.38,-8.875 -0.6,-0.297 -1.19,-0.887 -1.49,-1.477 -4.73,-4.445 -7.98,-10.066 -9.47,-16.277 -0.58,-2.664 -0.88,-5.332 -0.88,-8.586 0,-9.473 3.25,-18.051 10.35,-24.859 6.81,-6.801 15.1,-10.356 24.87,-10.356 4.73,0 9.17,0.891 13.61,2.668 1.78,0.887 3.84,1.766 5.62,3.25 2.07,1.184 3.84,2.668 5.63,4.438 4.06,4.253 6.97,8.855 8.66,13.949 1.01,3.051 1.59,6.289 1.69,9.73 z m -166.61,113.046 c 6.81,8.58 16.87,21.6 30.18,39.06 -11.24,4.73 -23.07,2.96 -35.51,0.3 -108.01,-23.98 -177.85,-81.68 -210.11,-179.05 -17.45,-51.785 -23.68,-108.301 -18.94,-169.852 5.04,-60.668 15.4,-116.004 31.37,-165.426 14.21,-2.664 28.71,-3.851 43.51,-3.55 102.68,0.593 177.56,33.738 224.31,99.433 23.08,-23.383 38.77,-54.457 47.05,-93.519 2.66,-12.426 4.15,-25.746 4.44,-39.36 0.3,-60.953 -10.95,-111.859 -34.33,-152.984 -42.61,-75.77 -103.28,-134.949 -181.7,-177.567 -85.52,-46.16 -180.8,-79.003 -286.155,-98.539 30.179,29.895 58.895,61.547 85.225,94.993 26.63,34.027 46.75,73.683 59.78,119.261 4.14,14.2 6.21,28.407 6.21,42.614 0.29,63.621 -14.8,112.75 -44.98,147.367 -31.67,36.398 -68.36,63.625 -110.677,81.383 47.344,-27.227 82.867,-66.586 106.537,-117.481 14.8,-31.668 19.53,-68.359 14.5,-110.68 -7.4,-60.07 -28.11,-107.125 -62.74,-141.453 C 945.941,180.965 867.52,129.469 776.074,90.707 c 120.746,2.9571 230.526,20.129 329.076,51.492 62.15,19.821 118.38,44.391 169.27,73.985 82.87,47.941 144.71,116.296 185.26,204.781 10.35,23.078 17.46,47.941 20.41,75.465 13.02,110.379 -10.95,188.797 -71.32,235.258 -18.64,14.5 -43.2,33.14 -73.09,55.632 -30.18,22.789 -45.28,56.52 -45.28,101.797 -0.29,44.981 6.21,74.281 19.24,88.192 0.89,0 1.18,-0.301 1.48,-0.594 31.66,-56.219 61.84,-113.926 89.96,-173.707 1.47,0.293 8.28,-0.887 20.72,-3.254 12.13,-2.367 29.88,-4.149 53.55,-5.332 -0.29,0.59 -0.29,1.183 -0.58,1.777 -21.9,29.008 -49.13,52.379 -82.27,70.133 0.59,0 1.48,0 2.07,0 19.24,2.074 36.1,1.777 50.6,-1.777 5.63,-0.879 8.29,-1.766 8.58,-1.766 19.83,-4.445 32.56,-15.691 38.18,-33.742 0.3,-0.594 0.89,-4.731 1.18,-11.832 0,-7.402 3.26,-10.656 9.77,-10.07 6.21,0.296 8.28,5.335 5.92,14.507 -2.38,9.168 -7.1,18.934 -14.21,29.301 -5.92,8.578 -13.91,14.789 -23.67,19.52 0,0.89 6.22,2.082 19.23,3.851 12.73,1.781 29.6,5.621 50.31,11.539 0,0.598 0,1.485 0.3,2.075 0.59,6.511 -1.78,13.906 -6.81,21.894 -0.59,0 -2.07,0 -4.73,-0.297 -2.37,0 -6.22,0.297 -11.54,0.887 -5.34,0.894 -8.59,1.187 -9.77,1.187 -0.89,0.301 -3.55,0.891 -7.4,1.778 -3.84,1.187 -7.4,3.25 -10.06,6.511 -5.03,-2.07 -10.36,-2.964 -15.98,-3.261 -11.84,0.297 -21.6,4.152 -29.59,12.433 -8.29,7.989 -12.43,18.055 -12.43,29.594 0,3.547 -0.3,9.469 -1.49,17.754 -0.88,7.996 -2.35,15.098 -4.43,21.605 -2.37,6.207 -4.73,10.357 -7.7,12.427 -2.95,2.37 -7.1,4.74 -11.83,6.81 -5.02,2.66 -9.18,1.18 -12.73,-3.85 -3.26,-4.73 -10.06,-7.69 -19.82,-8.29 -9.77,-0.58 -18.65,1.78 -26.05,7.11 -7.69,5.03 -12.43,10.66 -14.79,16.27 -2.07,5.63 -2.96,12.13 -2.37,19.24 0.6,7.1 4.44,14.8 11.54,23.38 z m -33.44,-109.198 c -4.31,-9.82 -8.45,-45.27 -9.46,-51.789 -2.08,-13.617 0,-34.328 5.91,-62.145 5.92,-27.816 29.89,-55.043 71.61,-81.679 5.34,8.879 10.66,19.238 15.69,31.078 -26.63,56.519 -54.45,111.269 -83.75,164.535 z m 66,46.758 c 4.73,-1.19 6.8,-0.59 6.8,0.88 -2.07,21.6 -7.99,24.57 -18.05,9.18 2.07,-5.33 5.62,-8.88 11.25,-10.06 z m 30.18,-336.184 c -0.59,0 -1.19,-0.289 -1.48,-0.586 -37.29,-43.5 -87.9,-71.316 -151.81,-83.453 -68.36,-13.019 -124.59,-6.211 -168.98,20.719 -4.44,2.957 -8.87,5.918 -13.32,9.172 -73.977,55.629 -114.52,144.711 -121.922,267.515 -2.656,2.961 -13.012,9.172 -30.77,18.938 -18.047,9.773 -56.82,26.929 -116.597,52.09 -60.071,24.855 -120.149,42.906 -179.629,53.559 -59.774,10.96 -102.981,16.87 -129.914,17.46 -26.633,0.89 -57.703,-1.18 -92.625,-5.92 -34.918,-4.73 -64.508,-11.83 -88.481,-20.72 0,-0.88 0,-1.473 0.297,-2.059 10.359,-22.793 23.379,-43.211 38.77,-61.262 37.582,15.094 100.609,20.715 189.093,16.278 88.489,-4.735 177.852,-27.817 268.7,-69.247 -2.957,-5.035 -7.688,-5.917 -14.196,-3.253 -77.242,34.324 -168.39,54.742 -273.445,60.961 -69.543,3.843 -126.648,-4.438 -172.227,-24.27 0,-0.883 0.297,-1.184 0.594,-1.781 15.09,-26.039 34.328,-47.938 58.297,-65.684 37.285,17.156 83.742,24.852 139.379,23.664 53.566,-1.476 101.5,-7.695 144.121,-19.23 26.926,-6.809 52.672,-13.907 76.938,-20.715 26.343,-7.699 49.125,-16.277 68.66,-25.453 v -8.285 c -40.547,13.32 -82.571,26.039 -126.368,38.175 -44.386,12.426 -92.917,20.121 -146.179,23.082 -67.774,3.848 -122.227,-6.507 -163.059,-30.777 0,-0.883 0,-1.48 0.586,-1.769 17.758,-21.907 39.953,-39.665 66.879,-52.68 22.496,5.621 44.981,10.652 68.066,14.496 25.45,4.144 52.965,5.039 81.969,1.781 49.125,-5.328 87.895,-12.137 116.301,-20.715 28.113,-8.586 58.008,-18.347 89.672,-29.007 31.367,-10.942 42.91,-19.235 33.734,-25.446 -31.965,15.09 -66.289,27.821 -102.691,38.469 -36.399,10.957 -81.672,19.238 -135.828,25.449 -54.153,5.922 -102.985,-0.586 -147.078,-20.414 0,-0.594 0,-1.183 0.597,-1.476 22.781,-21.606 49.414,-39.36 80.188,-52.981 75.461,8.289 146.488,6.215 213.664,-6.801 110.383,-20.715 190.871,-54.156 242.074,-100.023 50.89,-46.164 81.97,-81.09 93.21,-105.649 10.95,-24.265 17.76,-55.636 20.42,-93.507 2.67,-38.18 -10.06,-82.86 -38.76,-134.063 -28.71,-51.484 -60.08,-92.031 -94.702,-121.914 57.112,15.387 111.562,33.137 162.462,53.555 92.62,36.992 161.88,81.094 208.33,132.277 46.47,51.199 75.47,110.086 86.42,176.375 11.24,66.586 -2.08,121.629 -39.36,165.125 z m 137.31,204.492 v 1.184 l -53.26,-10.652 c 1.18,-0.297 3.25,-2.071 6.5,-5.922 4.14,-4.727 8,-11.543 12.43,-20.418 4.14,-8.582 7.7,-16.274 10.36,-22.785 0.59,0 1.18,0 1.78,0.589 16.56,13.614 23.96,32.852 22.19,58.004 z M 908.066,988.555 c -33.441,17.455 -69.546,32.855 -108.902,46.755 -64.812,23.38 -135.242,41.43 -211.004,54.15 -34.91,6.22 -71.015,10.95 -108.308,14.8 -63.625,6.51 -112.153,7.4 -145.297,2.37 -33.442,-5.04 -50.309,-8 -50.895,-8.88 -0.597,-0.59 -0.597,-2.37 0.293,-5.03 -0.293,-0.59 0,-1.18 0.293,-2.07 7.106,-26.63 17.758,-49.72 31.965,-69.54 0.293,0 0.293,0 0.59,-0.3 0.297,0 18.051,3.55 53.558,10.95 35.516,7.39 76.946,9.17 124.293,5.33 47.352,-3.86 82.27,-8 104.758,-12.14 22.195,-4.44 54.156,-12.13 95.285,-23.38 41.137,-10.945 85.235,-26.039 132.578,-44.382 47.059,-18.645 90.262,-41.137 129.622,-66.883 0,-0.887 0,-1.481 0,-2.367 5.324,-63.032 18.046,-119.856 38.468,-170.75 21.897,-43.504 51.787,-75.168 89.957,-94.997 -42.91,42.028 -71.32,97.957 -84.34,168.387 -8.281,43.5 -10.058,87 -5.027,129.918 -23.676,27.805 -52.969,50.594 -87.887,68.059 z m 543.324,-29.586 c 0,-12.586 10.24,-22.821 22.82,-22.821 12.59,0 22.83,10.235 22.83,22.821 0,12.582 -10.24,22.82 -22.83,22.82 -12.58,0 -22.82,-10.238 -22.82,-22.82 z m 5.92,0 c 0,9.316 7.58,16.902 16.9,16.902 9.33,0 16.91,-7.586 16.91,-16.902 0,-9.317 -7.58,-16.903 -16.91,-16.903 -9.32,0 -16.9,7.586 -16.9,16.903"
         style="fill:#10234e;fill-opacity:1;fill-rule:evenodd;stroke:none"
         id="path16" />
      <path
         d="m 557.117,1848.19 h 53.692 v -199.15 h -53.692 v 199.15"
         style="fill:#10234e;fill-opacity:1;fill-rule:evenodd;stroke:none"
         id="path18" />
      <path
         d="m 648.406,1793.29 h 45.051 v -23.6 c 4.359,10.2 8.84,17.25 13.441,21.1 4.602,3.85 10.293,5.79 17.075,5.79 7.105,0 14.859,-2.55 23.293,-7.6 l -14.895,-39.42 c -5.652,2.74 -10.172,4.08 -13.484,4.08 -6.297,0 -11.18,-3.01 -14.653,-8.94 -4.964,-8.44 -7.468,-24.21 -7.468,-47.3 v -48.36 h -48.36 v 144.25"
         style="fill:#10234e;fill-opacity:1;fill-rule:evenodd;stroke:none"
         id="path20" />
      <path
         d="m 805.328,1746.6 -45.98,5.56 c 1.738,9.23 4.238,16.51 7.511,21.79 3.27,5.29 7.95,9.88 14.129,13.78 4.399,2.82 10.492,5 18.203,6.54 7.711,1.52 16.067,2.31 25.071,2.31 14.41,0 26.035,-0.93 34.754,-2.78 8.761,-1.85 16.07,-5.75 21.882,-11.64 4.118,-4.08 7.348,-9.83 9.727,-17.29 2.34,-7.51 3.512,-14.61 3.512,-21.42 v -63.72 c 0,-6.77 0.402,-12.1 1.133,-15.95 0.765,-3.85 2.378,-8.76 4.921,-14.74 H 855.02 c -1.817,3.71 -2.985,6.53 -3.551,8.48 -0.567,1.95 -1.09,5.01 -1.656,9.18 -6.297,-7 -12.594,-11.96 -18.809,-14.93 -8.52,-3.98 -18.41,-5.98 -29.672,-5.98 -14.977,0 -26.359,3.99 -34.152,11.96 -7.75,7.93 -11.625,17.77 -11.625,29.45 0,10.99 2.785,19.98 8.394,27.03 5.614,7.1 15.906,12.34 30.965,15.77 18.086,4.17 29.789,7.09 35.16,8.76 5.328,1.67 11.02,3.9 16.992,6.58 0,6.82 -1.211,11.55 -3.628,14.29 -2.465,2.69 -6.743,4.08 -12.922,4.08 -7.868,0 -13.766,-1.49 -17.719,-4.36 -3.07,-2.27 -5.57,-6.54 -7.469,-12.75 z m 41.738,-29.08 c -6.617,-2.73 -13.519,-5.14 -20.668,-7.23 -9.765,-2.97 -15.984,-5.93 -18.566,-8.81 -2.707,-3.01 -4.039,-6.4 -4.039,-10.2 0,-4.36 1.332,-7.89 3.957,-10.66 2.664,-2.74 6.539,-4.13 11.668,-4.13 5.367,0 10.332,1.48 14.977,4.45 4.601,3.01 7.871,6.68 9.808,10.94 1.938,4.32 2.863,9.92 2.863,16.79 v 8.85"
         style="fill:#10234e;fill-opacity:1;fill-rule:evenodd;stroke:none"
         id="path22" />
      <path
         d="m 924.871,1793.29 h 44.848 v -23.46 c 6.703,9.6 13.484,16.41 20.347,20.54 6.864,4.13 15.224,6.21 25.064,6.21 13.33,0 23.74,-4.59 31.29,-13.68 7.51,-9.08 11.26,-23.13 11.26,-42.15 v -91.71 h -48.36 v 79.34 c 0,9.04 -1.45,15.43 -4.36,19.19 -2.94,3.8 -7.022,5.66 -12.312,5.66 -5.812,0 -10.574,-2.55 -14.168,-7.6 -3.632,-5.06 -5.449,-14.2 -5.449,-27.32 v -69.27 h -48.16 v 144.25"
         style="fill:#10234e;fill-opacity:1;fill-rule:evenodd;stroke:none"
         id="path24" />
      <path
         d="m 1198.18,1681.91 h -61.04 l -8.39,-32.87 H 1074 l 65.16,199.15 h 58.41 l 65.2,-199.15 h -56.08 z m -11.23,43.08 -19.17,71.59 -19.05,-71.59 z"
         style="fill:#10234e;fill-opacity:1;fill-rule:evenodd;stroke:none"
         id="path26" />
      <path
         d="m 1280.34,1848.19 h 48.16 v -37.65 h -48.16 z m 0,-54.9 h 48.16 v -144.25 h -48.16 v 144.25"
         style="fill:#10234e;fill-opacity:1;fill-rule:evenodd;stroke:none"
         id="path28" />
      <path
         d="m 1361.57,1793.29 h 45.06 v -23.6 c 4.35,10.2 8.83,17.25 13.44,21.1 4.6,3.85 10.29,5.79 17.07,5.79 7.11,0 14.86,-2.55 23.29,-7.6 l -14.89,-39.42 c -5.65,2.74 -10.17,4.08 -13.48,4.08 -6.3,0 -11.18,-3.01 -14.66,-8.94 -4.96,-8.44 -7.47,-24.21 -7.47,-47.3 v -48.36 h -48.36 v 144.25"
         style="fill:#10234e;fill-opacity:1;fill-rule:evenodd;stroke:none"
         id="path30" />
      <path
         d="m 827.457,1537.34 v 55.16 h -20.605 v 7.39 h 49.57 v -7.39 H 835.73 v -55.16 h -8.273"
         style="fill:#10234e;fill-opacity:1;fill-rule:evenodd;stroke:none"
         id="path32" />
      <path
         d="m 863.938,1537.34 v 62.55 h 7.675 v -22.44 c 3.582,4.15 8.11,6.23 13.571,6.23 3.351,0 6.261,-0.67 8.742,-2 2.472,-1.3 4.25,-3.14 5.312,-5.47 1.063,-2.33 1.606,-5.73 1.606,-10.15 v -28.72 h -7.692 v 28.72 c 0,3.83 -0.828,6.62 -2.492,8.37 -1.66,1.75 -4.019,2.64 -7.062,2.64 -2.274,0 -4.41,-0.6 -6.422,-1.78 -2.008,-1.18 -3.438,-2.78 -4.281,-4.81 -0.86,-2 -1.282,-4.8 -1.282,-8.35 v -24.79 h -7.675"
         style="fill:#10234e;fill-opacity:1;fill-rule:evenodd;stroke:none"
         id="path34" />
      <path
         d="m 943.543,1551.93 7.934,-0.97 c -1.25,-4.65 -3.567,-8.25 -6.946,-10.81 -3.39,-2.55 -7.718,-3.83 -12.976,-3.83 -6.625,0 -11.883,2.04 -15.758,6.12 -3.887,4.07 -5.824,9.8 -5.824,17.17 0,7.63 1.965,13.54 5.886,17.75 3.93,4.21 9.012,6.32 15.278,6.32 6.054,0 11.008,-2.07 14.836,-6.19 3.847,-4.12 5.769,-9.93 5.769,-17.4 0,-0.47 -0.015,-1.16 -0.043,-2.05 H 917.91 c 0.278,-4.99 1.692,-8.8 4.223,-11.44 2.535,-2.65 5.68,-3.97 9.469,-3.97 2.808,0 5.211,0.74 7.207,2.23 1.996,1.46 3.57,3.82 4.734,7.07 z m -25.211,12.42 h 25.297 c -0.336,3.81 -1.313,6.67 -2.899,8.56 -2.445,2.97 -5.621,4.45 -9.511,4.45 -3.524,0 -6.492,-1.18 -8.895,-3.54 -2.402,-2.36 -3.726,-5.52 -3.992,-9.47"
         style="fill:#10234e;fill-opacity:1;fill-rule:evenodd;stroke:none"
         id="path36" />
      <path
         d="m 974.695,1537.34 24.028,62.55 h 8.917 l 25.6,-62.55 h -9.44 l -7.3,18.95 h -26.148 l -6.86,-18.95 z m 18.043,25.69 h 21.222 l -6.54,17.31 c -1.98,5.26 -3.47,9.59 -4.43,12.98 -0.8,-4.02 -1.92,-8 -3.381,-11.96 l -6.871,-18.33"
         style="fill:#10234e;fill-opacity:1;fill-rule:evenodd;stroke:none"
         id="path38" />
      <path
         d="m 1038.9,1591.05 v 8.84 h 7.69 v -8.84 z m 0,-53.71 v 45.3 h 7.69 v -45.3 h -7.69"
         style="fill:#10234e;fill-opacity:1;fill-rule:evenodd;stroke:none"
         id="path40" />
      <path
         d="m 1058.2,1537.34 v 45.3 h 6.9 v -6.85 c 1.77,3.2 3.4,5.33 4.9,6.35 1.48,1.02 3.13,1.54 4.92,1.54 2.59,0 5.21,-0.83 7.9,-2.48 l -2.66,-7.13 c -1.86,1.12 -3.74,1.67 -5.62,1.67 -1.69,0 -3.19,-0.51 -4.53,-1.51 -1.34,-1.02 -2.28,-2.42 -2.85,-4.21 -0.86,-2.72 -1.28,-5.71 -1.28,-8.96 v -23.72 h -7.68"
         style="fill:#10234e;fill-opacity:1;fill-rule:evenodd;stroke:none"
         id="path42" />
      <path
         d="m 1087.21,1537.34 v 62.55 h 7.68 v -62.55 h -7.68"
         style="fill:#10234e;fill-opacity:1;fill-rule:evenodd;stroke:none"
         id="path44" />
      <path
         d="m 1106.83,1591.05 v 8.84 h 7.69 v -8.84 z m 0,-53.71 v 45.3 h 7.69 v -45.3 h -7.69"
         style="fill:#10234e;fill-opacity:1;fill-rule:evenodd;stroke:none"
         id="path46" />
      <path
         d="m 1126.21,1537.34 v 45.3 h 6.91 v -6.43 c 3.33,4.98 8.14,7.47 14.42,7.47 2.73,0 5.23,-0.5 7.52,-1.47 2.3,-0.99 4.01,-2.27 5.14,-3.87 1.16,-1.59 1.94,-3.48 2.41,-5.67 0.27,-1.43 0.42,-3.92 0.42,-7.47 v -27.86 h -7.69 v 27.57 c 0,3.11 -0.29,5.46 -0.89,7.02 -0.59,1.54 -1.66,2.78 -3.17,3.7 -1.53,0.93 -3.31,1.39 -5.36,1.39 -3.28,0 -6.09,-1.04 -8.48,-3.11 -2.37,-2.09 -3.55,-6.02 -3.55,-11.83 v -24.74 h -7.68"
         style="fill:#10234e;fill-opacity:1;fill-rule:evenodd;stroke:none"
         id="path48" />
      <path
         d="m 1205.82,1551.93 7.93,-0.97 c -1.25,-4.65 -3.56,-8.25 -6.94,-10.81 -3.4,-2.55 -7.72,-3.83 -12.98,-3.83 -6.63,0 -11.88,2.04 -15.76,6.12 -3.88,4.07 -5.82,9.8 -5.82,17.17 0,7.63 1.96,13.54 5.88,17.75 3.93,4.21 9.02,6.32 15.28,6.32 6.05,0 11.01,-2.07 14.84,-6.19 3.84,-4.12 5.77,-9.93 5.77,-17.4 0,-0.47 -0.02,-1.16 -0.05,-2.05 h -33.79 c 0.28,-4.99 1.7,-8.8 4.23,-11.44 2.53,-2.65 5.68,-3.97 9.47,-3.97 2.81,0 5.21,0.74 7.2,2.23 2,1.46 3.57,3.82 4.74,7.07 z m -25.21,12.42 h 25.29 c -0.33,3.81 -1.31,6.67 -2.9,8.56 -2.44,2.97 -5.62,4.45 -9.5,4.45 -3.53,0 -6.5,-1.18 -8.9,-3.54 -2.4,-2.36 -3.73,-5.52 -3.99,-9.47"
         style="fill:#10234e;fill-opacity:1;fill-rule:evenodd;stroke:none"
         id="path50" />
      <path
         d="m 1244.82,1560 c 0,8.39 2.33,14.61 7,18.64 3.89,3.35 8.64,5.04 14.25,5.04 6.23,0 11.33,-2.04 15.27,-6.13 3.96,-4.08 5.93,-9.71 5.93,-16.91 0,-5.84 -0.87,-10.43 -2.62,-13.76 -1.75,-3.35 -4.3,-5.95 -7.63,-7.79 -3.35,-1.86 -6.99,-2.77 -10.95,-2.77 -6.34,0 -11.46,2.02 -15.38,6.1 -3.92,4.06 -5.87,9.92 -5.87,17.58 z m 7.89,0 c 0,-5.81 1.27,-10.15 3.8,-13.04 2.54,-2.89 5.72,-4.33 9.56,-4.33 3.81,0 6.99,1.45 9.52,4.35 2.52,2.9 3.79,7.32 3.79,13.27 0,5.61 -1.27,9.86 -3.82,12.74 -2.54,2.89 -5.7,4.33 -9.49,4.33 -3.84,0 -7.02,-1.44 -9.56,-4.32 -2.53,-2.86 -3.8,-7.2 -3.8,-13"
         style="fill:#10234e;fill-opacity:1;fill-rule:evenodd;stroke:none"
         id="path52" />
      <path
         d="m 1298.11,1537.34 v 39.34 h -6.77 v 5.96 h 6.77 v 4.82 c 0,3.05 0.27,5.32 0.81,6.79 0.74,2 2.04,3.61 3.91,4.86 1.86,1.23 4.47,1.84 7.83,1.84 2.16,0 4.55,-0.25 7.17,-0.77 l -1.15,-6.7 c -1.59,0.29 -3.11,0.44 -4.53,0.44 -2.33,0 -3.98,-0.5 -4.94,-1.5 -0.98,-0.99 -1.46,-2.86 -1.46,-5.6 v -4.18 h 8.83 v -5.96 h -8.83 v -39.34 h -7.64"
         style="fill:#10234e;fill-opacity:1;fill-rule:evenodd;stroke:none"
         id="path54" />
      <path
         d="m 1361.6,1544.21 1.11,-6.78 c -2.16,-0.45 -4.09,-0.69 -5.8,-0.69 -2.79,0 -4.95,0.44 -6.49,1.33 -1.53,0.87 -2.61,2.04 -3.23,3.48 -0.63,1.43 -0.95,4.45 -0.95,9.06 v 26.07 h -5.63 v 5.96 h 5.63 v 11.24 l 7.64,4.6 v -15.84 h 7.72 v -5.96 h -7.72 v -26.5 c 0,-2.2 0.14,-3.59 0.4,-4.22 0.27,-0.62 0.71,-1.12 1.32,-1.5 0.61,-0.36 1.49,-0.55 2.62,-0.55 0.87,0 1.99,0.1 3.38,0.3"
         style="fill:#10234e;fill-opacity:1;fill-rule:evenodd;stroke:none"
         id="path56" />
      <path
         d="m 1369.12,1537.34 v 62.55 h 7.67 v -22.44 c 3.59,4.15 8.11,6.23 13.57,6.23 3.35,0 6.27,-0.67 8.75,-2 2.47,-1.3 4.25,-3.14 5.31,-5.47 1.06,-2.33 1.6,-5.73 1.6,-10.15 v -28.72 h -7.69 v 28.72 c 0,3.83 -0.83,6.62 -2.49,8.37 -1.66,1.75 -4.02,2.64 -7.06,2.64 -2.28,0 -4.41,-0.6 -6.42,-1.78 -2.01,-1.18 -3.44,-2.78 -4.29,-4.81 -0.86,-2 -1.28,-4.8 -1.28,-8.35 v -24.79 h -7.67"
         style="fill:#10234e;fill-opacity:1;fill-rule:evenodd;stroke:none"
         id="path58" />
      <path
         d="m 1448.72,1551.93 7.94,-0.97 c -1.25,-4.65 -3.57,-8.25 -6.95,-10.81 -3.39,-2.55 -7.72,-3.83 -12.98,-3.83 -6.62,0 -11.88,2.04 -15.75,6.12 -3.89,4.07 -5.83,9.8 -5.83,17.17 0,7.63 1.97,13.54 5.89,17.75 3.93,4.21 9.01,6.32 15.28,6.32 6.05,0 11,-2.07 14.83,-6.19 3.85,-4.12 5.77,-9.93 5.77,-17.4 0,-0.47 -0.01,-1.16 -0.04,-2.05 h -33.79 c 0.28,-4.99 1.69,-8.8 4.23,-11.44 2.53,-2.65 5.67,-3.97 9.46,-3.97 2.81,0 5.21,0.74 7.21,2.23 1.99,1.46 3.57,3.82 4.73,7.07 z m -25.21,12.42 h 25.3 c -0.34,3.81 -1.31,6.67 -2.9,8.56 -2.45,2.97 -5.62,4.45 -9.51,4.45 -3.52,0 -6.49,-1.18 -8.9,-3.54 -2.4,-2.36 -3.72,-5.52 -3.99,-9.47"
         style="fill:#10234e;fill-opacity:1;fill-rule:evenodd;stroke:none"
         id="path60" />
      <path
         d="m 560.539,1449.39 v 62.56 h 8.27 v -62.56 h -8.27"
         style="fill:#10234e;fill-opacity:1;fill-rule:evenodd;stroke:none"
         id="path62" />
      <path
         d="m 579.355,1462.93 7.586,1.19 c 0.422,-3.04 1.618,-5.37 3.567,-7.01 1.937,-1.61 4.66,-2.43 8.172,-2.43 3.523,0 6.144,0.73 7.847,2.16 1.707,1.44 2.563,3.13 2.563,5.05 0,1.75 -0.758,3.1 -2.27,4.11 -1.05,0.68 -3.672,1.54 -7.851,2.59 -5.621,1.43 -9.535,2.65 -11.707,3.7 -2.172,1.03 -3.832,2.48 -4.953,4.31 -1.121,1.84 -1.688,3.86 -1.688,6.07 0,2.03 0.465,3.89 1.395,5.61 0.918,1.73 2.187,3.16 3.773,4.3 1.195,0.87 2.824,1.63 4.879,2.24 2.07,0.61 4.281,0.92 6.645,0.92 3.55,0 6.667,-0.53 9.363,-1.55 2.695,-1.01 4.672,-2.4 5.953,-4.15 1.285,-1.76 2.156,-4.09 2.637,-7.02 l -7.5,-1.03 c -0.352,2.33 -1.34,4.15 -2.973,5.46 -1.629,1.31 -3.941,1.96 -6.93,1.96 -3.523,0 -6.047,-0.57 -7.543,-1.74 -1.515,-1.17 -2.273,-2.54 -2.273,-4.09 0,-1.01 0.32,-1.9 0.949,-2.7 0.625,-0.83 1.602,-1.5 2.938,-2.05 0.773,-0.28 3.031,-0.94 6.789,-1.95 5.429,-1.46 9.218,-2.64 11.359,-3.57 2.152,-0.92 3.844,-2.27 5.07,-4.04 1.219,-1.76 1.832,-3.94 1.832,-6.56 0,-2.57 -0.757,-4.97 -2.242,-7.24 -1.5,-2.26 -3.656,-4.01 -6.465,-5.24 -2.812,-1.24 -6.004,-1.85 -9.554,-1.85 -5.899,0 -10.383,1.22 -13.473,3.67 -3.086,2.44 -5.051,6.07 -5.895,10.88"
         style="fill:#10234e;fill-opacity:1;fill-rule:evenodd;stroke:none"
         id="path64" />
      <path
         d="m 625.941,1449.39 v 62.56 h 7.676 v -62.56 h -7.676"
         style="fill:#10234e;fill-opacity:1;fill-rule:evenodd;stroke:none"
         id="path66" />
      <path
         d="m 675.094,1454.99 c -2.856,-2.42 -5.594,-4.12 -8.215,-5.13 -2.637,-0.99 -5.461,-1.48 -8.477,-1.48 -4.98,0 -8.797,1.21 -11.472,3.64 -2.668,2.43 -4.008,5.55 -4.008,9.32 0,2.23 0.496,4.25 1.516,6.09 1.003,1.83 2.332,3.3 3.96,4.41 1.645,1.11 3.481,1.95 5.536,2.52 1.5,0.39 3.773,0.78 6.816,1.15 6.203,0.74 10.777,1.62 13.703,2.65 0.027,1.05 0.043,1.72 0.043,1.99 0,3.14 -0.726,5.35 -2.183,6.62 -1.954,1.75 -4.879,2.6 -8.739,2.6 -3.613,0 -6.277,-0.62 -8.011,-1.89 -1.715,-1.27 -2.985,-3.51 -3.813,-6.73 l -7.5,1.04 c 0.684,3.2 1.805,5.81 3.363,7.77 1.559,1.98 3.828,3.51 6.785,4.58 2.957,1.06 6.379,1.6 10.282,1.6 3.875,0 7.008,-0.47 9.422,-1.37 2.418,-0.92 4.195,-2.06 5.347,-3.44 1.133,-1.38 1.922,-3.12 2.387,-5.23 0.246,-1.31 0.379,-3.67 0.379,-7.07 v -10.24 c 0,-7.15 0.16,-11.67 0.492,-13.55 0.32,-1.89 0.977,-3.71 1.938,-5.45 h -8.024 c -0.785,1.59 -1.308,3.45 -1.527,5.6 z m -0.641,17.15 c -2.797,-1.15 -6.976,-2.11 -12.539,-2.91 -3.16,-0.45 -5.406,-0.96 -6.699,-1.53 -1.313,-0.57 -2.328,-1.4 -3.031,-2.5 -0.711,-1.09 -1.075,-2.31 -1.075,-3.64 0,-2.06 0.786,-3.76 2.329,-5.13 1.542,-1.36 3.816,-2.04 6.8,-2.04 2.957,0 5.59,0.64 7.895,1.94 2.301,1.3 4.004,3.07 5.082,5.31 0.828,1.74 1.238,4.3 1.238,7.68 v 2.82"
         style="fill:#10234e;fill-opacity:1;fill-rule:evenodd;stroke:none"
         id="path68" />
      <path
         d="m 694.129,1449.39 v 45.31 h 6.859 v -6.34 c 1.426,2.21 3.321,4 5.68,5.34 2.359,1.35 5.051,2.04 8.066,2.04 3.352,0 6.102,-0.7 8.246,-2.1 2.153,-1.4 3.668,-3.34 4.543,-5.84 3.598,5.29 8.258,7.94 13.997,7.94 4.5,0 7.949,-1.26 10.367,-3.75 2.418,-2.49 3.625,-6.32 3.625,-11.49 v -31.11 h -7.629 v 28.55 c 0,3.07 -0.25,5.29 -0.742,6.64 -0.512,1.34 -1.414,2.43 -2.711,3.26 -1.309,0.82 -2.856,1.24 -4.617,1.24 -3.188,0 -5.825,-1.06 -7.934,-3.19 -2.098,-2.11 -3.164,-5.5 -3.164,-10.16 v -26.34 h -7.676 v 29.44 c 0,3.42 -0.621,5.99 -1.875,7.69 -1.254,1.7 -3.293,2.56 -6.148,2.56 -2.153,0 -4.149,-0.56 -5.985,-1.72 -1.832,-1.13 -3.176,-2.79 -3.992,-4.98 -0.828,-2.2 -1.234,-5.36 -1.234,-9.48 v -23.51 h -7.676"
         style="fill:#10234e;fill-opacity:1;fill-rule:evenodd;stroke:none"
         id="path70" />
      <path
         d="m 766.945,1503.11 v 8.84 h 7.692 v -8.84 z m 0,-53.72 v 45.31 h 7.692 v -45.31 h -7.692"
         style="fill:#10234e;fill-opacity:1;fill-rule:evenodd;stroke:none"
         id="path72" />
      <path
         d="m 815.895,1466 7.543,-0.99 c -0.817,-5.2 -2.926,-9.28 -6.336,-12.22 -3.395,-2.94 -7.575,-4.41 -12.524,-4.41 -6.191,0 -11.183,2.02 -14.945,6.07 -3.77,4.05 -5.664,9.86 -5.664,17.43 0,4.89 0.816,9.17 2.433,12.85 1.633,3.67 4.094,6.42 7.414,8.25 3.305,1.84 6.918,2.76 10.805,2.76 4.922,0 8.957,-1.26 12.074,-3.75 3.129,-2.49 5.141,-6.01 6.028,-10.6 l -7.469,-1.15 c -0.715,3.05 -1.969,5.33 -3.774,6.87 -1.804,1.53 -3.988,2.3 -6.55,2.3 -3.875,0 -7.024,-1.37 -9.442,-4.16 -2.414,-2.77 -3.625,-7.15 -3.625,-13.15 0,-6.09 1.168,-10.51 3.508,-13.28 2.332,-2.75 5.379,-4.14 9.133,-4.14 3.016,0 5.519,0.93 7.543,2.78 2.027,1.85 3.308,4.69 3.848,8.54"
         style="fill:#10234e;fill-opacity:1;fill-rule:evenodd;stroke:none"
         id="path74" />
      <path
         d="m 855.402,1449.39 v 62.56 h 27.727 c 5.582,0 9.82,-0.57 12.719,-1.69 2.898,-1.12 5.211,-3.1 6.961,-5.95 1.73,-2.85 2.589,-5.99 2.589,-9.43 0,-4.45 -1.425,-8.17 -4.312,-11.22 -2.867,-3.04 -7.309,-4.98 -13.309,-5.81 2.2,-1.05 3.86,-2.08 4.996,-3.11 2.415,-2.22 4.704,-5 6.872,-8.32 l 10.882,-17.03 h -10.414 l -8.273,13.02 c -2.414,3.75 -4.414,6.63 -5.985,8.61 -1.558,2 -2.957,3.4 -4.195,4.18 -1.234,0.8 -2.488,1.35 -3.769,1.68 -0.95,0.19 -2.477,0.29 -4.618,0.29 h -9.597 v -27.78 z m 8.274,34.95 h 17.797 c 3.773,0 6.742,0.39 8.867,1.17 2.144,0.79 3.758,2.04 4.867,3.76 1.102,1.72 1.66,3.59 1.66,5.61 0,2.96 -1.066,5.39 -3.219,7.3 -2.14,1.9 -5.539,2.85 -10.179,2.85 h -19.793 v -20.69"
         style="fill:#10234e;fill-opacity:1;fill-rule:evenodd;stroke:none"
         id="path76" />
      <path
         d="m 948.406,1463.99 7.934,-0.98 c -1.25,-4.64 -3.567,-8.24 -6.945,-10.81 -3.391,-2.54 -7.719,-3.82 -12.977,-3.82 -6.625,0 -11.883,2.03 -15.758,6.11 -3.887,4.08 -5.824,9.8 -5.824,17.17 0,7.63 1.965,13.55 5.887,17.75 3.929,4.22 9.011,6.33 15.277,6.33 6.055,0 11.008,-2.07 14.836,-6.19 3.848,-4.12 5.769,-9.94 5.769,-17.41 0,-0.46 -0.015,-1.15 -0.042,-2.05 h -33.79 c 0.278,-4.98 1.692,-8.8 4.227,-11.43 2.531,-2.65 5.676,-3.98 9.465,-3.98 2.808,0 5.211,0.75 7.207,2.23 1.996,1.47 3.57,3.83 4.734,7.08 z m -25.211,12.42 h 25.297 c -0.336,3.8 -1.312,6.67 -2.898,8.56 -2.446,2.96 -5.621,4.44 -9.508,4.44 -3.527,0 -6.496,-1.17 -8.898,-3.53 -2.403,-2.36 -3.727,-5.52 -3.993,-9.47"
         style="fill:#10234e;fill-opacity:1;fill-rule:evenodd;stroke:none"
         id="path78" />
      <path
         d="m 966,1432.04 v 62.66 h 6.988 v -5.88 c 1.649,2.3 3.512,4.04 5.594,5.18 2.066,1.15 4.59,1.74 7.543,1.74 3.875,0 7.285,-1.01 10.238,-2.99 2.969,-2 5.197,-4.8 6.697,-8.43 1.52,-3.63 2.28,-7.61 2.28,-11.93 0,-4.63 -0.84,-8.81 -2.51,-12.52 -1.66,-3.72 -4.076,-6.56 -7.252,-8.54 -3.176,-1.96 -6.508,-2.95 -10.004,-2.95 -2.566,0 -4.851,0.53 -6.89,1.61 -2.039,1.08 -3.7,2.45 -5.008,4.1 v -22.05 z m 6.945,39.75 c 0,-5.82 1.18,-10.13 3.539,-12.93 2.36,-2.78 5.231,-4.18 8.579,-4.18 3.41,0 6.335,1.45 8.765,4.34 2.434,2.89 3.656,7.36 3.656,13.41 0,5.78 -1.195,10.1 -3.566,12.98 -2.375,2.87 -5.215,4.31 -8.504,4.31 -3.281,0 -6.176,-1.52 -8.695,-4.59 -2.52,-3.06 -3.774,-7.51 -3.774,-13.34"
         style="fill:#10234e;fill-opacity:1;fill-rule:evenodd;stroke:none"
         id="path80" />
      <path
         d="m 1044.29,1449.39 v 6.66 c -3.54,-5.12 -8.33,-7.67 -14.39,-7.67 -2.66,0 -5.17,0.51 -7.48,1.53 -2.32,1.02 -4.04,2.31 -5.16,3.86 -1.13,1.55 -1.92,3.45 -2.37,5.69 -0.3,1.51 -0.46,3.9 -0.46,7.18 v 28.06 h 7.67 v -25.12 c 0,-4.02 0.16,-6.71 0.46,-8.11 0.5,-2.02 1.52,-3.6 3.08,-4.76 1.57,-1.16 3.5,-1.72 5.81,-1.72 2.3,0 4.46,0.58 6.48,1.76 2.02,1.18 3.45,2.8 4.28,4.82 0.84,2.04 1.27,5 1.27,8.86 v 24.27 h 7.67 v -45.31 h -6.86"
         style="fill:#10234e;fill-opacity:1;fill-rule:evenodd;stroke:none"
         id="path82" />
      <path
         d="m 1070.28,1449.39 h -7.12 v 62.56 h 7.67 v -22.31 c 3.25,4.06 7.38,6.1 12.41,6.1 2.79,0 5.43,-0.57 7.92,-1.69 2.49,-1.12 4.53,-2.71 6.14,-4.73 1.61,-2.04 2.87,-4.49 3.78,-7.37 0.91,-2.87 1.37,-5.95 1.37,-9.21 0,-7.78 -1.93,-13.78 -5.77,-18.01 -3.83,-4.24 -8.45,-6.35 -13.82,-6.35 -5.35,0 -9.54,2.23 -12.58,6.69 z m -0.09,23 c 0,-5.43 0.74,-9.35 2.21,-11.76 2.42,-3.97 5.7,-5.95 9.81,-5.95 3.37,0 6.27,1.46 8.72,4.39 2.45,2.91 3.66,7.25 3.66,13.03 0,5.91 -1.17,10.28 -3.52,13.09 -2.34,2.81 -5.18,4.22 -8.5,4.22 -3.37,0 -6.27,-1.45 -8.71,-4.36 -2.45,-2.92 -3.67,-7.14 -3.67,-12.66"
         style="fill:#10234e;fill-opacity:1;fill-rule:evenodd;stroke:none"
         id="path84" />
      <path
         d="m 1111.62,1449.39 v 62.56 h 7.68 v -62.56 h -7.68"
         style="fill:#10234e;fill-opacity:1;fill-rule:evenodd;stroke:none"
         id="path86" />
      <path
         d="m 1131.24,1503.11 v 8.84 h 7.69 v -8.84 z m 0,-53.72 v 45.31 h 7.69 v -45.31 h -7.69"
         style="fill:#10234e;fill-opacity:1;fill-rule:evenodd;stroke:none"
         id="path88" />
      <path
         d="m 1180.19,1466 7.54,-0.99 c -0.81,-5.2 -2.93,-9.28 -6.34,-12.22 -3.39,-2.94 -7.57,-4.41 -12.51,-4.41 -6.2,0 -11.19,2.02 -14.95,6.07 -3.77,4.05 -5.66,9.86 -5.66,17.43 0,4.89 0.81,9.17 2.43,12.85 1.63,3.67 4.09,6.42 7.41,8.25 3.3,1.84 6.92,2.76 10.8,2.76 4.93,0 8.97,-1.26 12.08,-3.75 3.13,-2.49 5.14,-6.01 6.03,-10.6 l -7.47,-1.15 c -0.71,3.05 -1.97,5.33 -3.78,6.87 -1.8,1.53 -3.98,2.3 -6.55,2.3 -3.87,0 -7.02,-1.37 -9.43,-4.16 -2.42,-2.77 -3.63,-7.15 -3.63,-13.15 0,-6.09 1.16,-10.51 3.51,-13.28 2.33,-2.75 5.37,-4.14 9.13,-4.14 3.01,0 5.52,0.93 7.54,2.78 2.03,1.85 3.31,4.69 3.85,8.54"
         style="fill:#10234e;fill-opacity:1;fill-rule:evenodd;stroke:none"
         id="path90" />
      <path
         d="m 1215.72,1472.05 c 0,8.4 2.33,14.61 7.01,18.65 3.89,3.35 8.63,5.04 14.24,5.04 6.23,0 11.33,-2.04 15.28,-6.13 3.96,-4.08 5.92,-9.72 5.92,-16.91 0,-5.84 -0.87,-10.43 -2.62,-13.77 -1.75,-3.34 -4.3,-5.94 -7.63,-7.79 -3.35,-1.85 -6.99,-2.76 -10.95,-2.76 -6.33,0 -11.46,2.02 -15.38,6.1 -3.92,4.06 -5.87,9.91 -5.87,17.57 z m 7.89,0 c 0,-5.8 1.27,-10.14 3.81,-13.03 2.53,-2.89 5.72,-4.34 9.55,-4.34 3.82,0 6.99,1.46 9.53,4.36 2.51,2.89 3.78,7.32 3.78,13.26 0,5.61 -1.27,9.86 -3.82,12.75 -2.54,2.88 -5.7,4.32 -9.49,4.32 -3.83,0 -7.02,-1.44 -9.55,-4.31 -2.54,-2.87 -3.81,-7.21 -3.81,-13.01"
         style="fill:#10234e;fill-opacity:1;fill-rule:evenodd;stroke:none"
         id="path92" />
      <path
         d="m 1269.01,1449.39 v 39.34 h -6.77 v 5.97 h 6.77 v 4.82 c 0,3.05 0.28,5.32 0.81,6.79 0.75,1.99 2.04,3.61 3.91,4.85 1.86,1.23 4.47,1.85 7.83,1.85 2.16,0 4.55,-0.25 7.17,-0.78 l -1.15,-6.69 c -1.59,0.29 -3.1,0.43 -4.53,0.43 -2.33,0 -3.98,-0.49 -4.94,-1.5 -0.97,-0.99 -1.45,-2.85 -1.45,-5.59 v -4.18 h 8.82 v -5.97 h -8.82 v -39.34 h -7.65"
         style="fill:#10234e;fill-opacity:1;fill-rule:evenodd;stroke:none"
         id="path94" />
      <path
         d="m 1318.13,1449.39 v 62.56 h 8.27 v -62.56 h -8.27"
         style="fill:#10234e;fill-opacity:1;fill-rule:evenodd;stroke:none"
         id="path96" />
      <path
         d="m 1339.93,1449.39 v 45.31 h 6.91 v -6.86 c 1.76,3.21 3.39,5.34 4.89,6.35 1.48,1.02 3.13,1.55 4.92,1.55 2.6,0 5.22,-0.83 7.9,-2.48 l -2.66,-7.13 c -1.86,1.12 -3.74,1.67 -5.62,1.67 -1.68,0 -3.19,-0.51 -4.53,-1.51 -1.33,-1.02 -2.28,-2.42 -2.85,-4.22 -0.86,-2.71 -1.28,-5.7 -1.28,-8.95 v -23.73 h -7.68"
         style="fill:#10234e;fill-opacity:1;fill-rule:evenodd;stroke:none"
         id="path98" />
      <path
         d="m 1398.68,1454.99 c -2.86,-2.42 -5.59,-4.12 -8.21,-5.13 -2.64,-0.99 -5.46,-1.48 -8.48,-1.48 -4.98,0 -8.79,1.21 -11.47,3.64 -2.67,2.43 -4.01,5.55 -4.01,9.32 0,2.23 0.5,4.25 1.51,6.09 1.01,1.83 2.34,3.3 3.97,4.41 1.64,1.11 3.47,1.95 5.53,2.52 1.5,0.39 3.77,0.78 6.82,1.15 6.2,0.74 10.77,1.62 13.7,2.65 0.03,1.05 0.04,1.72 0.04,1.99 0,3.14 -0.72,5.35 -2.18,6.62 -1.95,1.75 -4.88,2.6 -8.74,2.6 -3.61,0 -6.28,-0.62 -8.01,-1.89 -1.72,-1.27 -2.98,-3.51 -3.81,-6.73 l -7.5,1.04 c 0.68,3.2 1.8,5.81 3.36,7.77 1.56,1.98 3.83,3.51 6.78,4.58 2.97,1.06 6.39,1.6 10.29,1.6 3.87,0 7,-0.47 9.42,-1.37 2.42,-0.92 4.2,-2.06 5.35,-3.44 1.13,-1.38 1.92,-3.12 2.39,-5.23 0.24,-1.31 0.37,-3.67 0.37,-7.07 v -10.24 c 0,-7.15 0.16,-11.67 0.5,-13.55 0.32,-1.89 0.97,-3.71 1.93,-5.45 h -8.02 c -0.78,1.59 -1.31,3.45 -1.53,5.6 z m -0.64,17.15 c -2.79,-1.15 -6.97,-2.11 -12.54,-2.91 -3.16,-0.45 -5.4,-0.96 -6.7,-1.53 -1.31,-0.57 -2.33,-1.4 -3.03,-2.5 -0.71,-1.09 -1.07,-2.31 -1.07,-3.64 0,-2.06 0.78,-3.76 2.32,-5.13 1.55,-1.36 3.82,-2.04 6.8,-2.04 2.96,0 5.6,0.64 7.9,1.94 2.3,1.3 4.01,3.07 5.08,5.31 0.83,1.74 1.24,4.3 1.24,7.68 v 2.82"
         style="fill:#10234e;fill-opacity:1;fill-rule:evenodd;stroke:none"
         id="path100" />
      <path
         d="m 1417.72,1449.39 v 45.31 h 6.9 v -6.43 c 3.34,4.98 8.14,7.47 14.42,7.47 2.74,0 5.24,-0.5 7.53,-1.47 2.3,-1 4,-2.28 5.14,-3.88 1.15,-1.59 1.93,-3.48 2.4,-5.66 0.28,-1.43 0.42,-3.92 0.42,-7.48 v -27.86 h -7.69 v 27.57 c 0,3.12 -0.29,5.47 -0.88,7.02 -0.6,1.55 -1.67,2.79 -3.18,3.7 -1.53,0.93 -3.31,1.4 -5.36,1.4 -3.28,0 -6.08,-1.04 -8.47,-3.12 -2.38,-2.08 -3.56,-6.01 -3.56,-11.82 v -24.75 h -7.67"
         style="fill:#10234e;fill-opacity:1;fill-rule:evenodd;stroke:none"
         id="path102" />
    </g>
  </g>
</svg>
