<?xml version="1.0" encoding="UTF-8" standalone="no"?>
<!-- Created with Inkscape (http://www.inkscape.org/) -->

<svg
   version="1.1"
   id="svg2"
   width="758.66669"
   height="237.33333"
   viewBox="0 0 758.66669 237.33333"
   sodipodi:docname="Kaspian-Airline-logo.eps"
   xmlns:inkscape="http://www.inkscape.org/namespaces/inkscape"
   xmlns:sodipodi="http://sodipodi.sourceforge.net/DTD/sodipodi-0.dtd"
   xmlns="http://www.w3.org/2000/svg"
   xmlns:svg="http://www.w3.org/2000/svg">
  <defs
     id="defs6" />
  <sodipodi:namedview
     id="namedview4"
     pagecolor="#ffffff"
     bordercolor="#000000"
     borderopacity="0.25"
     inkscape:showpageshadow="2"
     inkscape:pageopacity="0.0"
     inkscape:pagecheckerboard="0"
     inkscape:deskcolor="#d1d1d1" />
  <g
     id="g8"
     inkscape:groupmode="layer"
     inkscape:label="ink_ext_XXXXXX"
     transform="matrix(1.3333333,0,0,-1.3333333,0,237.33333)">
    <g
       id="g10"
       transform="scale(0.1)">
      <path
         d="m 5681.02,914.75 c 0,-435.605 -353.13,-788.746 -788.75,-788.746 -435.62,0 -788.76,353.141 -788.76,788.746 0,435.63 353.14,788.77 788.76,788.77 435.62,0 788.75,-353.14 788.75,-788.77"
         style="fill:#f68712;fill-opacity:1;fill-rule:nonzero;stroke:none"
         id="path12" />
      <path
         d="m 3901.61,1772.97 c 80.63,4.33 102.33,-46.5 102.95,-105.42 1.05,-99.59 3.72,-150.06 63.25,-150.06 59.53,0 61.99,39.68 71.94,69.46 9.91,29.75 29.74,99.23 89.29,138.9 59.52,39.68 166.19,49.6 277.8,0 111.61,-49.62 307.57,-158.75 347.25,-181.08 39.69,-22.32 131.45,-64.48 210.82,-52.08 -32.23,-39.68 -109.12,-52.09 -153.78,-42.17 -44.64,9.92 -163.68,74.42 -203.37,101.69 -39.71,27.28 -62.04,37.22 -94.27,24.82 22.34,-27.29 116.59,-111.63 146.35,-126.51 29.76,-14.89 66.96,-39.68 96.73,-29.77 -34.72,-27.27 -59.53,-37.2 -124.02,-9.91 -64.5,27.29 -158.76,89.29 -186.02,106.65 -27.3,17.36 -104.18,48.37 -127.74,9.92 28.52,-1.25 43.4,-2.48 65.72,-14.89 22.33,-12.39 104.16,-81.84 128.98,-94.25 24.8,-12.39 64.49,-37.21 104.17,-37.21 -39.68,-22.32 -91.77,-24.79 -128.96,-9.92 -37.22,14.88 -106.66,62.02 -121.54,71.94 -14.88,9.93 -66.98,17.36 -96.75,-4.95 39.69,0 71.94,-27.29 86.81,-44.65 14.88,-17.37 39.69,-59.54 86.82,-57.06 -34.72,-22.31 -99.22,-14.88 -131.47,7.46 -32.23,22.31 -116.57,14.87 -156.26,-19.86 -39.69,-34.73 -59.52,-133.94 0,-190.99 59.54,-57.04 133.95,-57.04 178.59,-71.94 44.66,-14.87 128.98,-64.485 205.86,-128.977 76.9,-64.476 210.84,-190.972 240.62,-213.3 29.75,-22.329 84.33,-42.157 126.49,-7.434 42.17,34.723 39.7,62 14.9,138.891 -24.82,76.89 -9.93,116.578 12.4,195.95 12.4,-17.36 -9.93,-66.974 -2.49,-119.06 7.44,-52.078 43.04,-136.207 39.68,-168.652 -3.73,-35.985 -29.76,-96.742 -81.84,-106.653 -52.1,-9.921 -109.14,4.946 -191,84.313 -81.86,79.379 -188.53,176.102 -230.68,208.352 -42.15,32.242 -70.7,50.843 -100.45,48.371 19.84,-19.86 121.11,-80.282 162.45,-120.293 38.46,-37.207 166.21,-171.141 223.25,-210.832 57.04,-39.688 153.78,-86.817 342.3,-37.211 -54.59,-39.684 -148.82,-64.485 -250.53,-39.684 -101.7,24.797 -176.1,106.656 -245.56,173.637 -69.46,66.961 -198.42,181.055 -312.53,210.816 -42.16,8.684 133.94,-66.976 307.57,-243.078 97.36,-98.723 173.64,-205.859 223.24,-282.754 29.75,-47.129 141.39,-171.152 163.71,-200.914 -44.66,7.434 -91.76,69.457 -138.9,124.02 -47.14,54.566 -124.03,173.629 -186.04,235.64 -62.01,62.024 -193.47,195.942 -292.67,257.953 -99.23,62.012 -300.13,161.219 -399.35,230.669 -99.22,69.45 -176.11,148.84 -208.35,253.02 -32.25,104.16 11.4,212.77 24.81,252.98 17.35,52.08 62,101.71 19.82,176.11 z m 24.82,-816.04 v 0 c 52.09,-22.332 156.27,-59.535 205.86,-64.492 14.89,-66.969 99.22,-329.883 262.94,-503.524 163.7,-173.625 307.56,-270.344 568,-337.332 -158.75,-29.7578 -483.67,71.934 -704.43,280.297 -220.77,208.348 -307.57,496.074 -332.37,625.051 z m -52.11,27.277 v 0 c 47.15,-193.461 116.59,-443.98 349.74,-667.223 233.16,-223.2184 528.35,-302.5973 726.76,-302.5973 -138.89,-29.7617 -520.86,7.4375 -845.8,257.9533 -324.94,250.531 -456.4,625.055 -496.09,977.27 183.54,-74.41 146.36,-230.67 265.39,-265.403"
         style="fill:#2e3192;fill-opacity:1;fill-rule:nonzero;stroke:none"
         id="path14" />
      <path
         d="m 2976.55,895.039 c 0,8.945 5.68,16.461 14.85,16.461 9.56,0 11.81,-8.121 13.84,-15.656 4.3,-14.656 16.9,-20.145 31.76,-20.145 7.93,0 16.26,1.426 22.77,6.11 5.71,4.058 10.61,10.988 10.61,18.296 0,14.247 -16.09,18.321 -27.29,21.778 -22.8,6.93 -48.83,15.066 -48.83,43.137 0,15.468 8.33,28.3 20.76,37.04 12.61,8.55 27.87,12.63 43.33,12.63 13.64,0 28.1,-3.06 40.5,-8.56 2.66,-1.02 8.56,-3.45 10.58,-5.89 1.84,-2.041 1.84,-4.283 1.84,-6.92 0,-4.48 -0.83,-17.5 -2.64,-21.379 -1.42,-2.847 -4.29,-4.679 -7.34,-4.679 -16.29,0 1.42,33.378 -40.69,33.378 -6.71,0 -14.04,-1.624 -19.55,-5.91 -4.47,-3.445 -8.12,-9.562 -8.12,-15.253 0,-31.34 76.1,-20.348 76.1,-64.305 0,-36.215 -38.05,-55.547 -70.42,-55.547 -14.03,0 -27.05,2.445 -39.68,8.543 -10.98,4.887 -22.38,13.641 -22.38,26.871"
         style="fill:none;stroke:#ffffff;stroke-width:8.5039;stroke-linecap:butt;stroke-linejoin:miter;stroke-miterlimit:2.6131;stroke-dasharray:none;stroke-opacity:1"
         id="path16" />
      <path
         d="m 2946.24,955.875 c 2.22,1.414 3.03,2.43 5.69,2.43 3.86,0 5.49,-2.848 5.49,-6.289 0,-2.86 -2.44,-16.496 -3.66,-19.141 -1.22,-2.844 -3.86,-4.684 -7.12,-4.684 -2.84,0 -9.78,5.504 -13.25,7.536"
         style="fill:none;stroke:#ffffff;stroke-width:8.5039;stroke-linecap:butt;stroke-linejoin:miter;stroke-miterlimit:2.6131;stroke-dasharray:none;stroke-opacity:1"
         id="path18" />
      <path
         d="m 2933.39,935.727 h -38.04 l -7.12,-48.028"
         style="fill:none;stroke:#ffffff;stroke-width:8.5039;stroke-linecap:butt;stroke-linejoin:miter;stroke-miterlimit:2.6131;stroke-dasharray:none;stroke-opacity:1"
         id="path20" />
      <path
         d="m 2888.23,887.699 c 0,-9.965 7.54,-9.965 15.66,-9.965"
         style="fill:none;stroke:#ffffff;stroke-width:8.5039;stroke-linecap:butt;stroke-linejoin:miter;stroke-miterlimit:2.6131;stroke-dasharray:none;stroke-opacity:1"
         id="path22" />
      <path
         d="m 2903.89,877.734 24.03,0.821"
         style="fill:none;stroke:#ffffff;stroke-width:8.5039;stroke-linecap:butt;stroke-linejoin:miter;stroke-miterlimit:2.6131;stroke-dasharray:none;stroke-opacity:1"
         id="path24" />
      <path
         d="m 2927.92,878.555 c 10.17,1.019 16.29,3.656 23.4,10.972 3.25,3.063 6.1,6.118 10.79,6.118 3.24,0 6.3,-1.641 6.3,-5.102 0,-4.457 -5.09,-19.32 -7.13,-23.398 -2.03,-4.258 -5.49,-4.485 -9.96,-4.485"
         style="fill:none;stroke:#ffffff;stroke-width:8.5039;stroke-linecap:butt;stroke-linejoin:miter;stroke-miterlimit:2.6131;stroke-dasharray:none;stroke-opacity:1"
         id="path26" />
      <path
         d="M 2951.32,862.66 H 2849.78"
         style="fill:none;stroke:#ffffff;stroke-width:8.5039;stroke-linecap:butt;stroke-linejoin:miter;stroke-miterlimit:2.6131;stroke-dasharray:none;stroke-opacity:1"
         id="path28" />
      <path
         d="m 2849.78,862.66 c -4.27,0 -14.03,-1 -14.03,5.918 0,3.055 2.02,4.477 4.66,6.098 4.7,3.058 6.92,5.508 8.14,8.742"
         style="fill:none;stroke:#ffffff;stroke-width:8.5039;stroke-linecap:butt;stroke-linejoin:miter;stroke-miterlimit:2.6131;stroke-dasharray:none;stroke-opacity:1"
         id="path30" />
      <path
         d="m 2848.55,883.418 19.14,108.273"
         style="fill:none;stroke:#ffffff;stroke-width:8.5039;stroke-linecap:butt;stroke-linejoin:miter;stroke-miterlimit:2.6131;stroke-dasharray:none;stroke-opacity:1"
         id="path32" />
      <path
         d="m 2867.69,991.691 c 0,7.516 -9.17,6.911 -9.17,12.829 0,6.7 6.72,7.11 11.61,7.11"
         style="fill:none;stroke:#ffffff;stroke-width:8.5039;stroke-linecap:butt;stroke-linejoin:miter;stroke-miterlimit:2.6131;stroke-dasharray:none;stroke-opacity:1"
         id="path34" />
      <path
         d="m 2870.13,1011.63 h 99.5"
         style="fill:none;stroke:#ffffff;stroke-width:8.5039;stroke-linecap:butt;stroke-linejoin:miter;stroke-miterlimit:2.6131;stroke-dasharray:none;stroke-opacity:1"
         id="path36" />
      <path
         d="m 2969.63,1011.63 c 6.1,0 10.17,-0.81 10.17,-7.73 0,-4.486 -0.82,-15.263 -3.06,-19.119 -1.21,-2.051 -4.27,-3.676 -6.7,-3.676 -4.08,0 -5.48,2.235 -7.73,5.29 -3.06,4.476 -5.69,6.722 -10.79,8.335 -5.69,2.047 -15.45,2.45 -21.57,2.45 -5.29,0 -16.69,0 -20.96,-3.055 -2.24,-1.426 -3.66,-3.863 -4.69,-7.32"
         style="fill:none;stroke:#ffffff;stroke-width:8.5039;stroke-linecap:butt;stroke-linejoin:miter;stroke-miterlimit:2.6131;stroke-dasharray:none;stroke-opacity:1"
         id="path38" />
      <path
         d="m 2904.3,986.805 -6.7,-36.422 h 36.84"
         style="fill:none;stroke:#ffffff;stroke-width:8.5039;stroke-linecap:butt;stroke-linejoin:miter;stroke-miterlimit:2.6131;stroke-dasharray:none;stroke-opacity:1"
         id="path40" />
      <path
         d="m 2934.44,950.383 c 5.07,1.008 7.72,2.234 11.8,5.492"
         style="fill:none;stroke:#ffffff;stroke-width:8.5039;stroke-linecap:butt;stroke-linejoin:miter;stroke-miterlimit:2.6131;stroke-dasharray:none;stroke-opacity:1"
         id="path42" />
      <path
         d="m 2715.87,869.594 c 0,-5.281 -5.67,-6.934 -10.17,-6.934"
         style="fill:none;stroke:#ffffff;stroke-width:8.5039;stroke-linecap:butt;stroke-linejoin:miter;stroke-miterlimit:2.6131;stroke-dasharray:none;stroke-opacity:1"
         id="path44" />
      <path
         d="m 2705.7,862.66 h -24.43"
         style="fill:none;stroke:#ffffff;stroke-width:8.5039;stroke-linecap:butt;stroke-linejoin:miter;stroke-miterlimit:2.6131;stroke-dasharray:none;stroke-opacity:1"
         id="path46" />
      <path
         d="m 2681.27,862.66 c -3.64,0 -7.5,0.832 -7.5,5.301 0,3.461 2.44,5.094 5.3,6.715 3.45,2.047 5.88,3.465 7.54,6.926"
         style="fill:none;stroke:#ffffff;stroke-width:8.5039;stroke-linecap:butt;stroke-linejoin:miter;stroke-miterlimit:2.6131;stroke-dasharray:none;stroke-opacity:1"
         id="path48" />
      <path
         d="m 2686.61,881.602 18.9,109.468"
         style="fill:none;stroke:#ffffff;stroke-width:8.5039;stroke-linecap:butt;stroke-linejoin:miter;stroke-miterlimit:2.6131;stroke-dasharray:none;stroke-opacity:1"
         id="path50" />
      <path
         d="m 2705.51,991.07 c 0,7.336 -10.17,6.934 -10.17,13.02 0,4.08 3.45,5.9 7.32,7.54"
         style="fill:none;stroke:#ffffff;stroke-width:8.5039;stroke-linecap:butt;stroke-linejoin:miter;stroke-miterlimit:2.6131;stroke-dasharray:none;stroke-opacity:1"
         id="path52" />
      <path
         d="m 2702.66,1011.63 h 32.96"
         style="fill:none;stroke:#ffffff;stroke-width:8.5039;stroke-linecap:butt;stroke-linejoin:miter;stroke-miterlimit:2.6131;stroke-dasharray:none;stroke-opacity:1"
         id="path54" />
      <path
         d="m 2735.62,1011.63 c 3.06,-0.61 6.1,-1.02 7.34,-2.24"
         style="fill:none;stroke:#ffffff;stroke-width:8.5039;stroke-linecap:butt;stroke-linejoin:miter;stroke-miterlimit:2.6131;stroke-dasharray:none;stroke-opacity:1"
         id="path56" />
      <path
         d="m 2742.96,1009.39 55.14,-96.46 11.58,77.941"
         style="fill:none;stroke:#ffffff;stroke-width:8.5039;stroke-linecap:butt;stroke-linejoin:miter;stroke-miterlimit:2.6131;stroke-dasharray:none;stroke-opacity:1"
         id="path58" />
      <path
         d="m 2809.68,990.871 c 0,7.934 -8.93,7.934 -8.93,13.649 0,5.47 5.29,7.11 9.77,7.11"
         style="fill:none;stroke:#ffffff;stroke-width:8.5039;stroke-linecap:butt;stroke-linejoin:miter;stroke-miterlimit:2.6131;stroke-dasharray:none;stroke-opacity:1"
         id="path60" />
      <path
         d="m 2810.52,1011.63 h 22.77"
         style="fill:none;stroke:#ffffff;stroke-width:8.5039;stroke-linecap:butt;stroke-linejoin:miter;stroke-miterlimit:2.6131;stroke-dasharray:none;stroke-opacity:1"
         id="path62" />
      <path
         d="m 2833.29,1011.63 c 3.89,0 8.15,-0.81 8.15,-5.69 0,-3.06 -2.23,-4.71 -4.68,-6.311 -2.63,-1.836 -5.08,-3.457 -6.51,-6.512"
         style="fill:none;stroke:#ffffff;stroke-width:8.5039;stroke-linecap:butt;stroke-linejoin:miter;stroke-miterlimit:2.6131;stroke-dasharray:none;stroke-opacity:1"
         id="path64" />
      <path
         d="M 2830.25,993.117 2808.66,873.254"
         style="fill:none;stroke:#ffffff;stroke-width:8.5039;stroke-linecap:butt;stroke-linejoin:miter;stroke-miterlimit:2.6131;stroke-dasharray:none;stroke-opacity:1"
         id="path66" />
      <path
         d="m 2808.66,873.254 c -2.02,-9.762 -5.89,-10.594 -15.05,-10.594 -3.45,0 -8.34,-0.18 -11.17,2.047 -3.88,3.055 -9.38,15.262 -11.61,19.934"
         style="fill:none;stroke:#ffffff;stroke-width:8.5039;stroke-linecap:butt;stroke-linejoin:miter;stroke-miterlimit:2.6131;stroke-dasharray:none;stroke-opacity:1"
         id="path68" />
      <path
         d="m 2770.83,884.641 -50.26,94.015 -14.46,-94.422"
         style="fill:none;stroke:#ffffff;stroke-width:8.5039;stroke-linecap:butt;stroke-linejoin:miter;stroke-miterlimit:2.6131;stroke-dasharray:none;stroke-opacity:1"
         id="path70" />
      <path
         d="m 2706.11,884.234 c 0,-9.336 9.76,-7.925 9.76,-14.64"
         style="fill:none;stroke:#ffffff;stroke-width:8.5039;stroke-linecap:butt;stroke-linejoin:miter;stroke-miterlimit:2.6131;stroke-dasharray:none;stroke-opacity:1"
         id="path72" />
      <path
         d="m 2618.41,999.016 c -2.03,1.434 -4.06,2.844 -4.06,5.504 0,6.3 6.31,7.11 11.39,7.11"
         style="fill:none;stroke:#ffffff;stroke-width:8.5039;stroke-linecap:butt;stroke-linejoin:miter;stroke-miterlimit:2.6131;stroke-dasharray:none;stroke-opacity:1"
         id="path74" />
      <path
         d="m 2625.74,1011.63 h 39.9"
         style="fill:none;stroke:#ffffff;stroke-width:8.5039;stroke-linecap:butt;stroke-linejoin:miter;stroke-miterlimit:2.6131;stroke-dasharray:none;stroke-opacity:1"
         id="path76" />
      <path
         d="m 2665.64,1011.63 c 4.06,0 9.14,-0.2 9.14,-5.5 0,-3.25 -2.23,-4.68 -4.87,-6.302"
         style="fill:none;stroke:#ffffff;stroke-width:8.5039;stroke-linecap:butt;stroke-linejoin:miter;stroke-miterlimit:2.6131;stroke-dasharray:none;stroke-opacity:1"
         id="path78" />
      <path
         d="m 2669.91,999.828 -2.45,-1.824"
         style="fill:none;stroke:#ffffff;stroke-width:8.5039;stroke-linecap:butt;stroke-linejoin:miter;stroke-miterlimit:2.6131;stroke-dasharray:none;stroke-opacity:1"
         id="path80" />
      <path
         d="m 2667.46,998.004 c -1.64,-1.227 -3.26,-2.441 -4.49,-4.281 -1.02,-1.43 -1.81,-4.282 -2.62,-7.114"
         style="fill:none;stroke:#ffffff;stroke-width:8.5039;stroke-linecap:butt;stroke-linejoin:miter;stroke-miterlimit:2.6131;stroke-dasharray:none;stroke-opacity:1"
         id="path82" />
      <path
         d="M 2660.35,986.609 2642.43,883.016"
         style="fill:none;stroke:#ffffff;stroke-width:8.5039;stroke-linecap:butt;stroke-linejoin:miter;stroke-miterlimit:2.6131;stroke-dasharray:none;stroke-opacity:1"
         id="path84" />
      <path
         d="m 2642.43,883.016 c 0,-4.059 1.84,-5.684 5.29,-7.934 1.83,-1.406 3.89,-2.855 3.89,-5.488 0,-6.52 -6.96,-6.934 -11.82,-6.934"
         style="fill:none;stroke:#ffffff;stroke-width:8.5039;stroke-linecap:butt;stroke-linejoin:miter;stroke-miterlimit:2.6131;stroke-dasharray:none;stroke-opacity:1"
         id="path86" />
      <path
         d="m 2639.79,862.66 h -38.26"
         style="fill:none;stroke:#ffffff;stroke-width:8.5039;stroke-linecap:butt;stroke-linejoin:miter;stroke-miterlimit:2.6131;stroke-dasharray:none;stroke-opacity:1"
         id="path88" />
      <path
         d="m 2601.53,862.66 c -3.87,0 -8.96,0.414 -8.96,5.508 0,3.254 1.84,4.691 4.48,6.312 9.16,5.899 9.16,9.973 9.56,13.43"
         style="fill:none;stroke:#ffffff;stroke-width:8.5039;stroke-linecap:butt;stroke-linejoin:miter;stroke-miterlimit:2.6131;stroke-dasharray:none;stroke-opacity:1"
         id="path90" />
      <path
         d="m 2606.61,887.91 16.9,103.375"
         style="fill:none;stroke:#ffffff;stroke-width:8.5039;stroke-linecap:butt;stroke-linejoin:miter;stroke-miterlimit:2.6131;stroke-dasharray:none;stroke-opacity:1"
         id="path92" />
      <path
         d="m 2623.51,991.285 c 0,4.278 -1.83,5.281 -5.1,7.731"
         style="fill:none;stroke:#ffffff;stroke-width:8.5039;stroke-linecap:butt;stroke-linejoin:miter;stroke-miterlimit:2.6131;stroke-dasharray:none;stroke-opacity:1"
         id="path94" />
      <path
         d="m 2516.68,878.555 c 4.89,-0.821 11.8,-0.821 16.88,-0.821 6.92,0 14.05,0.407 20.75,2.047 7.54,2.028 11.82,6.086 17.53,11.375 2.82,2.657 7.11,6.922 11.37,6.922 3.26,0 6.92,-2.031 6.92,-5.488 0,-4.477 -7.12,-19.942 -9.77,-24.227 -4.27,-6.703 -8.95,-5.703 -16.48,-5.703"
         style="fill:none;stroke:#ffffff;stroke-width:8.5039;stroke-linecap:butt;stroke-linejoin:miter;stroke-miterlimit:2.6131;stroke-dasharray:none;stroke-opacity:1"
         id="path96" />
      <path
         d="m 2563.88,862.66 h -91.15"
         style="fill:none;stroke:#ffffff;stroke-width:8.5039;stroke-linecap:butt;stroke-linejoin:miter;stroke-miterlimit:2.6131;stroke-dasharray:none;stroke-opacity:1"
         id="path98" />
      <path
         d="m 2472.73,862.66 c -4.5,0 -14.67,-1.207 -14.67,5.703 0,3.664 1.85,5.09 4.5,6.719 8.74,5.902 8.74,10.582 10.58,20.965"
         style="fill:none;stroke:#ffffff;stroke-width:8.5039;stroke-linecap:butt;stroke-linejoin:miter;stroke-miterlimit:2.6131;stroke-dasharray:none;stroke-opacity:1"
         id="path100" />
      <path
         d="M 2473.14,896.047 2489,991.492"
         style="fill:none;stroke:#ffffff;stroke-width:8.5039;stroke-linecap:butt;stroke-linejoin:miter;stroke-miterlimit:2.6131;stroke-dasharray:none;stroke-opacity:1"
         id="path102" />
      <path
         d="m 2489,991.492 c 0,4.258 -1.84,5.285 -5.08,7.524 -1.83,1.434 -3.88,2.844 -3.88,5.504 0,2.43 1.64,4.66 3.88,5.89 1.62,0.81 3.46,1.22 5.3,1.22"
         style="fill:none;stroke:#ffffff;stroke-width:8.5039;stroke-linecap:butt;stroke-linejoin:miter;stroke-miterlimit:2.6131;stroke-dasharray:none;stroke-opacity:1"
         id="path104" />
      <path
         d="m 2489.22,1011.63 h 43.72"
         style="fill:none;stroke:#ffffff;stroke-width:8.5039;stroke-linecap:butt;stroke-linejoin:miter;stroke-miterlimit:2.6131;stroke-dasharray:none;stroke-opacity:1"
         id="path106" />
      <path
         d="m 2532.94,1011.63 c 4.08,0 8.77,-0.81 8.77,-5.9 0,-3.27 -2.25,-4.5 -4.69,-6.101 -1.63,-1.027 -5.08,-3.262 -6.51,-4.684 -3.46,-3.453 -4.47,-11.605 -5.29,-16.289"
         style="fill:none;stroke:#ffffff;stroke-width:8.5039;stroke-linecap:butt;stroke-linejoin:miter;stroke-miterlimit:2.6131;stroke-dasharray:none;stroke-opacity:1"
         id="path108" />
      <path
         d="M 2525.22,978.656 2510.57,886.27"
         style="fill:none;stroke:#ffffff;stroke-width:8.5039;stroke-linecap:butt;stroke-linejoin:miter;stroke-miterlimit:2.6131;stroke-dasharray:none;stroke-opacity:1"
         id="path110" />
      <path
         d="m 2510.57,886.27 c 0,-4.461 1.22,-6.696 6.11,-7.715"
         style="fill:none;stroke:#ffffff;stroke-width:8.5039;stroke-linecap:butt;stroke-linejoin:miter;stroke-miterlimit:2.6131;stroke-dasharray:none;stroke-opacity:1"
         id="path112" />
      <path
         d="m 2328.25,950.574 c 10.37,5.5 17.48,16.285 17.48,28.301 0,15.469 -13.81,19.727 -26.84,19.727 -21.98,0 -21.38,-10.985 -24.43,-28.282"
         style="fill:none;stroke:#ffffff;stroke-width:8.5039;stroke-linecap:butt;stroke-linejoin:miter;stroke-miterlimit:2.6131;stroke-dasharray:none;stroke-opacity:1"
         id="path114" />
      <path
         d="m 2294.46,970.32 -5.08,-30.117"
         style="fill:none;stroke:#ffffff;stroke-width:8.5039;stroke-linecap:butt;stroke-linejoin:miter;stroke-miterlimit:2.6131;stroke-dasharray:none;stroke-opacity:1"
         id="path116" />
      <path
         d="m 2289.38,940.203 c 12.82,1.43 27.47,4.074 38.87,10.371"
         style="fill:none;stroke:#ffffff;stroke-width:8.5039;stroke-linecap:butt;stroke-linejoin:miter;stroke-miterlimit:2.6131;stroke-dasharray:none;stroke-opacity:1"
         id="path118" />
      <path
         d="m 2284.89,874.898 c 1.84,-1.445 3.86,-2.671 3.86,-5.5 0,-6.511 -6.69,-6.738 -11.59,-6.738"
         style="fill:none;stroke:#ffffff;stroke-width:8.5039;stroke-linecap:butt;stroke-linejoin:miter;stroke-miterlimit:2.6131;stroke-dasharray:none;stroke-opacity:1"
         id="path120" />
      <path
         d="m 2277.16,862.66 h -37.64"
         style="fill:none;stroke:#ffffff;stroke-width:8.5039;stroke-linecap:butt;stroke-linejoin:miter;stroke-miterlimit:2.6131;stroke-dasharray:none;stroke-opacity:1"
         id="path122" />
      <path
         d="m 2239.52,862.66 c -4.06,0 -9.77,0 -9.77,5.703 0,2.86 1.84,4.496 4.28,6.117 9.55,6.915 8.76,8.536 11.19,20.95"
         style="fill:none;stroke:#ffffff;stroke-width:8.5039;stroke-linecap:butt;stroke-linejoin:miter;stroke-miterlimit:2.6131;stroke-dasharray:none;stroke-opacity:1"
         id="path124" />
      <path
         d="m 2245.22,895.43 15.87,95.855"
         style="fill:none;stroke:#ffffff;stroke-width:8.5039;stroke-linecap:butt;stroke-linejoin:miter;stroke-miterlimit:2.6131;stroke-dasharray:none;stroke-opacity:1"
         id="path126" />
      <path
         d="m 2261.09,991.285 c 0,4.278 -1.83,5.082 -5.09,7.52 -1.82,1.225 -4.07,2.845 -4.07,5.285 0,6.93 7.93,7.54 13.23,7.54"
         style="fill:none;stroke:#ffffff;stroke-width:8.5039;stroke-linecap:butt;stroke-linejoin:miter;stroke-miterlimit:2.6131;stroke-dasharray:none;stroke-opacity:1"
         id="path128" />
      <path
         d="m 2265.16,1011.63 h 63.89"
         style="fill:none;stroke:#ffffff;stroke-width:8.5039;stroke-linecap:butt;stroke-linejoin:miter;stroke-miterlimit:2.6131;stroke-dasharray:none;stroke-opacity:1"
         id="path130" />
      <path
         d="m 2329.05,1011.63 c 23,0 56.79,1.83 56.79,-29.704 0,-22.184 -20.55,-37.863 -40.3,-43.77"
         style="fill:none;stroke:#ffffff;stroke-width:8.5039;stroke-linecap:butt;stroke-linejoin:miter;stroke-miterlimit:2.6131;stroke-dasharray:none;stroke-opacity:1"
         id="path132" />
      <path
         d="m 2345.54,938.156 2.44,-4.261"
         style="fill:none;stroke:#ffffff;stroke-width:8.5039;stroke-linecap:butt;stroke-linejoin:miter;stroke-miterlimit:2.6131;stroke-dasharray:none;stroke-opacity:1"
         id="path134" />
      <path
         d="m 2347.98,933.895 c 9.77,-16.891 12.61,-26.657 16.89,-45.176 1.43,-6.309 2.04,-10.164 7.74,-13.637 2.23,-1.211 3.66,-2.633 3.66,-5.488 0,-6.52 -7.33,-6.934 -12.02,-6.934"
         style="fill:none;stroke:#ffffff;stroke-width:8.5039;stroke-linecap:butt;stroke-linejoin:miter;stroke-miterlimit:2.6131;stroke-dasharray:none;stroke-opacity:1"
         id="path136" />
      <path
         d="M 2364.25,862.66 H 2320.3"
         style="fill:none;stroke:#ffffff;stroke-width:8.5039;stroke-linecap:butt;stroke-linejoin:miter;stroke-miterlimit:2.6131;stroke-dasharray:none;stroke-opacity:1"
         id="path138" />
      <path
         d="m 2320.3,862.66 c -3.06,0.625 -5.49,2.047 -5.49,5.703 0,8.36 11.39,4.285 11.39,15.274 0,14.644 -11.39,34.379 -16.68,45.176"
         style="fill:none;stroke:#ffffff;stroke-width:8.5039;stroke-linecap:butt;stroke-linejoin:miter;stroke-miterlimit:2.6131;stroke-dasharray:none;stroke-opacity:1"
         id="path140" />
      <path
         d="m 2309.52,928.813 -22.79,-3.461 -6.92,-43.141"
         style="fill:none;stroke:#ffffff;stroke-width:8.5039;stroke-linecap:butt;stroke-linejoin:miter;stroke-miterlimit:2.6131;stroke-dasharray:none;stroke-opacity:1"
         id="path142" />
      <path
         d="m 2279.81,882.211 c 0,-3.859 2.05,-5.086 5.08,-7.313"
         style="fill:none;stroke:#ffffff;stroke-width:8.5039;stroke-linecap:butt;stroke-linejoin:miter;stroke-miterlimit:2.6131;stroke-dasharray:none;stroke-opacity:1"
         id="path144" />
      <path
         d="m 2174.82,999.016 c -2.04,1.434 -4.07,2.844 -4.07,5.504 0,6.3 6.29,7.11 11.39,7.11"
         style="fill:none;stroke:#ffffff;stroke-width:8.5039;stroke-linecap:butt;stroke-linejoin:miter;stroke-miterlimit:2.6131;stroke-dasharray:none;stroke-opacity:1"
         id="path146" />
      <path
         d="m 2182.14,1011.63 h 39.88"
         style="fill:none;stroke:#ffffff;stroke-width:8.5039;stroke-linecap:butt;stroke-linejoin:miter;stroke-miterlimit:2.6131;stroke-dasharray:none;stroke-opacity:1"
         id="path148" />
      <path
         d="m 2222.02,1011.63 c 4.07,0 9.16,-0.2 9.16,-5.5 0,-3.25 -2.23,-4.68 -4.88,-6.302"
         style="fill:none;stroke:#ffffff;stroke-width:8.5039;stroke-linecap:butt;stroke-linejoin:miter;stroke-miterlimit:2.6131;stroke-dasharray:none;stroke-opacity:1"
         id="path150" />
      <path
         d="m 2226.3,999.828 -2.45,-1.824"
         style="fill:none;stroke:#ffffff;stroke-width:8.5039;stroke-linecap:butt;stroke-linejoin:miter;stroke-miterlimit:2.6131;stroke-dasharray:none;stroke-opacity:1"
         id="path152" />
      <path
         d="m 2223.85,998.004 c -1.63,-1.227 -3.24,-2.441 -4.47,-4.281 -1.02,-1.43 -1.83,-4.282 -2.65,-7.114"
         style="fill:none;stroke:#ffffff;stroke-width:8.5039;stroke-linecap:butt;stroke-linejoin:miter;stroke-miterlimit:2.6131;stroke-dasharray:none;stroke-opacity:1"
         id="path154" />
      <path
         d="M 2216.73,986.609 2198.82,883.016"
         style="fill:none;stroke:#ffffff;stroke-width:8.5039;stroke-linecap:butt;stroke-linejoin:miter;stroke-miterlimit:2.6131;stroke-dasharray:none;stroke-opacity:1"
         id="path156" />
      <path
         d="m 2198.82,883.016 c 0,-4.059 1.84,-5.684 5.3,-7.934 1.82,-1.406 3.86,-2.855 3.86,-5.488 0,-6.52 -6.92,-6.934 -11.8,-6.934"
         style="fill:none;stroke:#ffffff;stroke-width:8.5039;stroke-linecap:butt;stroke-linejoin:miter;stroke-miterlimit:2.6131;stroke-dasharray:none;stroke-opacity:1"
         id="path158" />
      <path
         d="m 2196.18,862.66 h -38.26"
         style="fill:none;stroke:#ffffff;stroke-width:8.5039;stroke-linecap:butt;stroke-linejoin:miter;stroke-miterlimit:2.6131;stroke-dasharray:none;stroke-opacity:1"
         id="path160" />
      <path
         d="m 2157.92,862.66 c -3.86,0 -8.96,0.414 -8.96,5.508 0,3.254 1.84,4.691 4.49,6.312 9.16,5.899 9.16,9.973 9.57,13.43"
         style="fill:none;stroke:#ffffff;stroke-width:8.5039;stroke-linecap:butt;stroke-linejoin:miter;stroke-miterlimit:2.6131;stroke-dasharray:none;stroke-opacity:1"
         id="path162" />
      <path
         d="m 2163.02,887.91 16.88,103.375"
         style="fill:none;stroke:#ffffff;stroke-width:8.5039;stroke-linecap:butt;stroke-linejoin:miter;stroke-miterlimit:2.6131;stroke-dasharray:none;stroke-opacity:1"
         id="path164" />
      <path
         d="m 2179.9,991.285 c 0,4.278 -1.83,5.281 -5.08,7.731"
         style="fill:none;stroke:#ffffff;stroke-width:8.5039;stroke-linecap:butt;stroke-linejoin:miter;stroke-miterlimit:2.6131;stroke-dasharray:none;stroke-opacity:1"
         id="path166" />
      <path
         d="m 2086.29,927.586 c -2.65,18.719 -6.72,37.648 -14.04,55.352"
         style="fill:none;stroke:#ffffff;stroke-width:8.5039;stroke-linecap:butt;stroke-linejoin:miter;stroke-miterlimit:2.6131;stroke-dasharray:none;stroke-opacity:1"
         id="path168" />
      <path
         d="m 2072.25,982.938 -33.98,-55.352 h 48.02"
         style="fill:none;stroke:#ffffff;stroke-width:8.5039;stroke-linecap:butt;stroke-linejoin:miter;stroke-miterlimit:2.6131;stroke-dasharray:none;stroke-opacity:1"
         id="path170" />
      <path
         d="m 2017.1,881.809 c 0,-7.938 9.17,-6.528 9.17,-12.61 0,-8.156 -3.27,-6.539 -5.29,-6.539"
         style="fill:none;stroke:#ffffff;stroke-width:8.5039;stroke-linecap:butt;stroke-linejoin:miter;stroke-miterlimit:2.6131;stroke-dasharray:none;stroke-opacity:1"
         id="path172" />
      <path
         d="m 2020.98,862.66 h -34.6"
         style="fill:none;stroke:#ffffff;stroke-width:8.5039;stroke-linecap:butt;stroke-linejoin:miter;stroke-miterlimit:2.6131;stroke-dasharray:none;stroke-opacity:1"
         id="path174" />
      <path
         d="m 1986.38,862.66 c -2.04,0.414 -4.28,-1 -4.28,5.301 0,3.461 1.83,5.293 4.9,6.937 8.54,4.676 8.96,8.52 13.02,16.872"
         style="fill:none;stroke:#ffffff;stroke-width:8.5039;stroke-linecap:butt;stroke-linejoin:miter;stroke-miterlimit:2.6131;stroke-dasharray:none;stroke-opacity:1"
         id="path176" />
      <path
         d="m 2000.02,891.77 43.13,77.125 25.44,35.005"
         style="fill:none;stroke:#ffffff;stroke-width:8.5039;stroke-linecap:butt;stroke-linejoin:miter;stroke-miterlimit:2.6131;stroke-dasharray:none;stroke-opacity:1"
         id="path178" />
      <path
         d="m 2068.59,1003.9 c 5.69,6.92 7.32,10.79 16.89,10.79 12.01,0 13.23,-5.51 17.5,-15.674"
         style="fill:none;stroke:#ffffff;stroke-width:8.5039;stroke-linecap:butt;stroke-linejoin:miter;stroke-miterlimit:2.6131;stroke-dasharray:none;stroke-opacity:1"
         id="path180" />
      <path
         d="m 2102.98,999.016 16.68,-53.516 12.02,-57.801"
         style="fill:none;stroke:#ffffff;stroke-width:8.5039;stroke-linecap:butt;stroke-linejoin:miter;stroke-miterlimit:2.6131;stroke-dasharray:none;stroke-opacity:1"
         id="path182" />
      <path
         d="m 2131.68,887.699 c 0.8,-4.886 1,-9.144 5.9,-12.195 2.44,-1.828 4.27,-2.856 4.27,-5.91 0,-7.324 -7.73,-6.934 -12.83,-6.934"
         style="fill:none;stroke:#ffffff;stroke-width:8.5039;stroke-linecap:butt;stroke-linejoin:miter;stroke-miterlimit:2.6131;stroke-dasharray:none;stroke-opacity:1"
         id="path184" />
      <path
         d="m 2129.02,862.66 h -38.66"
         style="fill:none;stroke:#ffffff;stroke-width:8.5039;stroke-linecap:butt;stroke-linejoin:miter;stroke-miterlimit:2.6131;stroke-dasharray:none;stroke-opacity:1"
         id="path186" />
      <path
         d="m 2090.36,862.66 c -4.48,0 -8.74,0.625 -8.74,5.918 0,3.449 2.02,4.875 5.08,6.32 5.09,2.227 5.89,2.637 5.89,8.329 0,4.472 -1.21,12.203 -1.82,17.097"
         style="fill:none;stroke:#ffffff;stroke-width:8.5039;stroke-linecap:butt;stroke-linejoin:miter;stroke-miterlimit:2.6131;stroke-dasharray:none;stroke-opacity:1"
         id="path188" />
      <path
         d="m 2090.77,900.324 -1.84,11.176 h -58.8"
         style="fill:none;stroke:#ffffff;stroke-width:8.5039;stroke-linecap:butt;stroke-linejoin:miter;stroke-miterlimit:2.6131;stroke-dasharray:none;stroke-opacity:1"
         id="path190" />
      <path
         d="m 2030.13,911.5 c -3.47,-6.289 -13.03,-24.195 -13.03,-29.691"
         style="fill:none;stroke:#ffffff;stroke-width:8.5039;stroke-linecap:butt;stroke-linejoin:miter;stroke-miterlimit:2.6131;stroke-dasharray:none;stroke-opacity:1"
         id="path192" />
      <path
         d="m 1647.57,875.68 c 0,-9.95 -10.71,-13.02 -19.12,-13.02"
         style="fill:none;stroke:#ffffff;stroke-width:8.5039;stroke-linecap:butt;stroke-linejoin:miter;stroke-miterlimit:2.6131;stroke-dasharray:none;stroke-opacity:1"
         id="path194" />
      <path
         d="m 1628.45,862.66 h -45.91"
         style="fill:none;stroke:#ffffff;stroke-width:8.5039;stroke-linecap:butt;stroke-linejoin:miter;stroke-miterlimit:2.6131;stroke-dasharray:none;stroke-opacity:1"
         id="path196" />
      <path
         d="m 1582.54,862.66 c -6.88,0 -14.16,1.539 -14.16,9.961 0,6.5 4.6,9.563 9.96,12.617 6.49,3.825 11.09,6.504 14.15,13.02"
         style="fill:none;stroke:#ffffff;stroke-width:8.5039;stroke-linecap:butt;stroke-linejoin:miter;stroke-miterlimit:2.6131;stroke-dasharray:none;stroke-opacity:1"
         id="path198" />
      <path
         d="m 1592.49,898.258 35.56,205.812"
         style="fill:none;stroke:#ffffff;stroke-width:8.5039;stroke-linecap:butt;stroke-linejoin:miter;stroke-miterlimit:2.6131;stroke-dasharray:none;stroke-opacity:1"
         id="path200" />
      <path
         d="m 1628.05,1104.07 c 0,13.78 -19.12,13.01 -19.12,24.49 0,7.65 6.52,11.08 13.77,14.15"
         style="fill:none;stroke:#ffffff;stroke-width:8.5039;stroke-linecap:butt;stroke-linejoin:miter;stroke-miterlimit:2.6131;stroke-dasharray:none;stroke-opacity:1"
         id="path202" />
      <path
         d="m 1622.7,1142.71 h 61.98"
         style="fill:none;stroke:#ffffff;stroke-width:8.5039;stroke-linecap:butt;stroke-linejoin:miter;stroke-miterlimit:2.6131;stroke-dasharray:none;stroke-opacity:1"
         id="path204" />
      <path
         d="m 1684.68,1142.71 c 5.74,-1.16 11.48,-1.91 13.77,-4.21"
         style="fill:none;stroke:#ffffff;stroke-width:8.5039;stroke-linecap:butt;stroke-linejoin:miter;stroke-miterlimit:2.6131;stroke-dasharray:none;stroke-opacity:1"
         id="path206" />
      <path
         d="m 1698.45,1138.5 103.68,-181.34 21.8,146.52"
         style="fill:none;stroke:#ffffff;stroke-width:8.5039;stroke-linecap:butt;stroke-linejoin:miter;stroke-miterlimit:2.6131;stroke-dasharray:none;stroke-opacity:1"
         id="path208" />
      <path
         d="m 1823.93,1103.68 c 0,14.94 -16.82,14.94 -16.82,25.64 0,10.32 9.93,13.39 18.37,13.39"
         style="fill:none;stroke:#ffffff;stroke-width:8.5039;stroke-linecap:butt;stroke-linejoin:miter;stroke-miterlimit:2.6131;stroke-dasharray:none;stroke-opacity:1"
         id="path210" />
      <path
         d="m 1825.48,1142.71 h 42.84"
         style="fill:none;stroke:#ffffff;stroke-width:8.5039;stroke-linecap:butt;stroke-linejoin:miter;stroke-miterlimit:2.6131;stroke-dasharray:none;stroke-opacity:1"
         id="path212" />
      <path
         d="m 1868.32,1142.71 c 7.25,0 15.3,-1.53 15.3,-10.71 0,-5.75 -4.21,-8.8 -8.8,-11.87 -4.97,-3.43 -9.57,-6.49 -12.25,-12.24"
         style="fill:none;stroke:#ffffff;stroke-width:8.5039;stroke-linecap:butt;stroke-linejoin:miter;stroke-miterlimit:2.6131;stroke-dasharray:none;stroke-opacity:1"
         id="path214" />
      <path
         d="M 1862.57,1107.89 1822.02,882.559"
         style="fill:none;stroke:#ffffff;stroke-width:8.5039;stroke-linecap:butt;stroke-linejoin:miter;stroke-miterlimit:2.6131;stroke-dasharray:none;stroke-opacity:1"
         id="path216" />
      <path
         d="m 1822.02,882.559 c -3.82,-18.36 -11.1,-19.899 -28.31,-19.899 -6.5,0 -15.67,-0.367 -21.04,3.844 -7.26,5.723 -17.6,28.68 -21.8,37.488"
         style="fill:none;stroke:#ffffff;stroke-width:8.5039;stroke-linecap:butt;stroke-linejoin:miter;stroke-miterlimit:2.6131;stroke-dasharray:none;stroke-opacity:1"
         id="path218" />
      <path
         d="m 1750.87,903.992 -94.5,176.738 -27.17,-177.511"
         style="fill:none;stroke:#ffffff;stroke-width:8.5039;stroke-linecap:butt;stroke-linejoin:miter;stroke-miterlimit:2.6131;stroke-dasharray:none;stroke-opacity:1"
         id="path220" />
      <path
         d="m 1629.2,903.219 c 0,-17.594 18.37,-14.914 18.37,-27.539"
         style="fill:none;stroke:#ffffff;stroke-width:8.5039;stroke-linecap:butt;stroke-linejoin:miter;stroke-miterlimit:2.6131;stroke-dasharray:none;stroke-opacity:1"
         id="path222" />
      <path
         d="m 1450.94,984.707 c -4.98,35.203 -12.64,70.773 -26.4,104.063"
         style="fill:none;stroke:#ffffff;stroke-width:8.5039;stroke-linecap:butt;stroke-linejoin:miter;stroke-miterlimit:2.6131;stroke-dasharray:none;stroke-opacity:1"
         id="path224" />
      <path
         d="m 1424.54,1088.77 -63.88,-104.063 h 90.28"
         style="fill:none;stroke:#ffffff;stroke-width:8.5039;stroke-linecap:butt;stroke-linejoin:miter;stroke-miterlimit:2.6131;stroke-dasharray:none;stroke-opacity:1"
         id="path226" />
      <path
         d="m 1320.86,898.645 c 0,-14.93 17.21,-12.25 17.21,-23.735 0,-15.285 -6.11,-12.25 -9.94,-12.25"
         style="fill:none;stroke:#ffffff;stroke-width:8.5039;stroke-linecap:butt;stroke-linejoin:miter;stroke-miterlimit:2.6131;stroke-dasharray:none;stroke-opacity:1"
         id="path228" />
      <path
         d="m 1328.13,862.66 h -65.02"
         style="fill:none;stroke:#ffffff;stroke-width:8.5039;stroke-linecap:butt;stroke-linejoin:miter;stroke-miterlimit:2.6131;stroke-dasharray:none;stroke-opacity:1"
         id="path230" />
      <path
         d="m 1263.11,862.66 c -3.83,0.785 -8.04,-1.902 -8.04,9.961 0,6.5 3.45,9.938 9.19,13.004 16.06,8.797 16.82,16.066 24.47,31.766"
         style="fill:none;stroke:#ffffff;stroke-width:8.5039;stroke-linecap:butt;stroke-linejoin:miter;stroke-miterlimit:2.6131;stroke-dasharray:none;stroke-opacity:1"
         id="path232" />
      <path
         d="m 1288.73,917.391 81.1,144.979 47.82,65.81"
         style="fill:none;stroke:#ffffff;stroke-width:8.5039;stroke-linecap:butt;stroke-linejoin:miter;stroke-miterlimit:2.6131;stroke-dasharray:none;stroke-opacity:1"
         id="path234" />
      <path
         d="m 1417.65,1128.18 c 10.71,13 13.77,20.27 31.75,20.27 22.58,0 24.88,-10.33 32.92,-29.45"
         style="fill:none;stroke:#ffffff;stroke-width:8.5039;stroke-linecap:butt;stroke-linejoin:miter;stroke-miterlimit:2.6131;stroke-dasharray:none;stroke-opacity:1"
         id="path236" />
      <path
         d="m 1482.32,1119 31.36,-100.62 22.57,-108.653"
         style="fill:none;stroke:#ffffff;stroke-width:8.5039;stroke-linecap:butt;stroke-linejoin:miter;stroke-miterlimit:2.6131;stroke-dasharray:none;stroke-opacity:1"
         id="path238" />
      <path
         d="m 1536.25,909.727 c 1.54,-9.176 1.91,-17.215 11.1,-22.957 4.58,-3.442 8.03,-5.356 8.03,-11.09 0,-13.782 -14.54,-13.02 -24.11,-13.02"
         style="fill:none;stroke:#ffffff;stroke-width:8.5039;stroke-linecap:butt;stroke-linejoin:miter;stroke-miterlimit:2.6131;stroke-dasharray:none;stroke-opacity:1"
         id="path240" />
      <path
         d="m 1531.27,862.66 h -72.68"
         style="fill:none;stroke:#ffffff;stroke-width:8.5039;stroke-linecap:butt;stroke-linejoin:miter;stroke-miterlimit:2.6131;stroke-dasharray:none;stroke-opacity:1"
         id="path242" />
      <path
         d="m 1458.59,862.66 c -8.42,0 -16.46,1.168 -16.46,11.086 0,6.531 3.83,9.199 9.57,11.879 9.56,4.211 11.1,4.973 11.1,15.699 0,8.403 -2.3,22.942 -3.44,32.125"
         style="fill:none;stroke:#ffffff;stroke-width:8.5039;stroke-linecap:butt;stroke-linejoin:miter;stroke-miterlimit:2.6131;stroke-dasharray:none;stroke-opacity:1"
         id="path244" />
      <path
         d="m 1459.36,933.449 -3.45,21.039 h -110.57"
         style="fill:none;stroke:#ffffff;stroke-width:8.5039;stroke-linecap:butt;stroke-linejoin:miter;stroke-miterlimit:2.6131;stroke-dasharray:none;stroke-opacity:1"
         id="path246" />
      <path
         d="m 1345.34,954.488 c -6.49,-11.863 -24.48,-45.527 -24.48,-55.843"
         style="fill:none;stroke:#ffffff;stroke-width:8.5039;stroke-linecap:butt;stroke-linejoin:miter;stroke-miterlimit:2.6131;stroke-dasharray:none;stroke-opacity:1"
         id="path248" />
      <path
         d="m 1173.59,1119 c -3.84,2.66 -7.66,5.35 -7.66,10.32 0,11.86 11.86,13.39 21.43,13.39"
         style="fill:none;stroke:#ffffff;stroke-width:8.5039;stroke-linecap:butt;stroke-linejoin:miter;stroke-miterlimit:2.6131;stroke-dasharray:none;stroke-opacity:1"
         id="path250" />
      <path
         d="m 1187.36,1142.71 h 74.97"
         style="fill:none;stroke:#ffffff;stroke-width:8.5039;stroke-linecap:butt;stroke-linejoin:miter;stroke-miterlimit:2.6131;stroke-dasharray:none;stroke-opacity:1"
         id="path252" />
      <path
         d="m 1262.33,1142.71 c 7.67,0 17.23,-0.38 17.23,-10.33 0,-6.13 -4.21,-8.8 -9.18,-11.85"
         style="fill:none;stroke:#ffffff;stroke-width:8.5039;stroke-linecap:butt;stroke-linejoin:miter;stroke-miterlimit:2.6131;stroke-dasharray:none;stroke-opacity:1"
         id="path254" />
      <path
         d="m 1270.38,1120.53 -4.59,-3.45"
         style="fill:none;stroke:#ffffff;stroke-width:8.5039;stroke-linecap:butt;stroke-linejoin:miter;stroke-miterlimit:2.6131;stroke-dasharray:none;stroke-opacity:1"
         id="path256" />
      <path
         d="m 1265.79,1117.08 c -3.06,-2.29 -6.12,-4.58 -8.42,-8.03 -1.92,-2.69 -3.45,-8.04 -4.98,-13.39"
         style="fill:none;stroke:#ffffff;stroke-width:8.5039;stroke-linecap:butt;stroke-linejoin:miter;stroke-miterlimit:2.6131;stroke-dasharray:none;stroke-opacity:1"
         id="path258" />
      <path
         d="M 1252.39,1095.66 1218.72,900.93"
         style="fill:none;stroke:#ffffff;stroke-width:8.5039;stroke-linecap:butt;stroke-linejoin:miter;stroke-miterlimit:2.6131;stroke-dasharray:none;stroke-opacity:1"
         id="path260" />
      <path
         d="m 1218.72,900.93 c 0,-7.653 3.44,-10.719 9.94,-14.93 3.45,-2.672 7.27,-5.348 7.27,-10.32 0,-12.235 -13,-13.02 -22.18,-13.02"
         style="fill:none;stroke:#ffffff;stroke-width:8.5039;stroke-linecap:butt;stroke-linejoin:miter;stroke-miterlimit:2.6131;stroke-dasharray:none;stroke-opacity:1"
         id="path262" />
      <path
         d="m 1213.75,862.66 h -71.93"
         style="fill:none;stroke:#ffffff;stroke-width:8.5039;stroke-linecap:butt;stroke-linejoin:miter;stroke-miterlimit:2.6131;stroke-dasharray:none;stroke-opacity:1"
         id="path264" />
      <path
         d="m 1141.82,862.66 c -7.26,0 -16.82,0.785 -16.82,10.332 0,6.129 3.42,8.817 8.41,11.867 17.22,11.094 17.22,18.75 17.98,25.254"
         style="fill:none;stroke:#ffffff;stroke-width:8.5039;stroke-linecap:butt;stroke-linejoin:miter;stroke-miterlimit:2.6131;stroke-dasharray:none;stroke-opacity:1"
         id="path266" />
      <path
         d="m 1151.39,910.113 31.76,194.337"
         style="fill:none;stroke:#ffffff;stroke-width:8.5039;stroke-linecap:butt;stroke-linejoin:miter;stroke-miterlimit:2.6131;stroke-dasharray:none;stroke-opacity:1"
         id="path268" />
      <path
         d="m 1183.15,1104.45 c 0,8.05 -3.44,9.96 -9.56,14.55"
         style="fill:none;stroke:#ffffff;stroke-width:8.5039;stroke-linecap:butt;stroke-linejoin:miter;stroke-miterlimit:2.6131;stroke-dasharray:none;stroke-opacity:1"
         id="path270" />
      <path
         d="m 1019.79,1015.32 c 20.27,12.62 39.41,34.81 39.41,59.29 0,31.37 -23.34,43.24 -52.41,43.24 -9.95,0 -22.579,-1.92 -28.692,-11.1 -2.68,-3.83 -4.969,-12.63 -6.504,-21.81"
         style="fill:none;stroke:#ffffff;stroke-width:8.5039;stroke-linecap:butt;stroke-linejoin:miter;stroke-miterlimit:2.6131;stroke-dasharray:none;stroke-opacity:1"
         id="path272" />
      <path
         d="m 971.594,1084.94 -14.16,-86.835"
         style="fill:none;stroke:#ffffff;stroke-width:8.5039;stroke-linecap:butt;stroke-linejoin:miter;stroke-miterlimit:2.6131;stroke-dasharray:none;stroke-opacity:1"
         id="path274" />
      <path
         d="m 957.434,998.105 c 21.82,1.54 43.616,6.115 62.356,17.215"
         style="fill:none;stroke:#ffffff;stroke-width:8.5039;stroke-linecap:butt;stroke-linejoin:miter;stroke-miterlimit:2.6131;stroke-dasharray:none;stroke-opacity:1"
         id="path276" />
      <path
         d="m 953.227,886.395 c 4.207,-2.68 7.656,-5.356 7.656,-10.715 0,-9.563 -9.938,-13.02 -17.985,-13.02"
         style="fill:none;stroke:#ffffff;stroke-width:8.5039;stroke-linecap:butt;stroke-linejoin:miter;stroke-miterlimit:2.6131;stroke-dasharray:none;stroke-opacity:1"
         id="path278" />
      <path
         d="M 942.898,862.66 H 869.07"
         style="fill:none;stroke:#ffffff;stroke-width:8.5039;stroke-linecap:butt;stroke-linejoin:miter;stroke-miterlimit:2.6131;stroke-dasharray:none;stroke-opacity:1"
         id="path280" />
      <path
         d="m 869.07,862.66 c -7.656,0 -19.89,0.403 -19.89,10.727 0,5.734 3.437,8.422 7.652,11.472 3.07,2.297 8.418,5.739 11.082,8.418 6.883,6.512 8.809,22.571 10.34,31.364"
         style="fill:none;stroke:#ffffff;stroke-width:8.5039;stroke-linecap:butt;stroke-linejoin:miter;stroke-miterlimit:2.6131;stroke-dasharray:none;stroke-opacity:1"
         id="path282" />
      <path
         d="m 878.254,924.641 29.441,179.809"
         style="fill:none;stroke:#ffffff;stroke-width:8.5039;stroke-linecap:butt;stroke-linejoin:miter;stroke-miterlimit:2.6131;stroke-dasharray:none;stroke-opacity:1"
         id="path284" />
      <path
         d="m 907.695,1104.45 c 0,8.43 -3.445,9.96 -9.937,14.55 -3.438,2.66 -7.27,5.35 -7.27,10.32 0,11.48 11.864,13.39 21.047,13.39"
         style="fill:none;stroke:#ffffff;stroke-width:8.5039;stroke-linecap:butt;stroke-linejoin:miter;stroke-miterlimit:2.6131;stroke-dasharray:none;stroke-opacity:1"
         id="path286" />
      <path
         d="M 911.535,1142.71 H 1021.71"
         style="fill:none;stroke:#ffffff;stroke-width:8.5039;stroke-linecap:butt;stroke-linejoin:miter;stroke-miterlimit:2.6131;stroke-dasharray:none;stroke-opacity:1"
         id="path288" />
      <path
         d="m 1021.71,1142.71 c 21.42,0 48.97,0 69.24,-7.27 23.72,-8.42 42.84,-28.69 42.84,-55.09 0,-42.46 -33.65,-73.06 -70.76,-89.147 -34.06,-14.91 -71.928,-20.277 -109.413,-20.277"
         style="fill:none;stroke:#ffffff;stroke-width:8.5039;stroke-linecap:butt;stroke-linejoin:miter;stroke-miterlimit:2.6131;stroke-dasharray:none;stroke-opacity:1"
         id="path290" />
      <path
         d="M 953.617,970.926 943.66,900.93"
         style="fill:none;stroke:#ffffff;stroke-width:8.5039;stroke-linecap:butt;stroke-linejoin:miter;stroke-miterlimit:2.6131;stroke-dasharray:none;stroke-opacity:1"
         id="path292" />
      <path
         d="m 943.66,900.93 c 0,-7.262 3.449,-10.332 9.567,-14.535"
         style="fill:none;stroke:#ffffff;stroke-width:8.5039;stroke-linecap:butt;stroke-linejoin:miter;stroke-miterlimit:2.6131;stroke-dasharray:none;stroke-opacity:1"
         id="path294" />
      <path
         d="m 584.441,923.5 c 0,16.824 10.707,30.988 27.926,30.988 17.981,0 22.184,-15.304 26.008,-29.457 8.039,-27.543 31.773,-37.875 59.684,-37.875 14.918,0 30.605,2.68 42.847,11.489 10.719,7.64 19.891,20.648 19.891,34.421 0,26.774 -30.223,34.426 -51.254,40.922 -42.855,13.004 -91.824,28.322 -91.824,81.112 0,29.07 15.683,53.19 39.035,69.63 23.707,16.07 52.398,23.72 81.476,23.72 25.637,0 52.793,-5.74 76.141,-16.07 4.965,-1.91 16.059,-6.5 19.879,-11.09 3.438,-3.83 3.438,-8.04 3.438,-13 0,-8.43 -1.524,-32.91 -4.973,-40.19 -2.664,-5.35 -8.027,-8.8 -13.774,-8.8 -30.593,0 2.688,62.76 -76.5,62.76 -12.632,0 -26.406,-3.06 -36.734,-11.1 -8.418,-6.51 -15.309,-18 -15.309,-28.7 0,-58.91 143.086,-38.25 143.086,-120.889 0,-68.094 -71.531,-104.445 -132.359,-104.445 -26.395,0 -50.887,4.597 -74.613,16.066 -20.657,9.192 -42.071,25.653 -42.071,50.508"
         style="fill:none;stroke:#ffffff;stroke-width:8.5039;stroke-linecap:butt;stroke-linejoin:miter;stroke-miterlimit:2.6131;stroke-dasharray:none;stroke-opacity:1"
         id="path296" />
      <path
         d="m 471.586,984.707 c -4.977,35.203 -12.621,70.773 -26.387,104.063"
         style="fill:none;stroke:#ffffff;stroke-width:8.5039;stroke-linecap:butt;stroke-linejoin:miter;stroke-miterlimit:2.6131;stroke-dasharray:none;stroke-opacity:1"
         id="path298" />
      <path
         d="M 445.199,1088.77 381.313,984.707 h 90.273"
         style="fill:none;stroke:#ffffff;stroke-width:8.5039;stroke-linecap:butt;stroke-linejoin:miter;stroke-miterlimit:2.6131;stroke-dasharray:none;stroke-opacity:1"
         id="path300" />
      <path
         d="m 341.516,898.645 c 0,-14.93 17.222,-12.25 17.222,-23.735 0,-15.285 -6.117,-12.25 -9.953,-12.25"
         style="fill:none;stroke:#ffffff;stroke-width:8.5039;stroke-linecap:butt;stroke-linejoin:miter;stroke-miterlimit:2.6131;stroke-dasharray:none;stroke-opacity:1"
         id="path302" />
      <path
         d="M 348.785,862.66 H 283.746"
         style="fill:none;stroke:#ffffff;stroke-width:8.5039;stroke-linecap:butt;stroke-linejoin:miter;stroke-miterlimit:2.6131;stroke-dasharray:none;stroke-opacity:1"
         id="path304" />
      <path
         d="m 283.746,862.66 c -3.82,0.785 -8.031,-1.902 -8.031,9.961 0,6.5 3.441,9.938 9.176,13.004 16.074,8.797 16.839,16.066 24.492,31.766"
         style="fill:none;stroke:#ffffff;stroke-width:8.5039;stroke-linecap:butt;stroke-linejoin:miter;stroke-miterlimit:2.6131;stroke-dasharray:none;stroke-opacity:1"
         id="path306" />
      <path
         d="m 309.383,917.391 81.097,144.979 47.817,65.81"
         style="fill:none;stroke:#ffffff;stroke-width:8.5039;stroke-linecap:butt;stroke-linejoin:miter;stroke-miterlimit:2.6131;stroke-dasharray:none;stroke-opacity:1"
         id="path308" />
      <path
         d="m 438.297,1128.18 c 10.715,13 13.785,20.27 31.758,20.27 22.562,0 24.867,-10.33 32.902,-29.45"
         style="fill:none;stroke:#ffffff;stroke-width:8.5039;stroke-linecap:butt;stroke-linejoin:miter;stroke-miterlimit:2.6131;stroke-dasharray:none;stroke-opacity:1"
         id="path310" />
      <path
         d="m 502.957,1119 31.356,-100.62 22.582,-108.653"
         style="fill:none;stroke:#ffffff;stroke-width:8.5039;stroke-linecap:butt;stroke-linejoin:miter;stroke-miterlimit:2.6131;stroke-dasharray:none;stroke-opacity:1"
         id="path312" />
      <path
         d="m 556.895,909.727 c 1.535,-9.176 1.91,-17.215 11.101,-22.957 4.606,-3.442 8.027,-5.356 8.027,-11.09 0,-13.782 -14.539,-13.02 -24.085,-13.02"
         style="fill:none;stroke:#ffffff;stroke-width:8.5039;stroke-linecap:butt;stroke-linejoin:miter;stroke-miterlimit:2.6131;stroke-dasharray:none;stroke-opacity:1"
         id="path314" />
      <path
         d="m 551.938,862.66 h -72.7"
         style="fill:none;stroke:#ffffff;stroke-width:8.5039;stroke-linecap:butt;stroke-linejoin:miter;stroke-miterlimit:2.6131;stroke-dasharray:none;stroke-opacity:1"
         id="path316" />
      <path
         d="m 479.238,862.66 c -8.422,0 -16.453,1.168 -16.453,11.086 0,6.531 3.824,9.199 9.57,11.879 9.559,4.211 11.094,4.973 11.094,15.699 0,8.403 -2.301,22.942 -3.449,32.125"
         style="fill:none;stroke:#ffffff;stroke-width:8.5039;stroke-linecap:butt;stroke-linejoin:miter;stroke-miterlimit:2.6131;stroke-dasharray:none;stroke-opacity:1"
         id="path318" />
      <path
         d="m 480,933.449 -3.434,21.039 H 366.008"
         style="fill:none;stroke:#ffffff;stroke-width:8.5039;stroke-linecap:butt;stroke-linejoin:miter;stroke-miterlimit:2.6131;stroke-dasharray:none;stroke-opacity:1"
         id="path320" />
      <path
         d="m 366.008,954.488 c -6.516,-11.863 -24.492,-45.527 -24.492,-55.843"
         style="fill:none;stroke:#ffffff;stroke-width:8.5039;stroke-linecap:butt;stroke-linejoin:miter;stroke-miterlimit:2.6131;stroke-dasharray:none;stroke-opacity:1"
         id="path322" />
      <path
         d="m 274.574,1044.39 c -10.722,0 -13.386,10.33 -14.914,18.36 -2.691,14.93 -6.512,27.54 -17.984,39.02 -13.399,12.64 -31.008,17.99 -48.977,17.99 -70.777,0 -104.8201,-83.78 -104.8201,-143.092 0,-19.508 4.1914,-42.828 15.6761,-58.148 14.152,-19.497 37.504,-29.079 61.215,-29.079 34.039,0 60.828,17.61 84.929,39.805 3.449,2.668 7.27,6.488 12.242,6.488 7.653,0 14.543,-5.722 14.543,-13.379 0,-16.453 -26.785,-36.355 -39.41,-43.617 -25.246,-14.91 -55.48,-21.812 -84.922,-21.812 -74.9879,0 -140.4215,42.465 -140.4215,122.429 0,94.875 88.7655,169.095 180.9685,169.095 28.305,0 54.324,-6.12 79.196,-19.89 6.121,-3.06 17.199,-9.18 21.804,-14.54 2.676,-3.45 3.442,-6.5 3.442,-10.72"
         style="fill:none;stroke:#ffffff;stroke-width:8.5039;stroke-linecap:butt;stroke-linejoin:miter;stroke-miterlimit:2.6131;stroke-dasharray:none;stroke-opacity:1"
         id="path324" />
      <path
         d="m 297.141,1103.3 -1.926,-22.95"
         style="fill:none;stroke:#ffffff;stroke-width:8.5039;stroke-linecap:butt;stroke-linejoin:miter;stroke-miterlimit:2.6131;stroke-dasharray:none;stroke-opacity:1"
         id="path326" />
      <path
         d="m 295.215,1080.35 c -1.141,-12.25 -3.051,-35.96 -20.641,-35.96"
         style="fill:none;stroke:#ffffff;stroke-width:8.5039;stroke-linecap:butt;stroke-linejoin:miter;stroke-miterlimit:2.6131;stroke-dasharray:none;stroke-opacity:1"
         id="path328" />
      <path
         d="m 3134.52,1443.02 c -2.89,-14.91 5.42,-20.36 16.29,-21.72 10.84,-1.35 18.98,6.78 18.98,17.64 0,10.84 -7.93,18.42 -18.64,16.28 -6.79,-1.36 -14.77,-2.55 -16.63,-12.2"
         style="fill:none;stroke:#ffffff;stroke-width:8.5039;stroke-linecap:butt;stroke-linejoin:miter;stroke-miterlimit:2.6131;stroke-dasharray:none;stroke-opacity:1"
         id="path330" />
      <path
         d="m 3076.54,1472.52 c -2.88,-14.9 5.41,-20.36 16.26,-21.7 10.87,-1.36 19,6.77 19,17.63 0,10.85 -7.93,18.41 -18.67,16.27 -6.77,-1.36 -14.74,-2.54 -16.59,-12.2"
         style="fill:none;stroke:#ffffff;stroke-width:8.5039;stroke-linecap:butt;stroke-linejoin:miter;stroke-miterlimit:2.6131;stroke-dasharray:none;stroke-opacity:1"
         id="path332" />
      <path
         d="m 2939.16,1453.18 c -2.87,-14.88 5.43,-20.35 16.3,-21.71 10.84,-1.36 18.98,6.78 18.98,17.64 0,10.87 -7.92,18.42 -18.65,16.28 -6.78,-1.36 -14.76,-2.54 -16.63,-12.21"
         style="fill:none;stroke:#ffffff;stroke-width:8.5039;stroke-linecap:butt;stroke-linejoin:miter;stroke-miterlimit:2.6131;stroke-dasharray:none;stroke-opacity:1"
         id="path334" />
      <path
         d="m 2875.41,1314.81 c -10.68,3.33 51.56,8.14 73.25,27.13 21.7,18.99 23.07,24.42 23.07,40.7 -17.64,-4.07 -53.77,-0.16 -59.19,32.38 -5.43,32.57 3.74,89.2 45.78,86.5 42.06,-2.73 43.25,-37.49 48.66,-56.47 4.11,-13.58 39.34,-13.58 42.08,8.13 2.71,21.71 5.4,66.47 28.48,89.54 13.58,12.21 99.04,-37.98 112.6,-84.12 6.79,-24.41 1.36,-67.82 -25.77,-74.6 -27.14,-6.8 -46.14,13.57 -58.33,20.34 -43.93,-20.34 -92.77,-24.92 -103.11,-23.06 0,-24.42 -2.88,-63.93 -35.44,-71.56 -34.56,-8.11 -61.05,-4.58 -92.08,5.09"
         style="fill:none;stroke:#ffffff;stroke-width:8.5039;stroke-linecap:butt;stroke-linejoin:miter;stroke-miterlimit:2.6131;stroke-dasharray:none;stroke-opacity:1"
         id="path336" />
      <path
         d="m 2785.88,1565.78 c 17.64,14.93 50.19,44.77 50.19,44.77 12.21,-28.49 24.42,-130.24 -6.79,-221.14 -5.42,-13.55 -9.82,4.26 -12.2,36.64 -2.43,32.93 -20.36,108.53 -31.2,139.73"
         style="fill:none;stroke:#ffffff;stroke-width:8.5039;stroke-linecap:butt;stroke-linejoin:miter;stroke-miterlimit:2.6131;stroke-dasharray:none;stroke-opacity:1"
         id="path338" />
      <path
         d="m 2471.15,1454.54 c 5.4,-20.35 18.99,-24.43 32.55,-21.71 13.56,2.72 14.91,25.77 8.14,39.34 -6.79,13.57 -19.54,23.23 -32.56,17.65 -9.5,-4.08 -13.57,-14.93 -8.13,-35.28"
         style="fill:none;stroke:#ffffff;stroke-width:8.5039;stroke-linecap:butt;stroke-linejoin:miter;stroke-miterlimit:2.6131;stroke-dasharray:none;stroke-opacity:1"
         id="path340" />
      <path
         d="m 2317.85,1588.84 54.27,31.2"
         style="fill:none;stroke:#ffffff;stroke-width:8.5039;stroke-linecap:butt;stroke-linejoin:miter;stroke-miterlimit:2.6131;stroke-dasharray:none;stroke-opacity:1"
         id="path342" />
      <path
         d="m 2372.12,1620.04 c 0,0 -4.07,-119.38 -4.07,-137.03 0,-17.62 9.49,-32.54 28.48,-32.54 18.99,0 34.42,9.67 35.79,32.73 1.35,23.07 48.31,50.03 74.11,25.61 25.75,-24.41 32.55,-39.35 33.91,-54.27 8.14,-13.56 51.55,-23.07 62.39,24.41 1.36,13.57 19,13.57 23.06,-2.7 4.08,-16.27 16.27,-37.98 54.26,-32.56 37.99,5.42 48.86,20.34 17.66,52.9 8.12,8.15 28.48,33.91 28.48,33.91 20.33,-29.84 27.14,-66.47 20.33,-94.95 -6.77,-28.49 -33.89,-42.05 -61.03,-40.7 -27.13,1.35 -63.76,9.49 -70.54,25.77 -10.86,-18.99 -23.06,-23.05 -37.99,-21.69 -14.93,1.34 -39.36,4.05 -48.85,18.97 -6.78,-17.63 -24.4,-32.55 -46.11,-29.83 -21.71,2.71 -36.62,16.27 -40.7,33.91 -21.7,-18.98 -44.1,-30.86 -73.25,-27.13 -27.74,3.55 -47.15,16.63 -51.57,62.4 -5.6,58.22 1.37,131.59 1.37,131.59"
         style="fill:none;stroke:#ffffff;stroke-width:8.5039;stroke-linecap:butt;stroke-linejoin:miter;stroke-miterlimit:2.6131;stroke-dasharray:none;stroke-opacity:1"
         id="path344" />
      <path
         d="m 1959.7,1449.11 c 3.06,-3.56 -26.96,-32.55 0,-59.7 20.97,-21.1 37.98,-27.12 82.75,-29.83 44.78,-2.72 78.69,-5.43 78.69,12.2 0,17.63 -6.81,19 -28.48,19 -21.71,0 -61.07,-8.14 -58.35,24.42 2.72,32.56 43.42,35.27 61.05,35.27 17.64,0 96.33,-12.2 122.11,-2.71 25.76,9.49 4.22,43.75 -12.05,57.31 11.19,11.19 39.17,32.23 39.17,32.23 16.29,-29.86 32.06,-70.89 19.84,-99.38 -12.2,-28.49 -32.18,-34.71 -49.87,-34.09 -37.98,1.36 -79.86,23.58 -101.56,26.28 -21.72,2.72 -51.55,4.08 -50.21,-13.55 1.37,-17.63 68.89,-0.68 81.41,-27.15 12.21,-25.77 1.35,-50.19 -23.06,-62.39 -24.42,-12.21 -109.73,-19.19 -160.42,-1.52 -33.58,11.69 -36.54,56.45 -34.6,81.39 3.07,39.16 27.48,49.35 33.58,42.22"
         style="fill:none;stroke:#ffffff;stroke-width:8.5039;stroke-linecap:butt;stroke-linejoin:miter;stroke-miterlimit:2.6131;stroke-dasharray:none;stroke-opacity:1"
         id="path346" />
      <path
         d="m 1434.71,1764.52 c 0,0 -6.13,-154.65 -4.08,-183.13 2.03,-28.49 10.18,-67.16 63.08,-69.21 52.91,-2.02 142.44,-12.2 154.65,30.54 12.22,42.74 -17.11,55.92 -40.69,83.43 -24.43,28.48 -83.45,87.5 -83.45,87.5"
         style="fill:none;stroke:#ffffff;stroke-width:8.5039;stroke-linecap:butt;stroke-linejoin:miter;stroke-miterlimit:2.6131;stroke-dasharray:none;stroke-opacity:1"
         id="path348" />
      <path
         d="m 1524.22,1713.65 32.57,52.91 209.6,-4.08 -24.42,-44.77 -101.76,-4.06"
         style="fill:none;stroke:#ffffff;stroke-width:8.5039;stroke-linecap:butt;stroke-linejoin:miter;stroke-miterlimit:2.6131;stroke-dasharray:none;stroke-opacity:1"
         id="path350" />
      <path
         d="m 1640.21,1713.65 c 32.57,-38.67 86.8,-154.92 75.32,-205.52 -10.19,-44.78 -42.75,-89.54 -122.1,-91.57 -79.37,-2.05 -103.8,0 -134.31,2.03 -30.54,2.03 -107.86,26.46 -105.82,113.96 2.03,87.49 4.07,174.99 4.07,174.99"
         style="fill:none;stroke:#ffffff;stroke-width:8.5039;stroke-linecap:butt;stroke-linejoin:miter;stroke-miterlimit:2.6131;stroke-dasharray:none;stroke-opacity:1"
         id="path352" />
      <path
         d="m 1357.37,1707.54 77.34,56.98"
         style="fill:none;stroke:#ffffff;stroke-width:8.5039;stroke-linecap:butt;stroke-linejoin:miter;stroke-miterlimit:2.6131;stroke-dasharray:none;stroke-opacity:1"
         id="path354" />
      <path
         d="m 783.16,1275.93 32.047,30.45 25.629,-33.65 -30.438,-28.84 z"
         style="fill:none;stroke:#ffffff;stroke-width:8.5039;stroke-linecap:butt;stroke-linejoin:miter;stroke-miterlimit:2.6131;stroke-dasharray:none;stroke-opacity:1"
         id="path356" />
      <path
         d="m 2700.7,1301.45 21.52,20.44 17.2,-22.59 -20.43,-19.37 z"
         style="fill:none;stroke:#ffffff;stroke-width:8.5039;stroke-linecap:butt;stroke-linejoin:miter;stroke-miterlimit:2.6131;stroke-dasharray:none;stroke-opacity:1"
         id="path358" />
      <path
         d="m 2727.84,1342.16 21.51,20.44 17.21,-22.61 -20.44,-19.36 z"
         style="fill:none;stroke:#ffffff;stroke-width:8.5039;stroke-linecap:butt;stroke-linejoin:miter;stroke-miterlimit:2.6131;stroke-dasharray:none;stroke-opacity:1"
         id="path360" />
      <path
         d="m 2680.35,1342.16 21.5,20.44 17.22,-22.61 -20.44,-19.36 z"
         style="fill:none;stroke:#ffffff;stroke-width:8.5039;stroke-linecap:butt;stroke-linejoin:miter;stroke-miterlimit:2.6131;stroke-dasharray:none;stroke-opacity:1"
         id="path362" />
      <path
         d="m 2622.01,1332.64 21.53,20.47 17.21,-22.61 -20.45,-19.36 z"
         style="fill:none;stroke:#ffffff;stroke-width:8.5039;stroke-linecap:butt;stroke-linejoin:miter;stroke-miterlimit:2.6131;stroke-dasharray:none;stroke-opacity:1"
         id="path364" />
      <path
         d="m 2574.54,1332.64 21.51,20.47 17.21,-22.61 -20.43,-19.36 z"
         style="fill:none;stroke:#ffffff;stroke-width:8.5039;stroke-linecap:butt;stroke-linejoin:miter;stroke-miterlimit:2.6131;stroke-dasharray:none;stroke-opacity:1"
         id="path366" />
      <path
         d="m 2239.45,1338.08 21.52,20.44 17.21,-22.6 -20.44,-19.36 z"
         style="fill:none;stroke:#ffffff;stroke-width:8.5039;stroke-linecap:butt;stroke-linejoin:miter;stroke-miterlimit:2.6131;stroke-dasharray:none;stroke-opacity:1"
         id="path368" />
      <path
         d="m 2191.97,1338.08 21.52,20.44 17.22,-22.6 -20.43,-19.36 z"
         style="fill:none;stroke:#ffffff;stroke-width:8.5039;stroke-linecap:butt;stroke-linejoin:miter;stroke-miterlimit:2.6131;stroke-dasharray:none;stroke-opacity:1"
         id="path370" />
      <path
         d="m 817.762,1332.91 32.031,30.44 25.637,-33.64 -30.434,-28.85 z"
         style="fill:none;stroke:#ffffff;stroke-width:8.5039;stroke-linecap:butt;stroke-linejoin:miter;stroke-miterlimit:2.6131;stroke-dasharray:none;stroke-opacity:1"
         id="path372" />
      <path
         d="m 748.574,1332.91 32.043,30.44 25.637,-33.64 -30.434,-28.85 z"
         style="fill:none;stroke:#ffffff;stroke-width:8.5039;stroke-linecap:butt;stroke-linejoin:miter;stroke-miterlimit:2.6131;stroke-dasharray:none;stroke-opacity:1"
         id="path374" />
      <path
         d="m 610.207,1322.74 32.031,30.44 25.637,-33.65 -30.441,-28.85 z"
         style="fill:none;stroke:#ffffff;stroke-width:8.5039;stroke-linecap:butt;stroke-linejoin:miter;stroke-miterlimit:2.6131;stroke-dasharray:none;stroke-opacity:1"
         id="path376" />
      <path
         d="m 538.984,1322.74 32.036,30.44 25.636,-33.65 -30.441,-28.85 z"
         style="fill:none;stroke:#ffffff;stroke-width:8.5039;stroke-linecap:butt;stroke-linejoin:miter;stroke-miterlimit:2.6131;stroke-dasharray:none;stroke-opacity:1"
         id="path378" />
      <path
         d="m 238.16,1591.55 40.719,38.67 32.547,-42.73 -38.672,-36.63 z"
         style="fill:none;stroke:#ffffff;stroke-width:8.5039;stroke-linecap:butt;stroke-linejoin:miter;stroke-miterlimit:2.6131;stroke-dasharray:none;stroke-opacity:1"
         id="path380" />
      <path
         d="m 146.586,1522.37 c 12.332,1.13 18.312,-2.04 8.152,-52.9 -10.172,-50.88 -8.152,-93.61 122.078,-93.61 130.254,0 150.602,36.63 148.555,59 -2.031,22.39 -22.379,40.7 -56.969,63.08 14.243,32.56 46.801,85.47 46.801,85.47 18.32,-16.27 44.758,-50.86 97.676,-50.86 52.91,0 79.359,4.06 101.746,67.15 6.109,24.41 28.5,16.28 32.563,-6.12 4.058,-22.37 10.183,-59.01 42.714,-59.01 32.563,0 75.309,-6.09 93.61,14.25 18.32,20.35 24.429,40.7 30.519,50.88 6.125,10.17 26.473,10.17 30.547,-8.15 4.067,-18.3 10.18,-56.98 36.61,-61.05 26.472,-4.07 79.386,-12.2 95.652,20.36 10.176,22.39 18.308,32.55 20.34,42.72 2.043,10.19 20.36,6.12 24.43,-8.12 4.05,-14.25 10.18,-56.98 46.79,-52.91 36.65,4.06 40.71,22.38 48.85,44.76 8.15,22.39 28.48,14.24 32.56,-6.1 4.07,-20.35 4.07,-52.91 54.94,-44.78 32.55,6.12 40.7,10.18 30.52,38.66 -8.14,22.4 -22.38,32.57 -12.22,38.68 10.2,6.1 34.62,14.24 38.67,24.42 12.22,-10.18 20.35,-52.91 16.28,-97.69 -4.06,-44.76 -14.25,-107.84 -48.82,-115.99 -34.61,-8.13 -71.23,-10.17 -103.78,32.58 -14.26,-24.43 -46.82,-46.82 -65.13,-42.75 -18.3,4.07 -42.73,14.25 -56.97,40.71 -16.284,-28.49 -38.667,-36.64 -77.323,-32.56 -38.672,4.07 -73.278,12.2 -93.614,46.78 -16.285,-32.53 -40.695,-44.76 -67.152,-44.76 -26.457,0 -67.152,-4.07 -83.434,4.08 -16.285,8.15 -38.652,18.31 -52.91,44.76 -10.168,-32.55 -44.777,-46.79 -69.183,-46.79 -24.422,0 -63.079,0 -79.368,16.27 6.106,-44.76 -14.23,-105.81 -44.777,-124.13 -30.512,-18.31 -87.488,-59.02 -187.203,-50.88 -99.691,8.15 -162.793,63.1 -162.793,136.35 0,73.25 38.672,126.16 61.043,128.2"
         style="fill:none;stroke:#ffffff;stroke-width:8.5039;stroke-linecap:butt;stroke-linejoin:miter;stroke-miterlimit:2.6131;stroke-dasharray:none;stroke-opacity:1"
         id="path382" />
      <path
         d="m 2976.55,895.039 c 0,8.945 5.68,16.461 14.85,16.461 9.56,0 11.81,-8.121 13.84,-15.656 4.3,-14.656 16.9,-20.145 31.76,-20.145 7.93,0 16.26,1.426 22.77,6.11 5.71,4.058 10.61,10.988 10.61,18.296 0,14.247 -16.09,18.321 -27.29,21.778 -22.8,6.93 -48.83,15.066 -48.83,43.137 0,15.468 8.33,28.3 20.76,37.04 12.61,8.55 27.87,12.63 43.33,12.63 13.64,0 28.1,-3.06 40.5,-8.56 2.66,-1.02 8.56,-3.45 10.58,-5.89 1.84,-2.041 1.84,-4.283 1.84,-6.92 0,-4.48 -0.83,-17.5 -2.64,-21.379 -1.42,-2.847 -4.29,-4.679 -7.34,-4.679 -16.29,0 1.42,33.378 -40.69,33.378 -6.71,0 -14.04,-1.624 -19.55,-5.91 -4.47,-3.445 -8.12,-9.562 -8.12,-15.253 0,-31.34 76.1,-20.348 76.1,-64.305 0,-36.215 -38.05,-55.547 -70.42,-55.547 -14.03,0 -27.05,2.445 -39.68,8.543 -10.98,4.887 -22.38,13.641 -22.38,26.871 z m -30.31,60.836 v 0 c 2.22,1.414 3.03,2.43 5.69,2.43 3.86,0 5.49,-2.848 5.49,-6.289 0,-2.86 -2.44,-16.496 -3.66,-19.141 -1.22,-2.844 -3.86,-4.684 -7.12,-4.684 -2.84,0 -9.78,5.504 -13.25,7.536 h -38.04 l -7.12,-48.028 c 0,-9.965 7.54,-9.965 15.66,-9.965 l 24.03,0.821 c 10.17,1.019 16.29,3.656 23.4,10.972 3.25,3.063 6.1,6.118 10.79,6.118 3.24,0 6.3,-1.641 6.3,-5.102 0,-4.457 -5.09,-19.32 -7.13,-23.398 -2.03,-4.258 -5.49,-4.485 -9.96,-4.485 h -101.54 c -4.27,0 -14.03,-1 -14.03,5.918 0,3.055 2.02,4.477 4.66,6.098 4.7,3.058 6.92,5.508 8.14,8.742 l 19.14,108.273 c 0,7.516 -9.17,6.911 -9.17,12.829 0,6.7 6.72,7.11 11.61,7.11 h 99.5 c 6.1,0 10.17,-0.81 10.17,-7.73 0,-4.486 -0.82,-15.263 -3.06,-19.119 -1.21,-2.051 -4.27,-3.676 -6.7,-3.676 -4.08,0 -5.48,2.235 -7.73,5.29 -3.06,4.476 -5.69,6.722 -10.79,8.335 -5.69,2.047 -15.45,2.45 -21.57,2.45 -5.29,0 -16.69,0 -20.96,-3.055 -2.24,-1.426 -3.66,-3.863 -4.69,-7.32 l -6.7,-36.422 h 36.84 c 5.07,1.008 7.72,2.234 11.8,5.492 z m -230.37,-86.281 v 0 c 0,-5.281 -5.67,-6.934 -10.17,-6.934 h -24.43 c -3.64,0 -7.5,0.832 -7.5,5.301 0,3.461 2.44,5.094 5.3,6.715 3.45,2.047 5.88,3.465 7.54,6.926 l 18.9,109.468 c 0,7.336 -10.17,6.934 -10.17,13.02 0,4.08 3.45,5.9 7.32,7.54 h 32.96 c 3.06,-0.61 6.1,-1.02 7.34,-2.24 l 55.14,-96.46 11.58,77.941 c 0,7.934 -8.93,7.934 -8.93,13.649 0,5.47 5.29,7.11 9.77,7.11 h 22.77 c 3.89,0 8.15,-0.81 8.15,-5.69 0,-3.06 -2.23,-4.71 -4.68,-6.311 -2.63,-1.836 -5.08,-3.457 -6.51,-6.512 l -21.59,-119.863 c -2.02,-9.762 -5.89,-10.594 -15.05,-10.594 -3.45,0 -8.34,-0.18 -11.17,2.047 -3.88,3.055 -9.38,15.262 -11.61,19.934 l -50.26,94.015 -14.46,-94.422 c 0,-9.336 9.76,-7.925 9.76,-14.64 z m -97.46,129.422 v 0 c -2.03,1.434 -4.06,2.844 -4.06,5.504 0,6.3 6.31,7.11 11.39,7.11 h 39.9 c 4.06,0 9.14,-0.2 9.14,-5.5 0,-3.25 -2.23,-4.68 -4.87,-6.302 l -2.45,-1.824 c -1.64,-1.227 -3.26,-2.441 -4.49,-4.281 -1.02,-1.43 -1.81,-4.282 -2.62,-7.114 l -17.92,-103.593 c 0,-4.059 1.84,-5.684 5.29,-7.934 1.83,-1.406 3.89,-2.855 3.89,-5.488 0,-6.52 -6.96,-6.934 -11.82,-6.934 h -38.26 c -3.87,0 -8.96,0.414 -8.96,5.508 0,3.254 1.84,4.691 4.48,6.312 9.16,5.899 9.16,9.973 9.56,13.43 l 16.9,103.375 c 0,4.278 -1.83,5.281 -5.1,7.731 z M 2516.68,878.555 v 0 c 4.89,-0.821 11.8,-0.821 16.88,-0.821 6.92,0 14.05,0.407 20.75,2.047 7.54,2.028 11.82,6.086 17.53,11.375 2.82,2.657 7.11,6.922 11.37,6.922 3.26,0 6.92,-2.031 6.92,-5.488 0,-4.477 -7.12,-19.942 -9.77,-24.227 -4.27,-6.703 -8.95,-5.703 -16.48,-5.703 h -91.15 c -4.5,0 -14.67,-1.207 -14.67,5.703 0,3.664 1.85,5.09 4.5,6.719 8.74,5.902 8.74,10.582 10.58,20.965 l 15.86,95.445 c 0,4.258 -1.84,5.285 -5.08,7.524 -1.83,1.434 -3.88,2.844 -3.88,5.504 0,2.43 1.64,4.66 3.88,5.89 1.62,0.81 3.46,1.22 5.3,1.22 h 43.72 c 4.08,0 8.77,-0.81 8.77,-5.9 0,-3.27 -2.25,-4.5 -4.69,-6.101 -1.63,-1.027 -5.08,-3.262 -6.51,-4.684 -3.46,-3.453 -4.47,-11.605 -5.29,-16.289 l -14.65,-92.386 c 0,-4.461 1.22,-6.696 6.11,-7.715 z m -188.43,72.019 v 0 c 10.37,5.5 17.48,16.285 17.48,28.301 0,15.469 -13.81,19.727 -26.84,19.727 -21.98,0 -21.38,-10.985 -24.43,-28.282 l -5.08,-30.117 c 12.82,1.43 27.47,4.074 38.87,10.371 z m -43.36,-75.676 v 0 c 1.84,-1.445 3.86,-2.671 3.86,-5.5 0,-6.511 -6.69,-6.738 -11.59,-6.738 h -37.64 c -4.06,0 -9.77,0 -9.77,5.703 0,2.86 1.84,4.496 4.28,6.117 9.55,6.915 8.76,8.536 11.19,20.95 l 15.87,95.855 c 0,4.278 -1.83,5.082 -5.09,7.52 -1.82,1.225 -4.07,2.845 -4.07,5.285 0,6.93 7.93,7.54 13.23,7.54 h 63.89 c 23,0 56.79,1.83 56.79,-29.704 0,-22.184 -20.55,-37.863 -40.3,-43.77 l 2.44,-4.261 c 9.77,-16.891 12.61,-26.657 16.89,-45.176 1.43,-6.309 2.04,-10.164 7.74,-13.637 2.23,-1.211 3.66,-2.633 3.66,-5.488 0,-6.52 -7.33,-6.934 -12.02,-6.934 h -43.95 c -3.06,0.625 -5.49,2.047 -5.49,5.703 0,8.36 11.39,4.285 11.39,15.274 0,14.644 -11.39,34.379 -16.68,45.176 l -22.79,-3.461 -6.92,-43.141 c 0,-3.859 2.05,-5.086 5.08,-7.313 z m -110.07,124.118 v 0 c -2.04,1.434 -4.07,2.844 -4.07,5.504 0,6.3 6.29,7.11 11.39,7.11 h 39.88 c 4.07,0 9.16,-0.2 9.16,-5.5 0,-3.25 -2.23,-4.68 -4.88,-6.302 l -2.45,-1.824 c -1.63,-1.227 -3.24,-2.441 -4.47,-4.281 -1.02,-1.43 -1.83,-4.282 -2.65,-7.114 l -17.91,-103.593 c 0,-4.059 1.84,-5.684 5.3,-7.934 1.82,-1.406 3.86,-2.855 3.86,-5.488 0,-6.52 -6.92,-6.934 -11.8,-6.934 h -38.26 c -3.86,0 -8.96,0.414 -8.96,5.508 0,3.254 1.84,4.691 4.49,6.312 9.16,5.899 9.16,9.973 9.57,13.43 l 16.88,103.375 c 0,4.278 -1.83,5.281 -5.08,7.731 z m -88.53,-71.43 v 0 c -2.65,18.719 -6.72,37.648 -14.04,55.352 l -33.98,-55.352 z m -69.19,-45.777 v 0 c 0,-7.938 9.17,-6.528 9.17,-12.61 0,-8.156 -3.27,-6.539 -5.29,-6.539 h -34.6 c -2.04,0.414 -4.28,-1 -4.28,5.301 0,3.461 1.83,5.293 4.9,6.937 8.54,4.676 8.96,8.52 13.02,16.872 l 43.13,77.125 25.44,35.005 c 5.69,6.92 7.32,10.79 16.89,10.79 12.01,0 13.23,-5.51 17.5,-15.674 l 16.68,-53.516 12.02,-57.801 c 0.8,-4.886 1,-9.144 5.9,-12.195 2.44,-1.828 4.27,-2.856 4.27,-5.91 0,-7.324 -7.73,-6.934 -12.83,-6.934 h -38.66 c -4.48,0 -8.74,0.625 -8.74,5.918 0,3.449 2.02,4.875 5.08,6.32 5.09,2.227 5.89,2.637 5.89,8.329 0,4.472 -1.21,12.203 -1.82,17.097 l -1.84,11.176 h -58.8 c -3.47,-6.289 -13.03,-24.195 -13.03,-29.691 z m -369.53,-6.129 v 0 c 0,-9.95 -10.71,-13.02 -19.12,-13.02 h -45.91 c -6.88,0 -14.16,1.539 -14.16,9.961 0,6.5 4.6,9.563 9.96,12.617 6.49,3.825 11.09,6.504 14.15,13.02 l 35.56,205.812 c 0,13.78 -19.12,13.01 -19.12,24.49 0,7.65 6.52,11.08 13.77,14.15 h 61.98 c 5.74,-1.16 11.48,-1.91 13.77,-4.21 l 103.68,-181.34 21.8,146.52 c 0,14.94 -16.82,14.94 -16.82,25.64 0,10.32 9.93,13.39 18.37,13.39 h 42.84 c 7.25,0 15.3,-1.53 15.3,-10.71 0,-5.75 -4.21,-8.8 -8.8,-11.87 -4.97,-3.43 -9.57,-6.49 -12.25,-12.24 l -40.55,-225.331 c -3.82,-18.36 -11.1,-19.899 -28.31,-19.899 -6.5,0 -15.67,-0.367 -21.04,3.844 -7.26,5.723 -17.6,28.68 -21.8,37.488 l -94.5,176.738 -27.17,-177.511 c 0,-17.594 18.37,-14.914 18.37,-27.539 z m -196.63,109.027 v 0 c -4.98,35.203 -12.64,70.773 -26.4,104.063 l -63.88,-104.063 z m -130.08,-86.062 v 0 c 0,-14.93 17.21,-12.25 17.21,-23.735 0,-15.285 -6.11,-12.25 -9.94,-12.25 h -65.02 c -3.83,0.785 -8.04,-1.902 -8.04,9.961 0,6.5 3.45,9.938 9.19,13.004 16.06,8.797 16.82,16.066 24.47,31.766 l 81.1,144.979 47.82,65.81 c 10.71,13 13.77,20.27 31.75,20.27 22.58,0 24.88,-10.33 32.92,-29.45 l 31.36,-100.62 22.57,-108.653 c 1.54,-9.176 1.91,-17.215 11.1,-22.957 4.58,-3.442 8.03,-5.356 8.03,-11.09 0,-13.782 -14.54,-13.02 -24.11,-13.02 h -72.68 c -8.42,0 -16.46,1.168 -16.46,11.086 0,6.531 3.83,9.199 9.57,11.879 9.56,4.211 11.1,4.973 11.1,15.699 0,8.403 -2.3,22.942 -3.44,32.125 l -3.45,21.039 h -110.57 c -6.49,-11.863 -24.48,-45.527 -24.48,-55.843 z M 1173.59,1119 v 0 c -3.84,2.66 -7.66,5.35 -7.66,10.32 0,11.86 11.86,13.39 21.43,13.39 h 74.97 c 7.67,0 17.23,-0.38 17.23,-10.33 0,-6.13 -4.21,-8.8 -9.18,-11.85 l -4.59,-3.45 c -3.06,-2.29 -6.12,-4.58 -8.42,-8.03 -1.92,-2.69 -3.45,-8.04 -4.98,-13.39 l -33.67,-194.73 c 0,-7.653 3.44,-10.719 9.94,-14.93 3.45,-2.672 7.27,-5.348 7.27,-10.32 0,-12.235 -13,-13.02 -22.18,-13.02 h -71.93 c -7.26,0 -16.82,0.785 -16.82,10.332 0,6.129 3.42,8.817 8.41,11.867 17.22,11.094 17.22,18.75 17.98,25.254 l 31.76,194.337 c 0,8.05 -3.44,9.96 -9.56,14.55 z m -153.8,-103.68 v 0 c 20.27,12.62 39.41,34.81 39.41,59.29 0,31.37 -23.34,43.24 -52.41,43.24 -9.95,0 -22.579,-1.92 -28.692,-11.1 -2.68,-3.83 -4.969,-12.63 -6.504,-21.81 l -14.16,-86.835 c 21.82,1.54 43.616,6.115 62.356,17.215 z M 953.227,886.395 v 0 c 4.207,-2.68 7.656,-5.356 7.656,-10.715 0,-9.563 -9.938,-13.02 -17.985,-13.02 H 869.07 c -7.656,0 -19.89,0.403 -19.89,10.727 0,5.734 3.437,8.422 7.652,11.472 3.07,2.297 8.418,5.739 11.082,8.418 6.883,6.512 8.809,22.571 10.34,31.364 l 29.441,179.809 c 0,8.43 -3.445,9.96 -9.937,14.55 -3.438,2.66 -7.27,5.35 -7.27,10.32 0,11.48 11.864,13.39 21.047,13.39 h 110.175 c 21.42,0 48.97,0 69.24,-7.27 23.72,-8.42 42.84,-28.69 42.84,-55.09 0,-42.46 -33.65,-73.06 -70.76,-89.147 -34.06,-14.91 -71.928,-20.277 -109.413,-20.277 L 943.66,900.93 c 0,-7.262 3.449,-10.332 9.567,-14.535 z M 584.441,923.5 v 0 c 0,16.824 10.707,30.988 27.926,30.988 17.981,0 22.184,-15.304 26.008,-29.457 8.039,-27.543 31.773,-37.875 59.684,-37.875 14.918,0 30.605,2.68 42.847,11.489 10.719,7.64 19.891,20.648 19.891,34.421 0,26.774 -30.223,34.426 -51.254,40.922 -42.855,13.004 -91.824,28.322 -91.824,81.112 0,29.07 15.683,53.19 39.035,69.63 23.707,16.07 52.398,23.72 81.476,23.72 25.637,0 52.793,-5.74 76.141,-16.07 4.965,-1.91 16.059,-6.5 19.879,-11.09 3.438,-3.83 3.438,-8.04 3.438,-13 0,-8.43 -1.524,-32.91 -4.973,-40.19 -2.664,-5.35 -8.027,-8.8 -13.774,-8.8 -30.593,0 2.688,62.76 -76.5,62.76 -12.632,0 -26.406,-3.06 -36.734,-11.1 -8.418,-6.51 -15.309,-18 -15.309,-28.7 0,-58.91 143.086,-38.25 143.086,-120.889 0,-68.094 -71.531,-104.445 -132.359,-104.445 -26.395,0 -50.887,4.597 -74.613,16.066 -20.657,9.192 -42.071,25.653 -42.071,50.508 z m -112.855,61.207 v 0 c -4.977,35.203 -12.621,70.773 -26.387,104.063 L 381.313,984.707 Z m -130.07,-86.062 v 0 c 0,-14.93 17.222,-12.25 17.222,-23.735 0,-15.285 -6.117,-12.25 -9.953,-12.25 h -65.039 c -3.82,0.785 -8.031,-1.902 -8.031,9.961 0,6.5 3.441,9.938 9.176,13.004 16.074,8.797 16.839,16.066 24.492,31.766 l 81.097,144.979 47.817,65.81 c 10.715,13 13.785,20.27 31.758,20.27 22.562,0 24.867,-10.33 32.902,-29.45 l 31.356,-100.62 22.582,-108.653 c 1.535,-9.176 1.91,-17.215 11.101,-22.957 4.606,-3.442 8.027,-5.356 8.027,-11.09 0,-13.782 -14.539,-13.02 -24.085,-13.02 h -72.7 c -8.422,0 -16.453,1.168 -16.453,11.086 0,6.531 3.824,9.199 9.57,11.879 9.559,4.211 11.094,4.973 11.094,15.699 0,8.403 -2.301,22.942 -3.449,32.125 l -3.434,21.039 H 366.008 c -6.516,-11.863 -24.492,-45.527 -24.492,-55.843 z m -66.942,145.745 v 0 c -10.722,0 -13.386,10.33 -14.914,18.36 -2.691,14.93 -6.512,27.54 -17.984,39.02 -13.399,12.64 -31.008,17.99 -48.977,17.99 -70.777,0 -104.8201,-83.78 -104.8201,-143.092 0,-19.508 4.1914,-42.828 15.6761,-58.148 14.152,-19.497 37.504,-29.079 61.215,-29.079 34.039,0 60.828,17.61 84.929,39.805 3.449,2.668 7.27,6.488 12.242,6.488 7.653,0 14.543,-5.722 14.543,-13.379 0,-16.453 -26.785,-36.355 -39.41,-43.617 -25.246,-14.91 -55.48,-21.812 -84.922,-21.812 -74.9879,0 -140.4215,42.465 -140.4215,122.429 0,94.875 88.7655,169.095 180.9685,169.095 28.305,0 54.324,-6.12 79.196,-19.89 6.121,-3.06 17.199,-9.18 21.804,-14.54 2.676,-3.45 3.442,-6.5 3.442,-10.72 l -1.926,-22.95 c -1.141,-12.25 -3.051,-35.96 -20.641,-35.96 z m 2859.946,398.63 v 0 c -2.89,-14.91 5.42,-20.36 16.29,-21.72 10.84,-1.35 18.98,6.78 18.98,17.64 0,10.84 -7.93,18.42 -18.64,16.28 -6.79,-1.36 -14.77,-2.55 -16.63,-12.2 z m -57.98,29.5 v 0 c -2.88,-14.9 5.41,-20.36 16.26,-21.7 10.87,-1.36 19,6.77 19,17.63 0,10.85 -7.93,18.41 -18.67,16.27 -6.77,-1.36 -14.74,-2.54 -16.59,-12.2 z m -137.38,-19.34 v 0 c -2.87,-14.88 5.43,-20.35 16.3,-21.71 10.84,-1.36 18.98,6.78 18.98,17.64 0,10.87 -7.92,18.42 -18.65,16.28 -6.78,-1.36 -14.76,-2.54 -16.63,-12.21 z m -63.75,-138.37 v 0 c -10.68,3.33 51.56,8.14 73.25,27.13 21.7,18.99 23.07,24.42 23.07,40.7 -17.64,-4.07 -53.77,-0.16 -59.19,32.38 -5.43,32.57 3.74,89.2 45.78,86.5 42.06,-2.73 43.25,-37.49 48.66,-56.47 4.11,-13.58 39.34,-13.58 42.08,8.13 2.71,21.71 5.4,66.47 28.48,89.54 13.58,12.21 99.04,-37.98 112.6,-84.12 6.79,-24.41 1.36,-67.82 -25.77,-74.6 -27.14,-6.8 -46.14,13.57 -58.33,20.34 -43.93,-20.34 -92.77,-24.92 -103.11,-23.06 0,-24.42 -2.88,-63.93 -35.44,-71.56 -34.56,-8.11 -61.05,-4.58 -92.08,5.09 z m -89.53,250.97 v 0 c 17.64,14.93 50.19,44.77 50.19,44.77 12.21,-28.49 24.42,-130.24 -6.79,-221.14 -5.42,-13.55 -9.82,4.26 -12.2,36.64 -2.43,32.93 -20.36,108.53 -31.2,139.73 z m -314.73,-111.24 v 0 c 5.4,-20.35 18.99,-24.43 32.55,-21.71 13.56,2.72 14.91,25.77 8.14,39.34 -6.79,13.57 -19.54,23.23 -32.56,17.65 -9.5,-4.08 -13.57,-14.93 -8.13,-35.28 z m -153.3,134.3 v 0 l 54.27,31.2 c 0,0 -4.07,-119.38 -4.07,-137.03 0,-17.62 9.49,-32.54 28.48,-32.54 18.99,0 34.42,9.67 35.79,32.73 1.35,23.07 48.31,50.03 74.11,25.61 25.75,-24.41 32.55,-39.35 33.91,-54.27 8.14,-13.56 51.55,-23.07 62.39,24.41 1.36,13.57 19,13.57 23.06,-2.7 4.08,-16.27 16.27,-37.98 54.26,-32.56 37.99,5.42 48.86,20.34 17.66,52.9 8.12,8.15 28.48,33.91 28.48,33.91 20.33,-29.84 27.14,-66.47 20.33,-94.95 -6.77,-28.49 -33.89,-42.05 -61.03,-40.7 -27.13,1.35 -63.76,9.49 -70.54,25.77 -10.86,-18.99 -23.06,-23.05 -37.99,-21.69 -14.93,1.34 -39.36,4.05 -48.85,18.97 -6.78,-17.63 -24.4,-32.55 -46.11,-29.83 -21.71,2.71 -36.62,16.27 -40.7,33.91 -21.7,-18.98 -44.1,-30.86 -73.25,-27.13 -27.74,3.55 -47.15,16.63 -51.57,62.4 -5.6,58.22 1.37,131.59 1.37,131.59 z M 1959.7,1449.11 v 0 c 3.06,-3.56 -26.96,-32.55 0,-59.7 20.97,-21.1 37.98,-27.12 82.75,-29.83 44.78,-2.72 78.69,-5.43 78.69,12.2 0,17.63 -6.81,19 -28.48,19 -21.71,0 -61.07,-8.14 -58.35,24.42 2.72,32.56 43.42,35.27 61.05,35.27 17.64,0 96.33,-12.2 122.11,-2.71 25.76,9.49 4.22,43.75 -12.05,57.31 11.19,11.19 39.17,32.23 39.17,32.23 16.29,-29.86 32.06,-70.89 19.84,-99.38 -12.2,-28.49 -32.18,-34.71 -49.87,-34.09 -37.98,1.36 -79.86,23.58 -101.56,26.28 -21.72,2.72 -51.55,4.08 -50.21,-13.55 1.37,-17.63 68.89,-0.68 81.41,-27.15 12.21,-25.77 1.35,-50.19 -23.06,-62.39 -24.42,-12.21 -109.73,-19.19 -160.42,-1.52 -33.58,11.69 -36.54,56.45 -34.6,81.39 3.07,39.16 27.48,49.35 33.58,42.22 z m -524.99,315.41 v 0 c 0,0 -6.13,-154.65 -4.08,-183.13 2.03,-28.49 10.18,-67.16 63.08,-69.21 52.91,-2.02 142.44,-12.2 154.65,30.54 12.22,42.74 -17.11,55.92 -40.69,83.43 -24.43,28.48 -83.45,87.5 -83.45,87.5 l 32.57,52.91 209.6,-4.08 -24.42,-44.77 -101.76,-4.06 c 32.57,-38.67 86.8,-154.92 75.32,-205.52 -10.19,-44.78 -42.75,-89.54 -122.1,-91.57 -79.37,-2.05 -103.8,0 -134.31,2.03 -30.54,2.03 -107.86,26.46 -105.82,113.96 2.03,87.49 4.07,174.99 4.07,174.99 z M 783.16,1275.93 v 0 l 32.047,30.45 25.629,-33.65 -30.438,-28.84 z m 1917.54,25.52 v 0 l 21.52,20.44 17.2,-22.59 -20.43,-19.37 z m 27.14,40.71 v 0 l 21.51,20.44 17.21,-22.61 -20.44,-19.36 z m -47.49,0 v 0 l 21.5,20.44 17.22,-22.61 -20.44,-19.36 z m -58.34,-9.52 v 0 l 21.53,20.47 17.21,-22.61 -20.45,-19.36 z m -47.47,0 v 0 l 21.51,20.47 17.21,-22.61 -20.43,-19.36 z m -335.09,5.44 v 0 l 21.52,20.44 17.21,-22.6 -20.44,-19.36 z m -47.48,0 v 0 l 21.52,20.44 17.22,-22.6 -20.43,-19.36 z m -1374.208,-5.17 v 0 l 32.031,30.44 25.637,-33.64 -30.434,-28.85 z m -69.188,0 v 0 l 32.043,30.44 25.637,-33.64 -30.434,-28.85 z m -138.367,-10.17 v 0 l 32.031,30.44 25.637,-33.65 -30.441,-28.85 z m -71.223,0 v 0 l 32.036,30.44 25.636,-33.65 -30.441,-28.85 z M 238.16,1591.55 v 0 l 40.719,38.67 32.547,-42.73 -38.672,-36.63 z m -91.574,-69.18 v 0 c 12.332,1.13 18.312,-2.04 8.152,-52.9 -10.172,-50.88 -8.152,-93.61 122.078,-93.61 130.254,0 150.602,36.63 148.555,59 -2.031,22.39 -22.379,40.7 -56.969,63.08 14.243,32.56 46.801,85.47 46.801,85.47 18.32,-16.27 44.758,-50.86 97.676,-50.86 52.91,0 79.359,4.06 101.746,67.15 6.109,24.41 28.5,16.28 32.563,-6.12 4.058,-22.37 10.183,-59.01 42.714,-59.01 32.563,0 75.309,-6.09 93.61,14.25 18.32,20.35 24.429,40.7 30.519,50.88 6.125,10.17 26.473,10.17 30.547,-8.15 4.067,-18.3 10.18,-56.98 36.61,-61.05 26.472,-4.07 79.386,-12.2 95.652,20.36 10.176,22.39 18.308,32.55 20.34,42.72 2.043,10.19 20.36,6.12 24.43,-8.12 4.05,-14.25 10.18,-56.98 46.79,-52.91 36.65,4.06 40.71,22.38 48.85,44.76 8.15,22.39 28.48,14.24 32.56,-6.1 4.07,-20.35 4.07,-52.91 54.94,-44.78 32.55,6.12 40.7,10.18 30.52,38.66 -8.14,22.4 -22.38,32.57 -12.22,38.68 10.2,6.1 34.62,14.24 38.67,24.42 12.22,-10.18 20.35,-52.91 16.28,-97.69 -4.06,-44.76 -14.25,-107.84 -48.82,-115.99 -34.61,-8.13 -71.23,-10.17 -103.78,32.58 -14.26,-24.43 -46.82,-46.82 -65.13,-42.75 -18.3,4.07 -42.73,14.25 -56.97,40.71 -16.284,-28.49 -38.667,-36.64 -77.323,-32.56 -38.672,4.07 -73.278,12.2 -93.614,46.78 -16.285,-32.53 -40.695,-44.76 -67.152,-44.76 -26.457,0 -67.152,-4.07 -83.434,4.08 -16.285,8.15 -38.652,18.31 -52.91,44.76 -10.168,-32.55 -44.777,-46.79 -69.183,-46.79 -24.422,0 -63.079,0 -79.368,16.27 6.106,-44.76 -14.23,-105.81 -44.777,-124.13 -30.512,-18.31 -87.488,-59.02 -187.203,-50.88 -99.691,8.15 -162.793,63.1 -162.793,136.35 0,73.25 38.672,126.16 61.043,128.2"
         style="fill:#2e3192;fill-opacity:1;fill-rule:nonzero;stroke:none"
         id="path384" />
    </g>
  </g>
</svg>
