<?xml version="1.0" encoding="UTF-8" standalone="no"?>
<!-- Created with Inkscape (http://www.inkscape.org/) -->

<svg
   version="1.1"
   id="svg2"
   width="283.46667"
   height="225.10667"
   viewBox="0 0 283.46667 225.10667"
   sodipodi:docname="Kishair-logo.eps"
   xmlns:inkscape="http://www.inkscape.org/namespaces/inkscape"
   xmlns:sodipodi="http://sodipodi.sourceforge.net/DTD/sodipodi-0.dtd"
   xmlns="http://www.w3.org/2000/svg"
   xmlns:svg="http://www.w3.org/2000/svg">
  <defs
     id="defs6" />
  <sodipodi:namedview
     id="namedview4"
     pagecolor="#ffffff"
     bordercolor="#000000"
     borderopacity="0.25"
     inkscape:showpageshadow="2"
     inkscape:pageopacity="0.0"
     inkscape:pagecheckerboard="0"
     inkscape:deskcolor="#d1d1d1" />
  <g
     id="g8"
     inkscape:groupmode="layer"
     inkscape:label="ink_ext_XXXXXX"
     transform="matrix(1.3333333,0,0,-1.3333333,0,225.10667)">
    <g
       id="g10"
       transform="scale(0.1)">
      <path
         d="M 0,781.082 C 88.5508,856.352 159.801,887.523 232.5,906.16 906.719,1060.27 1253.44,411.121 1738.63,450.02 1474.69,204.949 1108.44,294.988 858.52,450.922 593.711,609.52 322.07,792.094 0,781.082 v 0"
         style="fill:#ec1b28;fill-opacity:1;fill-rule:evenodd;stroke:none"
         id="path12" />
      <path
         d="m 1289.49,618.191 c 131.96,-95.429 361.76,-211.211 546.88,-88.32 -180.98,-47.109 -252.7,90.969 -356.17,99.027 -80.75,11.75 -117.08,-30.039 -190.71,-10.707 v 0"
         style="fill:#ec1b28;fill-opacity:1;fill-rule:evenodd;stroke:none"
         id="path14" />
      <path
         d="m 2125.98,713.031 c -119.73,47.395 -349.77,113.871 -493.01,-0.105 255.58,4.054 219.65,-73.797 321.17,-60.664 79.92,8.617 108.98,58.976 171.84,60.769 v 0"
         style="fill:#ec1b28;fill-opacity:1;fill-rule:evenodd;stroke:none"
         id="path16" />
      <path
         d="m 1484.65,643.27 c 173.79,125.191 310.08,-43.598 459.61,-13.872 -165.24,-172.699 -348.01,26.024 -459.61,13.872 v 0"
         style="fill:#ec1b28;fill-opacity:1;fill-rule:evenodd;stroke:none"
         id="path18" />
      <path
         d="m 1067.85,1688.31 c 496.49,-3.09 899.69,-406.79 904.03,-901.607 -27.11,8.399 -226.88,58.36 -392.66,-67.262 -36.13,-10.695 -87.15,-30.039 -118.87,-52.812 -38.47,0.5 -121.52,-0.27 -190.39,-20.359 -5.47,1.492 -14.41,4.769 -19.3,6.421 -235.74,101.485 -511.09,421.159 -1085.109,277.961 -0.082,0 -0.16,-0.039 -0.242,-0.039 73.05,431.407 451.332,760.467 902.541,757.697 v 0"
         style="fill:#f8dc1a;fill-opacity:1;fill-rule:evenodd;stroke:none"
         id="path20" />
      <path
         d="m 479.418,104.211 c 0,6.059 0.367,10.078 1.09,12.051 0.726,1.957 2.031,3.437 3.91,4.398 2.609,1.399 5.367,2.102 8.277,2.102 h 4.457 v 3.359 h -52.836 v -3.359 h 4.368 c 2.91,0 5.695,-0.731 8.367,-2.184 1.875,-1.098 3.121,-2.398 3.726,-3.906 0.786,-2 1.18,-6.152 1.18,-12.461 V 24.6406 c 0,-7.3906 -0.727,-12.0625 -2.184,-14.0117 -2.3,-2.95702 -6,-4.44921 -11.089,-4.44921 h -4.368 V 2.82031 h 52.836 v 3.35938 h -4.457 c -2.91,0 -5.668,0.73047 -8.277,2.1914 -1.938,1.07813 -3.211,2.39061 -3.816,3.91021 -0.789,2 -1.184,6.1171 -1.184,12.3593 v 37.5586 h 57.293 V 24.6406 c 0,-7.3906 -0.766,-12.0625 -2.277,-14.0117 -2.305,-2.95702 -5.973,-4.44921 -11,-4.44921 h -4.368 V 2.82031 h 52.743 v 3.35938 h -4.368 c -2.91,0 -5.699,0.73047 -8.363,2.1914 -1.883,1.07813 -3.125,2.39061 -3.726,3.91021 -0.789,2 -1.188,6.1171 -1.188,12.3593 v 79.5704 c 0,6.059 0.352,10.078 1.051,12.051 0.691,1.957 2.012,3.437 3.957,4.398 2.601,1.399 5.359,2.102 8.269,2.102 h 4.368 v 3.359 h -52.743 v -3.359 h 4.368 c 2.91,0 5.664,-0.731 8.269,-2.184 1.945,-1.098 3.215,-2.398 3.824,-3.906 0.786,-2 1.184,-6.152 1.184,-12.461 V 68.9297 h -57.293 v 35.2813 z m -59.832,24.738 c -0.606,-2.859 -1.41,-4.75 -2.414,-5.687 -1,-0.942 -2.285,-1.403 -3.859,-1.403 -1.399,0 -3.793,0.75 -7.184,2.262 -7.34,3.207 -14.277,4.828 -20.824,4.828 -10.492,0 -19.133,-3.211 -25.918,-9.597 -6.793,-6.403 -10.188,-14.024 -10.188,-22.8715 0,-5.0899 1.153,-9.7617 3.457,-14 2.305,-4.25 5.684,-8.1211 10.141,-11.6407 4.453,-3.5195 11.961,-8.2304 22.508,-14.1406 10.547,-5.9179 17,-9.7773 19.367,-11.5976 3.512,-2.6719 6.105,-5.5508 7.773,-8.6407 1.664,-3.0898 2.5,-6.1523 2.5,-9.1796 0,-5.4532 -2.195,-10.1915 -6.59,-14.1797 -4.402,-4.01176 -10.382,-6.01176 -17.96,-6.01176 -6.547,0 -12.567,1.44922 -18.051,4.35936 -5.489,2.9219 -9.567,6.5703 -12.231,10.961 -2.668,4.3984 -4.793,11.0195 -6.363,19.8789 h -3.367 V 0 h 3.367 c 0.422,2.85156 1.074,4.73047 1.953,5.62891 C 356.582,6.53906 357.777,7 359.297,7 c 1.57,0 5.316,-0.96094 11.23,-2.85937 5.911,-1.91016 9.805,-3.01954 11.684,-3.320317 C 385.359,0.269531 388.727,0 392.305,0 c 11.394,0 20.718,3.37891 27.965,10.1406 7.242,6.75 10.863,14.8008 10.863,24.1407 0,4.9101 -1.137,9.6093 -3.406,14.0976 -2.278,4.4805 -5.52,8.3828 -9.735,11.6797 -4.215,3.3008 -12.078,8.0508 -23.597,14.2305 -14.125,7.582 -23.067,13.6406 -26.829,18.1914 -2.605,3.0898 -3.91,6.5078 -3.91,10.2695 0,4.922 2.063,9.289 6.188,13.148 4.121,3.852 9.336,5.774 15.64,5.774 5.575,0 10.969,-1.434 16.188,-4.281 5.215,-2.852 9.226,-6.7 12.051,-11.539 2.816,-4.852 4.769,-11.3715 5.863,-19.5512 h 3.363 v 42.6482 h -3.363 z M 328.559,6.17969 c -2.911,0 -5.668,0.73047 -8.278,2.1914 -1.937,1.07813 -3.211,2.39061 -3.816,3.91021 -0.789,2 -1.184,6.1171 -1.184,12.3593 v 79.6604 c 0,7.398 0.758,12.07 2.274,14 2.304,2.969 5.968,4.461 11.004,4.461 h 4.453 v 3.359 H 280.18 v -3.359 h 4.367 c 2.91,0 5.695,-0.731 8.363,-2.184 1.879,-1.098 3.125,-2.398 3.731,-3.906 0.785,-2 1.179,-6.121 1.179,-12.371 V 24.6406 c 0,-7.3906 -0.726,-12.0625 -2.179,-14.0117 -2.305,-2.95702 -6,-4.44921 -11.094,-4.44921 H 280.18 V 2.82031 h 52.832 v 3.35938 h -4.453 z M 215.527,89.9297 c 10.973,11.2113 17.125,17.4293 18.461,18.6403 4.606,4.239 8.489,7.328 11.637,9.231 3.152,1.918 5.82,3.199 8.004,3.871 2.184,0.656 4.609,1.027 7.273,1.09 v 3.359 h -45.281 v -3.359 h 2.817 c 3.031,0 5.179,-0.532 6.457,-1.59 1.273,-1.063 1.906,-2.293 1.906,-3.684 0,-1.828 -0.817,-3.949 -2.453,-6.367 -3.762,-5.512 -14.641,-16.5194 -32.645,-32.9999 -7.094,-6.5625 -11.25,-10.4102 -12.461,-11.5625 v 37.7424 c 0,6.058 0.367,10.07 1.094,12 0.727,1.937 2.031,3.398 3.91,4.359 2.668,1.399 5.426,2.102 8.274,2.102 h 4.183 v 3.359 h -52.558 v -3.359 h 4.367 c 2.902,0 5.691,-0.731 8.363,-2.184 1.879,-1.098 3.121,-2.367 3.727,-3.816 0.789,-2.063 1.183,-6.211 1.183,-12.461 V 24.6406 c 0,-7.3906 -0.726,-12.0625 -2.18,-14.0117 -2.304,-2.95702 -6.007,-4.44921 -11.093,-4.44921 h -4.367 V 2.82031 h 52.558 v 3.35938 h -4.183 c -2.911,0 -5.668,0.73047 -8.274,2.1914 -1.941,1.07813 -3.215,2.39061 -3.82,3.91021 -0.785,2 -1.184,6.1171 -1.184,12.3593 v 39.7383 l 42.559,-42.0976 c 3.215,-3.1602 5.109,-5.3125 5.683,-6.461 0.579,-1.1484 0.868,-2.4492 0.868,-3.9101 0,-1.4493 -0.774,-2.76957 -2.321,-3.94926 -1.551,-1.17969 -4.078,-1.78125 -7.593,-1.78125 V 2.82031 h 58.652 v 3.35938 c -5.274,0.35937 -10.547,1.89844 -15.82,4.58981 -5.278,2.6993 -11.641,7.7696 -19.098,15.2422 l -45.469,45.1875 18.824,18.7305 v 0"
         style="fill:#275aa6;fill-opacity:1;fill-rule:nonzero;stroke:none"
         id="path22" />
      <path
         d="m 1439.28,128.949 c -0.61,-2.859 -1.41,-4.75 -2.41,-5.687 -1,-0.942 -2.29,-1.403 -3.86,-1.403 -1.4,0 -3.79,0.75 -7.19,2.262 -7.33,3.207 -14.28,4.828 -20.82,4.828 -10.5,0 -19.13,-3.211 -25.92,-9.597 -6.79,-6.403 -10.18,-14.024 -10.18,-22.8715 0,-5.0899 1.15,-9.7617 3.45,-14 2.3,-4.25 5.69,-8.1211 10.14,-11.6407 4.45,-3.5195 11.95,-8.2304 22.51,-14.1406 10.55,-5.9179 17,-9.7773 19.37,-11.5976 3.51,-2.6719 6.1,-5.5508 7.77,-8.6407 1.67,-3.0898 2.5,-6.1523 2.5,-9.1796 0,-5.4532 -2.2,-10.1915 -6.59,-14.1797 -4.4,-4.01176 -10.38,-6.01176 -17.96,-6.01176 -6.55,0 -12.57,1.44922 -18.05,4.35936 -5.49,2.9219 -9.57,6.5703 -12.24,10.961 -2.66,4.3984 -4.78,11.0195 -6.36,19.8789 h -3.36 V 0 h 3.36 c 0.43,2.85156 1.08,4.73047 1.96,5.62891 0.88,0.91015 2.07,1.37109 3.58,1.37109 1.59,0 5.33,-0.96094 11.23,-2.85937 5.92,-1.91016 9.81,-3.01954 11.69,-3.320317 C 1405.06,0.269531 1408.42,0 1412,0 c 11.4,0 20.71,3.37891 27.96,10.1406 7.25,6.75 10.87,14.8008 10.87,24.1407 0,4.9101 -1.14,9.6093 -3.42,14.0976 -2.26,4.4805 -5.52,8.3828 -9.72,11.6797 -4.21,3.3008 -12.08,8.0508 -23.6,14.2305 -14.13,7.582 -23.06,13.6406 -26.82,18.1914 -2.61,3.0898 -3.92,6.5078 -3.92,10.2695 0,4.922 2.06,9.289 6.19,13.148 4.12,3.852 9.33,5.774 15.64,5.774 5.57,0 10.97,-1.434 16.19,-4.281 5.2,-2.852 9.23,-6.7 12.04,-11.539 2.82,-4.852 4.77,-11.3715 5.87,-19.5512 h 3.37 v 42.6482 h -3.37 z m -123.04,-9.558 c 6.12,0 10.4,-0.442 12.82,-1.36 3.04,-1.269 5.32,-3.121 6.87,-5.551 1.55,-2.421 2.96,-6.871 4.23,-13.3589 h 3.54 l -1.36,26.9999 h -95.03 v -3.359 h 4.37 c 5.1,0 8.73,-1.223 10.91,-3.641 1.58,-1.82 2.37,-6.641 2.37,-14.449 V 24.5508 c 0,-6.0117 -0.35,-9.9727 -1.05,-11.9102 -0.7,-1.9492 -2.02,-3.40232 -3.96,-4.37107 -2.61,-1.39844 -5.36,-2.08984 -8.27,-2.08984 h -4.37 V 2.82031 h 95.03 l 10.64,30.91019 h -3.63 c -3.95,-7.5821 -7.8,-13.2422 -11.56,-17 -2.91,-2.8516 -5.93,-4.7617 -9.09,-5.7188 -3.15,-0.9804 -8.21,-1.46092 -15.18,-1.46092 h -20.92 c -3.39,0 -5.7,0.33985 -6.91,1.05082 -1.22,0.6875 -2.07,1.6289 -2.55,2.8086 -0.48,1.1796 -0.73,4.5 -0.73,9.9609 v 40.6406 h 27.1 c 5.16,0 8.98,-0.6015 11.47,-1.8125 2.48,-1.2109 4.26,-2.8789 5.36,-5 0.85,-1.6992 1.7,-5.5508 2.55,-11.5586 h 3.36 v 42.918 h -3.36 c -0.37,-7.0273 -2.13,-11.9375 -5.28,-14.7188 -2.37,-2.121 -7.07,-3.1914 -14.1,-3.1914 h -27.1 v 48.7426 h 33.83 z m -209.69,3.371 c 3.58,0 6.24,-0.274 8,-0.821 3.58,-1.152 6.29,-2.39 8.14,-3.73 1.85,-1.34 4.56,-4.09 8.14,-8.27 V 24.1914 c 0,-6.9101 -0.67,-11.3398 -2,-13.2812 -2.19,-3.1602 -5.91,-4.73051 -11.18,-4.73051 h -4.28 V 2.82031 h 42.92 v 3.35938 h -4.37 c -4.78,0 -8.34,1.26953 -10.63,3.82031 -1.64,1.8711 -2.46,6.6094 -2.46,14.1914 v 75.9296 l 81.3,-99.300687 h 3.27 V 104.762 c 0,6.91 0.66,11.328 2,13.269 2.18,3.149 5.88,4.731 11.09,4.731 h 4.37 v 3.359 h -42.92 v -3.359 h 4.27 c 4.85,0 8.4,-1.282 10.64,-3.813 1.7,-1.89 2.55,-6.621 2.55,-14.187 V 33.6406 l -75.39,92.4804 h -33.46 v -3.359 z M 1100,6.17969 c -2.91,0 -5.66,0.73047 -8.27,2.1914 -1.94,1.07813 -3.21,2.39061 -3.82,3.91021 -0.79,2 -1.18,6.1171 -1.18,12.3593 v 79.6604 c 0,7.398 0.75,12.07 2.26,14 2.31,2.969 5.98,4.461 11.01,4.461 h 4.45 v 3.359 h -52.82 v -3.359 h 4.36 c 2.91,0 5.69,-0.731 8.37,-2.184 1.88,-1.098 3.12,-2.398 3.72,-3.906 0.79,-2 1.19,-6.121 1.19,-12.371 V 24.6406 c 0,-7.3906 -0.73,-12.0625 -2.19,-14.0117 -2.3,-2.95702 -6,-4.44921 -11.09,-4.44921 h -4.36 V 2.82031 h 52.82 V 6.17969 H 1100 Z m -69.47,13.96091 c -3.16,-3.5508 -6.64,-6.0195 -10.46,-7.4218 -3.82,-1.379 -10.46,-2.0899 -19.91,-2.0899 h -9.008 c -7.945,0 -12.672,0.3125 -14.183,0.9102 -1.52,0.6093 -2.637,1.5625 -3.364,2.832 -0.972,1.8672 -1.457,5.3281 -1.457,10.3672 v 77.4727 c 0,7.328 0.485,11.969 1.457,13.91 0.965,1.938 2.774,3.551 5.411,4.82 2.632,1.278 7.222,1.879 13.773,1.821 v 3.359 h -55.832 v -3.359 h 4.637 c 4.668,0 8.179,-1.332 10.551,-4 1.695,-1.942 2.543,-6.762 2.543,-14.461 V 24.7383 c 0,-7.0391 -0.633,-11.5274 -1.911,-13.4688 -2.242,-3.39059 -5.968,-5.08981 -11.183,-5.08981 h -4.637 V 2.82031 h 95.483 l 10.54,33.46099 -2.99,0.6289 c -3.16,-7.6289 -6.31,-13.2188 -9.46,-16.7696 z M 847.297,117.488 c 6,1.141 10.762,1.723 14.273,1.723 7.942,0 14.325,-2.402 19.145,-7.231 4.816,-4.808 7.23,-11.07 7.23,-18.7808 0,-7.8789 -2.988,-14.3594 -8.961,-19.4492 -5.972,-5.1016 -14.839,-7.6484 -26.597,-7.6484 -0.547,0 -1.242,0.0195 -2.09,0.0468 -0.856,0.0313 -1.852,0.0508 -3,0.0508 V 117.488 Z M 934.863,6.17969 c -6.726,0.73047 -12.183,2.42187 -16.367,5.08981 -4.183,2.6797 -9.183,8.0703 -15.004,16.1914 l -25.461,35.3672 c 10.367,2.3125 18.02,6.25 22.961,11.8321 4.942,5.5703 7.41,12.1484 7.41,19.7187 0,7.1011 -2.168,13.2111 -6.504,18.3321 -4.335,5.117 -9.609,8.641 -15.82,10.551 -6.215,1.91 -15.867,2.859 -28.965,2.859 h -44.922 v -3.359 h 4.641 c 4.668,0 8.184,-1.332 10.547,-4 1.699,-1.891 2.547,-6.703 2.547,-14.461 V 24.6406 c 0,-7.0312 -0.633,-11.4922 -1.906,-13.3711 -2.25,-3.39059 -5.973,-5.08981 -11.188,-5.08981 h -4.641 V 2.82031 h 52.836 v 3.35938 h -4.824 c -4.601,0 -8.058,1.33984 -10.363,4.01171 -1.695,1.8672 -2.543,6.6875 -2.543,14.4492 v 35.8282 c 0.965,-0.0586 1.906,-0.1094 2.816,-0.1407 0.91,-0.0273 1.758,-0.0468 2.547,-0.0468 1.942,0 4.453,0.0703 7.543,0.1875 L 901.949,2.82031 h 32.914 v 3.35938 z m -134.851,0 c -2.91,0 -5.672,0.73047 -8.278,2.1914 -1.937,1.07813 -3.214,2.39061 -3.82,3.91021 -0.789,2 -1.18,6.1171 -1.18,12.3593 v 79.6604 c 0,7.398 0.754,12.07 2.27,14 2.305,2.969 5.973,4.461 11.008,4.461 h 4.453 v 3.359 h -52.832 v -3.359 h 4.363 c 2.91,0 5.699,-0.731 8.363,-2.184 1.879,-1.098 3.125,-2.398 3.731,-3.906 0.789,-2 1.183,-6.121 1.183,-12.371 V 24.6406 c 0,-7.3906 -0.726,-12.0625 -2.183,-14.0117 -2.305,-2.95702 -6,-4.44921 -11.094,-4.44921 h -4.363 V 2.82031 h 52.832 v 3.35938 h -4.453 z M 652.789,50.8281 674.246,100.66 695.16,50.8281 h -42.371 z m 52.379,-24.457 c 2.422,-5.7617 3.637,-9.9727 3.637,-12.6406 0,-2 -0.867,-3.6992 -2.594,-5.10159 C 704.48,7.25 701.16,6.42969 696.254,6.17969 V 2.82031 h 48.648 v 3.35938 c -5.035,0.30078 -8.957,1.67969 -11.777,4.14061 -2.816,2.4492 -5.957,7.8008 -9.41,16.0508 L 680.797,128.949 h -3.184 L 634.234,27.4609 C 630.473,18.5391 627.051,12.6406 623.961,9.73047 622.441,8.26953 619.105,7.08984 613.953,6.17969 V 2.82031 h 38.836 v 3.35938 c -5.941,0.42187 -9.809,1.35156 -11.598,2.76953 -1.789,1.42968 -2.679,3.08208 -2.679,4.97268 0,2.3594 1.031,5.9297 3.09,10.7187 l 8.363,19.461 h 47.738 l 7.465,-17.7305 v 0"
         style="fill:#275aa6;fill-opacity:1;fill-rule:nonzero;stroke:none"
         id="path24" />
    </g>
  </g>
</svg>
