<?xml version="1.0" encoding="UTF-8" standalone="no"?>
<svg
   xmlns:dc="http://purl.org/dc/elements/1.1/"
   xmlns:cc="http://creativecommons.org/ns#"
   xmlns:rdf="http://www.w3.org/1999/02/22-rdf-syntax-ns#"
   xmlns:svg="http://www.w3.org/2000/svg"
   xmlns="http://www.w3.org/2000/svg"
   viewBox="0 0 607.54669 176.57333"
   height="176.57333"
   width="607.54669"
   xml:space="preserve"
   id="svg2"
   version="1.1"><metadata
     id="metadata8"><rdf:RDF><cc:Work
         rdf:about=""><dc:format>image/svg+xml</dc:format><dc:type
           rdf:resource="http://purl.org/dc/dcmitype/StillImage" /></cc:Work></rdf:RDF></metadata><defs
     id="defs6" /><g
     transform="matrix(1.3333333,0,0,-1.3333333,0,176.57333)"
     id="g10"><g
       transform="scale(0.1)"
       id="g12"><path
         id="path14"
         style="fill:#174140;fill-opacity:1;fill-rule:nonzero;stroke:none"
         d="m 1738.07,1285.53 c 137.1,14.6 274.6,25.7 411.9,38.8 -42.2,-138.2 -124.9,-270.7 -253.9,-342.4 -49.2,-28.102 -103.4,-46.5 -158.9,-57.399 -170.6,-33.004 -342.5,-65.902 -505.2,-128.504 -95.2,-37.398 -188.1,-86.8 -260.599,-160.203 C 839.57,493.234 720.672,339.523 599.168,188.238 539.969,112.031 451.273,59.0313 355.168,46.9297 260.273,35.4219 153.871,47.6289 79.7695,113.238 8.67188,177.121 -5.12891,280.129 1.47266,370.531 18.8711,570.934 147.469,758.93 328.27,847.43 c 16.8,61.097 23.8,125.402 47.699,184.3 28.902,49.7 93.199,35.8 140.898,36.1 39.504,-4 90.602,8.8 118.301,-27.9 34.504,-45.903 13.203,-106 6.203,-157.297 C 631.57,815.934 579.473,762.73 517.973,739.328 391.172,692.633 260.672,641.527 160.969,547.023 101.867,491.43 61.4727,413.129 63.3711,330.734 62.2695,272.121 80.9688,210.629 126.07,171.031 c 58.7,-53.402 144.7,-65.101 220.403,-50.801 112.5,20.192 209.699,93.399 275,185.192 145.898,204.308 291.3,409.109 437.297,613.406 49.4,69.402 109.2,131.402 177.9,182.002 145.4,107.8 323.6,162 501.4,184.7" /><path
         id="path16"
         style="fill:#174140;fill-opacity:1;fill-rule:nonzero;stroke:none"
         d="m 1276.57,771.027 c 147.3,51.5 303,71.606 454.9,105 -13.9,-76.898 -46.4,-152.297 -104.5,-206.097 -85.1,-81.696 -204.5,-112.399 -318.7,-124.899 -152.7,-21.004 -317.5,-52.105 -433.102,-162.593 -76.395,-80.407 -145.297,-167.817 -220.695,-249.2 -38.301,-41.3083 -90.203,-66.3083 -144,-80.6091 38.5,32.793 80.8,61.8011 114.199,100.1991 50.695,57.301 88.699,124.203 135.601,184.293 81.2,104.406 171.899,201.606 271.597,288.606 71.1,64.003 154.7,113.003 244.7,145.3" /><path
         id="path18"
         style="fill:#174140;fill-opacity:1;fill-rule:nonzero;stroke:none"
         d="m 942.867,356.32 c 88.603,38.618 195.703,50.11 284.103,4.809 43.3,-21.191 74.5,-59.5 99.5,-99.699 -47.2,12.699 -96.2,38.398 -146.1,24.5 -40.5,-13.008 -61.1,-53.489 -80.6,-88.008 -33.6,-59.684 -74.7,-119.4923 -135.7,-153.9923 -56.601,-33 -137.097,-27.8008 -182.797,21.6016 -35.101,38.2887 -33.101,97.3907 -11.105,141.6987 34.504,70.692 102.805,117.708 172.699,149.09" /><path
         id="path20"
         style="fill:#174140;fill-opacity:1;fill-rule:nonzero;stroke:none"
         d="m 1456.57,347.73 c 65.2,-0.097 130.3,0 195.5,-0.097 1.1,-70.512 2,-141.004 3.4,-211.504 58.4,70.402 116.6,140.992 174.8,211.601 60.6,0 121.2,0 181.7,0 -47,-114.199 -93.9,-228.402 -140.7,-342.69875 -37.6,0 -75.2,0 -112.8,0 37.6,91.79685 75.4,183.39875 112.9,275.19875 -77.2,-91.511 -154.1,-183.3003 -230.9,-275.10109 -29.9,-0.09766 -59.8,-0.09766 -89.7,-0.09766 -2.9,92.00005 -5.7,183.99975 -8.6,275.99975 -37.7,-92 -75.5,-183.9997 -113.2,-275.99975 -37.7,0 -75.4,0 -113.1,0 46.8,114.29675 93.7,228.49975 140.7,342.69875" /><path
         id="path22"
         style="fill:#174140;fill-opacity:1;fill-rule:nonzero;stroke:none"
         d="m 2429.88,347.73 c 37.69,0 75.39,0 113.1,0 -19.41,-46.902 -38.1,-94.101 -58.42,-140.699 47.62,31.789 107.72,55.09 164.71,35.5 28.01,-8.203 40.7,-40.5 32.11,-67.109 -16.7,-58.492 -44.9,-112.9806 -66.6,-169.68372 -37.81,0 -75.61,0 -113.41,0 18.7,58.69142 59.8,112.98072 60.3,175.69172 -33.1,20.898 -78,2.101 -95.99,-30.211 -26.21,-46.09 -41.7,-97.1877 -63.11,-145.48072 -37.69,0 -75.4,0 -113,0 46.8,113.99172 93.5,227.98072 140.31,341.99172" /><path
         id="path24"
         style="fill:#174140;fill-opacity:1;fill-rule:nonzero;stroke:none"
         d="m 3787.06,142.328 c 38.52,0.113 77.02,0.113 115.61,0 -1.7,41.391 -3.3,82.703 -5.1,124.102 -36.6,-41.602 -73.59,-82.801 -110.51,-124.102 z m 85.12,205.305 c 43.4,0.097 86.8,0.097 130.29,0.097 11.1,-114.011 22.21,-228 33.4,-341.99172 -43.59,0 -87.3,0 -130.8,0 -0.6,20.69142 -1.09,41.29302 -1.6,61.99222 -60.7,-0.1016 -121.41,0 -182.09,-0.1016 -18.01,-20.5078 -35.9,-41.0976 -53.71,-61.80077 -39.3,-0.08985 -78.59,-0.08985 -117.89,-0.08985 107.4,113.99172 214.9,227.89072 322.4,341.89472" /><path
         id="path26"
         style="fill:#174140;fill-opacity:1;fill-rule:nonzero;stroke:none"
         d="m 4181.17,347.633 c 37.71,0.097 75.5,0.097 113.2,0.097 -9.59,-23.402 -19.2,-46.699 -28.79,-70.101 -37.72,0.101 -75.41,0.101 -113.01,0.101 9.49,23.301 19.1,46.598 28.6,69.903" /><path
         id="path28"
         style="fill:#174140;fill-opacity:1;fill-rule:nonzero;stroke:none"
         d="m 2086.87,100.738 c -19.8,-4.5192 -25.3,-26.5075 -35.1,-41.3083 22.4,-3.6914 46.2,-10.3984 68.3,-1.3008 23.9,8.1914 36.6,31.6016 50.9,50.6911 -28.1,-1.09 -57,0.211 -84.1,-8.082 z m -89.8,71.383 c 26,42.91 72.2,67.82 121.4,72.707 52.9,5.594 110.3,11.301 160,-11.699 24.2,-11.008 29.9,-41.301 20.7,-64.309 -19,-55.191 -45.6,-107.4997 -63.6,-163.08172 -34.5,0 -69.1,-0.10937 -103.7,0.19141 2.5,8.00001 7.4,23.89841 9.9,31.89841 -50.2,-32.88669 -113.4,-47.29685 -171.9,-31.09763 -19.3,5.19923 -37.7,22.59763 -33.9,44.19923 5.6,40.6016 41,69.8983 77.9,82.6013 56.5,21.5 118.1,15.598 176.8,25.5 6.7,15.5 3.5,35.098 -16.1,37 -28,7.5 -54.4,-6.41 -74.8,-24.5 -34.2,-0.793 -68.5,-0.703 -102.7,0.59" /><path
         id="path30"
         style="fill:#174140;fill-opacity:1;fill-rule:nonzero;stroke:none"
         d="m 2790.77,58.7188 c 22.7,-3.1875 47,-9.6875 69.01,0.2109 22.69,8.8008 34.78,31.1992 48.49,49.6993 -42.91,-0.801 -105.99,5.09 -117.5,-49.9102 z m 60.2,185.5112 c 52.7,6.301 109,11.301 159.51,-8.3 25.9,-9.102 37.79,-39.5 27.09,-64.399 -18.59,-56.5 -46.29,-109.4997 -64.49,-166.20287 -34.41,0.41015 -68.91,0.41015 -103.2,0.70312 2.18,8.00005 6.7,24.09765 8.9,32.09765 -48.9,-33.69921 -111.6,-47.19921 -169.41,-31.80859 -19.59,5.30859 -39.69,22.00779 -35.39,44.41799 6.38,41.7031 42.89,71.5897 81.09,84.2927 56.31,19 116.7,17.598 175.29,21.399 -0.48,11.492 -1.38,22.898 -2.59,34.308 -30.71,15.09 -66,4.391 -89.4,-18.41 -34.49,-0.898 -68.9,-0.898 -103.2,0.594 25.7,40.207 68.71,65.609 115.8,71.308" /><path
         id="path32"
         style="fill:#174140;fill-opacity:1;fill-rule:nonzero;stroke:none"
         d="m 3222.18,207.121 c 49.2,32.91 114.2,58.008 171.7,31.508 27.89,-13.098 29.9,-49.199 21,-75 -17.6,-53.899 -42.41,-105.0977 -62.91,-157.89072 -37.6,0 -75.1,0 -112.7,0 21.8,59.29302 55,115.19172 64,178.58972 -33.39,9.602 -74,6.5 -94.7,-25.199 -31.1,-46.899 -45.49,-102.5001 -68.89,-153.39072 -37.5,0 -75,0 -112.5,0 31.49,79.58982 67.6,157.49972 95.1,238.69172 37.6,-0.102 75.19,0 112.79,-0.301 -3.2,-9.188 -9.71,-27.699 -12.89,-37.008" /><path
         id="path34"
         style="fill:#174140;fill-opacity:1;fill-rule:nonzero;stroke:none"
         d="m 4406.28,207.441 c 34.08,28.09 76.29,43.387 120.49,44.59 -10,-26.801 -20.7,-53.402 -31.5,-79.91 -37.41,-1.383 -82.6,1.598 -108.69,-30.902 -30.3,-40.188 -42.6,-90.1877 -63.21,-135.48072 -37.6,0 -75.19,0 -112.79,0 31.6,79.39062 66.99,157.29272 95.29,237.89072 37.31,0.09 74.71,0.09 112.11,0 -3.9,-12.098 -7.81,-24.199 -11.7,-36.188" /><path
         id="path36"
         style="fill:#174140;fill-opacity:1;fill-rule:nonzero;stroke:none"
         d="m 4138.98,244.328 c 37.69,0 75.29,0 112.99,0 -32.7,-79.5 -65.39,-159.0975 -97.99,-238.58972 -37.81,0 -75.51,0 -113.11,0 32.7,79.49222 65.3,159.08972 98.11,238.58972" /><path
         id="path38"
         style="fill:#174140;fill-opacity:1;fill-rule:nonzero;stroke:none"
         d="m 4381.77,893.965 c 1.15,17.129 10.59,33.117 28.28,47.98 10.84,9.129 18.56,18.274 23.13,27.418 11.42,25.133 19.14,42.277 23.14,51.407 8.58,18.28 19.98,27.42 34.28,27.42 10.84,0 19.98,-5.14 27.42,-15.42 10.84,18.28 17.4,27.42 19.71,27.42 3.42,0 7.42,-3.43 11.99,-10.28 4.57,-6.86 6.86,-12.29 6.86,-16.28 0,-13.72 -3.74,-26 -11.14,-36.845 -8.57,-12.578 -19.43,-18.851 -32.58,-18.851 -4,0 -9.41,1.421 -16.27,4.289 -6.85,2.843 -12.28,4.281 -16.28,4.281 -8.56,0 -15.71,-5.723 -21.43,-17.141 -14.28,-27.996 -22.27,-43.418 -23.98,-46.273 -11.43,-18.281 -22.56,-33.418 -33.42,-45.41 -6.86,-5.141 -13.99,-10.285 -21.43,-15.418 l 1.72,31.703" /><path
         id="path40"
         style="fill:#174140;fill-opacity:1;fill-rule:nonzero;stroke:none"
         d="m 4496.61,800.785 c -5.72,-11.426 -11.44,-23.137 -17.14,-35.137 -16.59,-27.976 -24.85,-50.257 -24.85,-66.832 l 13.71,-12.855 c 8.58,-8.57 12.85,-14.844 12.85,-18.848 0,-7.992 -2.28,-15.554 -6.85,-22.711 -4.59,-7.132 -10.59,-10.707 -17.99,-10.707 -13.71,0 -20.57,11.145 -20.57,33.418 0,13.145 7.7,38.555 23.13,76.258 16,39.996 28.55,59.121 37.71,57.414" /><path
         id="path42"
         style="fill:#174140;fill-opacity:1;fill-rule:nonzero;stroke:none"
         d="m 4398.29,868.027 c -20,-47.425 -44,-75.699 -71.99,-84.836 -7.99,-4.003 -17.99,-7.421 -29.98,-10.277 l -46.27,-11.996 c -2.87,-0.578 -6.58,-1.148 -11.13,-1.715 -4.59,-0.562 -7.17,-0.277 -7.72,0.86 -0.56,1.136 2.27,3.707 8.56,7.71 l 11.15,6.848 c 0.55,0.567 11.13,6.863 31.7,18.859 59.41,35.411 89.12,63.118 89.12,83.118 -5.72,-2.293 -13.44,-3.43 -23.14,-3.43 -25.71,3.984 -38.56,14.273 -38.56,30.844 0,12.554 6.27,30.273 18.85,53.133 14.28,25.125 26.84,37.699 37.7,37.699 12.01,0 22.42,-4.582 31.28,-13.711 8.85,-9.141 13.29,-19.707 13.29,-31.703 0.54,-4.004 0.86,-10.285 0.86,-18.852 0,-20.004 -4.59,-40.848 -13.72,-62.551" /><path
         id="path44"
         style="fill:#174140;fill-opacity:1;fill-rule:nonzero;stroke:none"
         d="m 4197.2,1081.39 c 1.13,2.27 3.71,6.56 7.72,12.85 0.54,1.14 1.99,2.85 4.27,5.14 1.72,-2.86 2.58,-5.14 2.58,-6.86 l -4.3,-29.13 -5.13,-47.99 -9.42,-76.255 c -4,-31.422 -10.86,-57.407 -20.56,-77.973 l -19.71,-41.129 c -12.01,-24.574 -21.43,-36.852 -28.28,-36.852 l -2.58,6 c 17.72,60.543 28.85,110.247 33.42,149.098 l 5.99,53.981 9.44,26.57 26.56,62.55" /><path
         id="path46"
         style="fill:#174140;fill-opacity:1;fill-rule:nonzero;stroke:none"
         d="m 4066.5,1045.38 c 10.84,-4.01 17.13,-6 18.84,-6 7.99,0 16.57,7.42 25.71,22.28 4.57,7.41 7.99,10.84 10.29,10.28 4.57,-1.15 4.84,-6.85 0.86,-17.14 -1.72,-5.14 -4,-10.57 -6.86,-16.28 -14.86,-32 -31.15,-47.985 -48.84,-47.985 v 54.845" /><path
         id="path48"
         style="fill:#174140;fill-opacity:1;fill-rule:nonzero;stroke:none"
         d="m 4142.51,629.867 c 0,-12.566 -3.71,-23.996 -11.13,-34.277 -12.58,-17.703 -23.14,-26.563 -31.7,-26.563 -0.59,0 -8.01,6.856 -22.28,20.567 -14.28,13.711 -21.43,21.125 -21.43,22.273 0,2.278 7.15,15.715 21.43,40.278 12.55,21.703 19.98,32.562 22.28,32.562 2.27,0 7.99,-4.289 17.13,-12.855 17.15,-16.575 25.7,-30.571 25.7,-41.985 z M 4097.1,521.906 c 0,-12.566 -3.71,-24.004 -11.13,-34.273 -12.58,-17.707 -23.14,-26.567 -31.7,-26.567 -0.59,0 -8.01,6.86 -22.28,20.571 -14.3,13.699 -21.43,21.133 -21.43,22.261 0,2.297 7.13,15.723 21.43,40.278 12.55,21.719 19.98,32.554 22.28,32.554 2.27,0 7.99,-4.277 17.13,-12.847 17.13,-16.567 25.7,-30.551 25.7,-41.977 z m -39.41,107.961 c 0,-12.566 -3.71,-23.996 -11.13,-34.277 -12.58,-17.703 -23.15,-26.563 -31.72,-26.563 -0.57,0 -7.99,6.856 -22.27,20.567 -14.3,13.711 -21.42,21.125 -21.42,22.273 0,2.278 7.12,15.715 21.42,40.278 12.56,21.703 19.98,32.562 22.27,32.562 2.28,0 8,-4.289 17.15,-12.855 17.12,-16.575 25.7,-30.571 25.7,-41.985" /><path
         id="path50"
         style="fill:#174140;fill-opacity:1;fill-rule:nonzero;stroke:none"
         d="m 4066.03,991.051 c -2.87,0 -7.01,1.558 -12.42,4.711 -5.45,3.133 -9.3,4.718 -11.59,4.718 -11.42,0 -27.71,-10.292 -48.82,-30.859 -7.44,-6.848 -11.72,-13.41 -12.86,-19.707 l -24,8.57 24.86,35.993 c 8.56,12.563 19.71,23.983 33.42,34.273 15.98,12 30.28,17.99 42.83,17.99 l 8.58,-0.85 c 2.85,-8.57 4.28,-17.14 4.28,-25.71 0,-11.99 -1.43,-21.715 -4.28,-29.129" /><path
         id="path52"
         style="fill:#174140;fill-opacity:1;fill-rule:nonzero;stroke:none"
         d="m 3960.4,595.855 c 1.7,-9.726 -1.72,-23.148 -10.29,-40.277 -10.27,-19.988 -20,-29.988 -29.14,-29.988 -6.29,5.144 -15.41,12.285 -27.4,21.418 -12.01,9.137 -18.01,15.43 -18.01,18.855 l 1.72,3.426 c 3.44,7.426 9.71,21.137 18.85,41.137 2.28,4.558 7.98,14.558 17.14,29.988 l 3.42,4.277 c 2.29,-2.289 6.29,-5.136 11.99,-8.562 10.86,-8.012 17.43,-13.715 19.71,-17.141 6.29,-8.008 10.29,-15.722 12.01,-23.133 z m -88.26,-5.136 c 1.72,-9.731 -1.72,-23.149 -10.29,-40.278 -10.27,-19.988 -20,-30 -29.12,-30 -6.31,5.149 -15.43,12.297 -27.42,21.426 -12.02,9.133 -18.01,15.434 -18.01,18.852 l 1.72,3.433 c 3.43,7.407 9.7,21.125 18.84,41.125 2.29,4.563 8.01,14.571 17.15,29.993 l 3.42,4.285 c 2.29,-2.285 6.29,-5.137 12.01,-8.575 10.84,-8 17.4,-13.71 19.71,-17.136 6.27,-8 10.27,-15.727 11.99,-23.125" /><path
         id="path54"
         style="fill:#174140;fill-opacity:1;fill-rule:nonzero;stroke:none"
         d="m 3956.65,958.105 37.72,11.149 c -9.14,-6.297 -13.71,-12.859 -13.71,-19.715 0,-8.008 2.85,-15.719 8.57,-23.141 13.69,-17.707 20.57,-27.988 20.57,-30.843 0,-8.571 -5.16,-18.571 -15.43,-29.985 -10.29,-11.433 -19.71,-17.136 -28.28,-17.136 -2.29,0 -10.59,4.132 -24.87,12.421 -14.27,8.274 -23.98,12.426 -29.12,12.426 -10.29,0 -26.56,-7.711 -48.84,-23.14 -10.86,-7.426 -27.13,-18.571 -48.83,-33.414 -49.14,-31.426 -114.26,-61.137 -195.37,-89.118 -99.98,-34.847 -196.8,-52.261 -290.49,-52.261 -53.13,0 -99.1,4.004 -137.95,11.992 v 100.254 c 47.42,-14.864 103.1,-22.281 167.09,-22.281 137.65,0 276.48,29.988 416.44,89.968 33.11,14.274 54.53,23.996 64.26,29.137 30.86,16.562 63.69,33.121 98.54,49.695 2.85,1.715 9.43,9.707 19.7,23.992" /><path
         id="path56"
         style="fill:#174140;fill-opacity:1;fill-rule:nonzero;stroke:none"
         d="m 3190.64,687.773 c -78.26,17.696 -117.38,64.829 -117.38,141.379 0,35.411 2.26,73.7 6.85,114.821 l 16.27,145.667 33.42,86.55 c 0.56,0 1.13,0.28 1.72,0.85 0,-13.7 -0.59,-26 -1.72,-36.84 l -14.57,-138.81 c -4.01,-38.281 -6,-70.843 -6,-97.691 0,-22.273 1.99,-39.136 6,-50.551 2.28,-6.293 6.56,-14.003 12.87,-23.132 13.12,-18.856 33.96,-32.864 62.54,-41.989 9.14,-14.863 13.71,-29.992 13.71,-45.418 0,-14.855 -4.57,-33.132 -13.71,-54.836" /><path
         id="path58"
         style="fill:#174140;fill-opacity:1;fill-rule:nonzero;stroke:none"
         d="m 2888.12,851.664 c 14.14,30.856 25.08,55.59 32.77,74.254 14.14,33.41 21.23,55.918 21.23,67.492 0,7.06 -6.11,23.77 -18.34,50.14 -10.9,18.64 -16.05,29.24 -15.41,31.82 12.85,41.77 23.77,72.64 32.78,92.57 13.51,-3.86 24.74,-18.01 33.75,-42.43 7.71,-19.93 11.58,-38.57 11.58,-55.92 0,-23.14 -7.72,-55.3 -23.15,-96.434 -7.71,-20.578 -20.25,-52.074 -37.61,-94.496 0,-7.086 9,-15.105 27.01,-24.105 16.7,-11.575 25.06,-29.258 25.06,-53.035 0,-45.653 -12.7,-93.688 -38.09,-144.157 -25.37,-50.457 -56.41,-88.226 -93.05,-113.304 -26.99,-18.633 -57.2,-27.961 -90.64,-27.961 -40.51,0 -71.35,14.465 -92.56,43.386 -19.3,25.723 -28.94,59.473 -28.94,101.25 0,38.579 11.58,86.141 34.72,142.715 2.58,5.781 10.29,23.457 23.15,53.035 1.29,3.204 8.36,17.668 21.21,43.395 15.43,31.488 24.74,46.918 27.97,46.277 3.22,-0.64 4.18,-4.179 2.89,-10.609 -1.94,-9.004 -3.87,-15.758 -5.8,-20.238 l -46.27,-108 c -14.79,-34.723 -22.19,-63.645 -22.19,-86.782 0,-66.855 34.73,-100.289 104.14,-100.289 38.57,0 74.9,9.981 108.96,29.899 40.49,23.789 60.75,53.359 60.75,88.711 0,1.289 -11.41,8.988 -34.22,23.144 -22.81,14.125 -34.24,27.313 -34.24,39.528 0,14.777 4.18,31.492 12.54,50.144" /><path
         id="path60"
         style="fill:#174140;fill-opacity:1;fill-rule:nonzero;stroke:none"
         d="m 2473.85,915.648 v -14.457 c 0,-36.847 11.91,-55.269 35.71,-55.269 5.1,13.035 11.33,28.066 18.71,45.062 14.16,-2.836 22.09,-13.043 23.81,-30.605 0,-20.977 -4.55,-41.387 -13.61,-61.215 -12.48,-26.648 -29.2,-39.961 -50.17,-39.961 -11.9,0 -22.66,5.813 -32.31,17.434 -9.63,11.609 -15,23.511 -16.15,35.703 -1.14,12.191 -1.7,19.133 -1.7,20.84 v 16.148 l 35.71,66.32" /><path
         id="path62"
         style="fill:#174140;fill-opacity:1;fill-rule:nonzero;stroke:none"
         d="m 2473.69,915.648 c -12.47,-44.214 -24.38,-66.32 -35.71,-66.32 0,39.113 8.2,108.824 24.66,209.152 3.95,15.31 15.3,42.8 34.01,82.48 l 3.4,1.7 c 0.56,-1.7 0.28,-6.25 -0.86,-13.61 l -3.4,-22.1 -14.45,-103.73 c -5.1,-36.849 -7.65,-66.032 -7.65,-87.572" /><path
         id="path64"
         style="fill:#174140;fill-opacity:1;fill-rule:nonzero;stroke:none"
         d="m 2340.85,963.234 c -20.52,-29.324 -30.78,-54.523 -30.78,-75.632 0,-21.696 4.7,-32.539 14.06,-32.539 2.93,0 7.04,6.734 12.32,20.222 2.33,6.453 4.09,9.969 5.28,10.563 6.45,0 11.72,-3.957 15.82,-11.879 4.1,-7.91 6.16,-15.391 6.16,-22.426 0,-19.934 -6.16,-39.574 -18.46,-58.922 -13.5,-22.285 -29.6,-33.418 -48.37,-33.418 -12.32,0 -22.28,5.563 -29.9,16.707 -7.62,11.129 -11.44,23.16 -11.44,36.059 0,39.281 24.05,90.871 72.11,154.785 -30.47,12.312 -45.72,35.466 -45.72,69.476 0,31.66 12.31,79.73 36.93,144.23 17.59,46.3 29.6,69.47 36.06,69.47 0,-4.7 0.29,-9.09 0.88,-13.19 -9.39,-31.08 -17.3,-60.68 -23.75,-88.82 -2.35,-10.56 -3.52,-21.11 -3.52,-31.66 0,-13.5 2.34,-24.05 7.05,-31.66 4.69,-9.39 13.48,-15.55 26.38,-18.47 2.92,-1.18 6.72,-1.76 11.43,-1.76 h 9.67 c 2.93,0 4.39,-1.76 4.39,-5.28 0,-19.34 -15.53,-51.3 -46.6,-95.856" /><path
         id="path66"
         style="fill:#174140;fill-opacity:1;fill-rule:nonzero;stroke:none"
         d="m 2062.46,846.387 c 0.61,-2.442 0.92,-5.793 0.92,-10.039 0,-10.961 -3.65,-21.621 -10.95,-31.969 -14.62,-20.703 -25.28,-31.66 -31.97,-32.871 -1.23,0 -3.96,1.508 -8.22,4.566 -14.01,9.731 -21.31,15.207 -21.91,16.434 -9.14,6.082 -14.31,9.137 -15.53,9.137 -6.09,4.253 -9.44,8.515 -10.05,12.785 l 21.01,47.484 c 6.69,11.559 12.47,21 17.35,28.305 l 5.48,8.219 c 4.26,-1.829 10.64,-5.176 19.17,-10.051 10.35,-7.91 17.66,-14.008 21.92,-18.254 7.91,-7.918 12.18,-15.836 12.78,-23.746 z m 116.9,-47.489 c -5.48,-24.359 -10.05,-42 -13.7,-52.96 -29.83,-91.321 -79.15,-155.836 -147.94,-193.598 -26.79,-14.61 -57.23,-21.914 -91.32,-21.914 -37.75,0 -66.97,11.726 -87.66,35.152 -20.7,23.449 -31.05,54.336 -31.05,92.692 0,60.269 25.87,134.839 77.63,223.738 6.07,10.34 10.64,15.203 13.69,14.601 1.21,-0.613 1.51,-3.964 0.91,-10.043 -1.23,-6.089 -2.44,-11.269 -3.65,-15.527 l -30.13,-65.742 c -14.61,-31.66 -21.92,-59.059 -21.92,-82.188 0,-63.925 35.3,-95.879 105.93,-95.879 75.48,0 135.15,34.09 178.98,102.278 14,21.297 21.31,45.949 21.92,73.957 l 1.82,65.754 c 0.6,18.265 5.78,39.863 15.53,64.832 l 18.26,35.621 c 4.86,9.726 8.82,16.113 11.88,19.172 3.03,-3.059 4.25,-7.004 3.65,-11.871 l -4.57,-31.965 -4.57,-45.653 c 0,-26.796 -4.56,-60.269 -13.69,-100.457" /><path
         id="path68"
         style="fill:#174140;fill-opacity:1;fill-rule:nonzero;stroke:none"
         d="m 2934.29,1240.72 -11.13,-5.15 -30,-14.56 c -21.72,-10.86 -39.42,-22.28 -53.13,-34.28 l -8.57,-7.71 -6,8.57 c 14.28,13.13 26.27,23.42 36,30.85 -3.44,3.43 -6,5.7 -7.72,6.85 -5.72,5.15 -8.57,8.27 -8.57,9.42 0,8.58 7.85,20.7 23.57,36.43 15.71,15.7 28.13,23.56 37.27,23.56 11.99,0 17.99,-5.14 17.99,-15.43 0,-7.43 -3.13,-11.14 -9.42,-11.14 l -5.13,4.29 c -3.44,2.85 -6.86,4.28 -10.3,4.28 -4.57,0 -9.29,-1.58 -14.14,-4.71 -4.86,-3.14 -7.28,-6.72 -7.28,-10.7 0,-12 10.86,-18 32.58,-18 6.27,0 15.97,2.85 29.12,8.57 -1.72,-4 -3.42,-7.72 -5.14,-11.14" /></g></g></svg>