<?xml version="1.0" encoding="UTF-8" standalone="no"?>
<!-- Created with Inkscape (http://www.inkscape.org/) -->

<svg
   version="1.1"
   id="svg2"
   width="380"
   height="298.66666"
   viewBox="0 0 380 298.66666"
   sodipodi:docname="Naftair-logo.eps"
   xmlns:inkscape="http://www.inkscape.org/namespaces/inkscape"
   xmlns:sodipodi="http://sodipodi.sourceforge.net/DTD/sodipodi-0.dtd"
   xmlns="http://www.w3.org/2000/svg"
   xmlns:svg="http://www.w3.org/2000/svg">
  <defs
     id="defs6" />
  <sodipodi:namedview
     id="namedview4"
     pagecolor="#ffffff"
     bordercolor="#000000"
     borderopacity="0.25"
     inkscape:showpageshadow="2"
     inkscape:pageopacity="0.0"
     inkscape:pagecheckerboard="0"
     inkscape:deskcolor="#d1d1d1" />
  <g
     id="g8"
     inkscape:groupmode="layer"
     inkscape:label="ink_ext_XXXXXX"
     transform="matrix(1.3333333,0,0,-1.3333333,0,298.66667)">
    <g
       id="g10"
       transform="scale(0.1)">
      <path
         d="m 1661.69,1195.19 c 1.8,18.69 9.74,37.08 23.44,51.51 3.85,-21.11 11.87,-41.84 25.1,-59.84 13.33,-18.09 29.64,-34.35 47.06,-49.45 8.56,-8.61 15.34,-18.62 19.84,-29.36 4.28,-10.54 6.04,-22.4 1.91,-33.19 -4.21,-11.13 -12.98,-20.45 -22.99,-27.96 -1.6,-1.06 -3.17,-2.67 -5.38,-2.43 -48.95,0.04 -97.91,-0.02 -146.87,0.04 -1.16,-0.15 -1.65,1.02 -2.33,1.61 -12.03,14.92 -18.05,33.48 -17.03,51.76 1.02,19.78 9.24,39.38 23.68,54.6 1.29,-9.22 3.08,-18.51 7.14,-27.12 3.56,-7.18 9.34,-13.59 16.7,-18 -4.94,14.12 -8.18,28.96 -6.67,43.79 1.94,16.41 9.23,32.09 19.37,45.86 1.89,2.54 3.91,5.03 6.13,7.36 -3.13,-13.28 -5.35,-27.12 -2.35,-40.59 2.79,-12.15 12.5,-22.26 23.88,-29.1 -8.49,19.15 -12.6,39.96 -10.63,60.51"
         style="fill:#9a0d03;fill-opacity:1;fill-rule:nonzero;stroke:none"
         id="path12" />
      <path
         d="m 1587.41,1032.55 c 14.19,0.36 28.4,0.06 42.6,0.16 45.74,-0.01 91.49,0.01 137.22,-0.01 3.5,0.07 7.04,-1.26 9.2,-3.72 2.18,-2.49 2.82,-5.74 2.86,-8.82 0.11,-6.52 -6.61,-11.89 -13.56,-12.77 -58.21,-0.02 -116.43,-0.02 -174.64,0 -6.68,0.88 -13.2,5.83 -13.54,12.07 -0.61,5.63 2.83,12.37 9.86,13.09"
         style="fill:#091f48;fill-opacity:1;fill-rule:nonzero;stroke:none"
         id="path14" />
      <path
         d="m 1606.73,986.859 c 4.03,2.403 9.12,2.067 13.75,1.989 38.62,-0.012 77.23,-0.012 115.85,0 4.64,0.062 9.73,0.429 13.78,-1.989 3.66,-2.113 4.64,-6.461 3.64,-10.023 -1.51,-5.742 -6.66,-10.156 -12.31,-12.984 -10.89,-5.344 -20.66,-12.442 -28.78,-20.782 -7.45,-7.777 -13.1,-16.718 -18.5,-25.668 -5.05,-8.574 -9.61,-17.375 -13.77,-26.308 -0.91,-1.848 -1.33,-3.832 -2,-5.754 -0.65,2.109 -1.17,4.246 -2.17,6.238 -6.83,14.422 -14.45,28.621 -23.99,41.817 -9.19,12.855 -22.34,23.355 -37.35,30.722 -5.44,2.813 -10.33,7.168 -11.81,12.727 -0.97,3.554 -0.03,7.918 3.66,10.015"
         style="fill:#091f48;fill-opacity:1;fill-rule:nonzero;stroke:none"
         id="path16" />
      <path
         d="m 1529.05,956.535 c 31.52,3.926 65.19,-1.898 91.31,-18.351 13.14,-8.262 23.25,-19.715 31.27,-31.95 9.63,-14.839 16.68,-30.925 21.46,-47.48 3.54,0.012 7.1,0.012 10.65,0 3.67,12.887 8.87,25.445 15.41,37.418 6.95,12.539 15.56,24.551 26.92,34.344 17,14.394 39.66,22.867 62.79,25.89 18.41,2.305 37.55,1.848 55.32,-3.297 26.19,-7.511 49.29,-23.629 62.8,-44.882 9.41,-14.961 14.88,-31.793 16.46,-48.817 -14.06,-3.277 -27.35,-10.551 -35.19,-21.555 -7.27,-9.968 -9.27,-22.273 -7.92,-33.906 0.94,-9.383 5.22,-18.746 13.21,-25.183 9.77,-7.953 23.35,-11.231 36.39,-11.551 3.21,-0.008 7.11,0.254 9.24,2.66 0.45,1.805 -0.81,4.16 -3.01,4.461 -14.25,0.363 -29.12,4.512 -39.1,13.832 -8.13,7.699 -11.06,18.742 -10.12,29.02 0.92,9.429 6.63,18.125 14.65,24.269 10.22,7.766 23.42,12.981 37.07,12.707 11.58,0.129 22.99,-3.766 31.88,-10.238 10.95,-7.985 19.17,-18.969 22.71,-31.145 3.69,-12.535 2.99,-25.843 -0.49,-38.347 -1.17,-3.907 -2.3,-7.903 -4.63,-11.418 -6.36,-9.844 -15.33,-18.477 -26.32,-24.407 -11.11,-6.062 -24.45,-8.632 -37.43,-7.742 -21.03,1.391 -40.5,11.434 -54.11,25.371 -9.18,-5.027 -18.75,-9.586 -28.9,-12.894 -9.22,-3.028 -19.1,-4.258 -28.9,-4.203 -3.54,-0.153 -6.73,1.757 -10.29,1.371 -6.53,-0.453 -12.72,-3.438 -17.28,-7.5 -4.37,-4.735 -1.14,-11.024 1.73,-15.649 -8.92,2.27 -16.95,7.496 -21.46,14.719 -7.56,12.219 -5.96,28.32 4.13,39.082 -4.71,13 -6.52,27.438 -1.53,40.59 3.35,8.914 10.79,16.332 19.95,20.976 12.1,6.168 26.1,8.848 39.95,9.508 -7.71,-2.5 -15.14,-6.582 -19.44,-12.933 -3.86,-5.703 -5.73,-13.141 -2.32,-19.364 3.34,-5.914 9.78,-10.082 16.6,-12.515 8.66,-2.117 18.23,-1.082 26.24,2.449 7.08,2.98 12.64,8.207 16.51,14.16 7.58,11.449 9.54,25.063 9.26,38.117 -0.41,12.688 -4.53,25.629 -13.84,35.52 -10.08,11.398 -24.69,19.652 -40.72,22.695 -10.29,1.703 -20.96,2.559 -31.28,0.633 -11.31,-1.824 -21.97,-6.855 -29.67,-14.422 -8.1,-7.941 -13.58,-17.648 -17.97,-27.527 -4.4,-10.047 -7.64,-20.485 -9.92,-31.071 -0.59,-1.265 0.67,-2.195 1.52,-3.054 8.89,-8.516 14.95,-19.278 17.47,-30.633 2.73,-12.449 1.2,-25.617 -4.46,-37.273 -6.6,-13.688 -18.8,-25.204 -33.86,-31.903 -23.91,-10.957 -54.72,-8.633 -76.1,5.867 -13.42,8.832 -23.18,21.903 -27.01,36.293 -5.69,20.407 1.08,43.047 17.47,58.289 -2.73,14.051 -7.24,27.887 -13.89,40.891 -5.21,9.856 -11.9,19.531 -21.92,26.129 -11.27,7.41 -25.78,10.156 -39.65,9.406 -8.18,-0.625 -16.43,-1.617 -24.09,-4.344 -15.5,-5.289 -28.78,-15.539 -36.78,-28.39 -7.59,-12.797 -8.71,-27.836 -6.66,-41.957 1.37,-10.27 5.25,-20.512 12.61,-28.684 8.84,-9.969 24.72,-14.554 38.53,-11.187 6.82,2.445 13.28,6.574 16.6,12.504 3.29,5.886 1.68,12.933 -1.7,18.492 -4.24,6.781 -11.95,11.25 -20.05,13.804 14.96,-0.707 30.24,-3.761 42.88,-11.132 9.26,-5.391 16.02,-13.946 18.4,-23.516 3.17,-12.078 1.32,-24.777 -2.91,-36.473 12.61,-13.199 11.89,-35.23 -3,-46.839 -4.09,-3.235 -9.04,-5.547 -14.31,-6.891 2.13,3.762 4.72,7.871 3.59,12.242 -0.78,3.535 -4.42,5.602 -7.62,7.391 -4.73,2.57 -10.55,4.406 -16.1,3.054 -4.89,-1.546 -10.17,-0.82 -15.22,-0.546 -17.57,1.273 -33.51,8.753 -48.29,16.726 -8.87,-9.109 -20.16,-16.426 -32.78,-20.953 -14.62,-5.211 -31.36,-6.211 -46.39,-1.781 -17.52,5.246 -31.69,17.449 -40.06,31.82 -4.32,9.773 -6.28,20.352 -6.21,30.832 0.05,12.473 4,25.09 12.21,35.332 7.16,9.102 17.07,16.84 29.11,20.418 12.43,3.707 26.5,2.84 38.32,-2.18 10.64,-4.402 20.35,-11.425 25.49,-20.933 5.21,-9.574 4.8,-20.988 0.55,-30.774 -3.44,-7.738 -10.49,-13.898 -18.79,-17.664 -8.22,-3.718 -17.42,-5.832 -26.66,-5.965 -3.03,0.223 -5.39,-4.171 -2.45,-5.636 4.33,-2.274 9.63,-1.528 14.4,-1.145 13.03,1.313 26.41,6.067 34.49,15.559 7.53,8.613 9.52,19.914 8.98,30.527 -0.43,11.293 -5.17,22.61 -14.1,30.82 -7.84,7.368 -18.28,12.321 -29.3,14.86 1.4,15.344 6.04,30.504 13.76,44.32 15.52,27.887 47.19,48.09 81.91,52.832 z m 146.5,-141.875 v 0 c -10.3,-1.168 -19.29,-8.332 -21.61,-17.273 -3.04,-10.289 3.4,-21.848 14.45,-26.071 10.74,-4.527 24.69,-1.285 31.52,7.305 7.36,8.496 6.41,21.484 -2.06,29.109 -5.59,5.321 -14.17,7.938 -22.3,6.93"
         style="fill:#091f48;fill-opacity:1;fill-rule:nonzero;stroke:none"
         id="path18" />
      <path
         d="m 2700.74,56.457 28.82,4.5391 c 1.61,-11.5664 6.14,-20.418 13.56,-26.6172 7.36,-6.1367 17.7,-9.2344 31.04,-9.2344 13.39,0 23.34,2.7657 29.82,8.1875 6.47,5.4766 9.73,11.8946 9.73,19.1953 0,6.6407 -2.87,11.7852 -8.62,15.6016 -3.99,2.6016 -13.95,5.8672 -29.82,9.8477 -21.36,5.4218 -36.25,10.0742 -44.49,14.0547 -8.24,3.9296 -14.55,9.4067 -18.81,16.3747 -4.26,6.973 -6.42,14.664 -6.42,23.071 0,7.691 1.77,14.777 5.31,21.3 3.49,6.59 8.3,12.008 14.33,16.325 4.54,3.316 10.74,6.195 18.54,8.519 7.85,2.324 16.26,3.488 25.22,3.488 13.51,0 25.35,-1.996 35.58,-5.867 10.24,-3.871 17.76,-9.125 22.63,-15.769 4.87,-6.696 8.19,-15.543 10.01,-26.668 l -28.49,-3.926 c -1.33,8.851 -5.09,15.769 -11.29,20.746 -6.19,4.98 -14.99,7.469 -26.33,7.469 -13.39,0 -22.96,-2.211 -28.66,-6.637 -5.76,-4.43 -8.63,-9.629 -8.63,-15.547 0,-3.816 1.22,-7.191 3.59,-10.234 2.38,-3.156 6.09,-5.699 11.18,-7.801 2.93,-1.051 11.51,-3.543 25.78,-7.414 20.64,-5.535 35.02,-10.0157 43.16,-13.5587 8.19,-3.4843 14.6,-8.6289 19.25,-15.3242 4.65,-6.6953 6.97,-14.9922 6.97,-24.9531 0,-9.7344 -2.88,-18.8633 -8.52,-27.4961 -5.7,-8.5742 -13.89,-15.2148 -24.56,-19.91796 -10.68,-4.69922 -22.8,-7.02735 -36.3,-7.02735 -22.41,0 -39.44,4.64844 -51.18,13.94531 -11.72,9.293 -19.19,23.0703 -22.4,41.3281 z m -150.93,51.234 h 96.1 c -1.27,14.438 -4.98,25.336 -11.01,32.532 -9.3,11.23 -21.36,16.871 -36.13,16.871 -13.39,0 -24.67,-4.481 -33.8,-13.442 -9.13,-8.964 -14.17,-20.968 -15.16,-35.961 z m 95.77,-47.1949 30.15,-3.707 c -4.75,-17.6485 -13.55,-31.3164 -26.39,-41.0508 -12.89,-9.68361 -29.32,-14.55471 -49.3,-14.55471 -25.17,0 -45.15,7.7461 -59.86,23.23831 -14.77,15.4922 -22.13,37.2383 -22.13,65.2304 0,28.9927 7.47,51.4527 22.35,67.4417 14.94,15.992 34.25,24.015 58.04,24.015 23.02,0 41.83,-7.855 56.38,-23.515 14.61,-15.656 21.91,-37.735 21.91,-66.1135 0,-1.7735 -0.06,-4.3711 -0.17,-7.8008 H 2548.2 c 1.05,-18.9219 6.42,-33.418 16.05,-43.4336 9.63,-10.0703 21.57,-15.1016 35.96,-15.1016 10.68,0 19.81,2.8203 27.39,8.461 7.58,5.5898 13.55,14.5508 17.98,26.8906 z M 2343.16,5.05859 V 177.18 h 26.23 v -24.457 c 12.66,18.922 30.93,28.386 54.77,28.386 10.4,0 19.92,-1.882 28.6,-5.589 8.75,-3.762 15.22,-8.629 19.54,-14.715 4.36,-6.032 7.35,-13.227 9.13,-21.524 1.05,-5.422 1.6,-14.883 1.6,-28.383 V 5.05859 h -29.21 V 109.789 c 0,11.844 -1.11,20.75 -3.38,26.672 -2.27,5.863 -6.3,10.566 -12.06,14.051 -5.81,3.539 -12.56,5.312 -20.36,5.312 -12.45,0 -23.13,-3.984 -32.2,-11.84 -9.02,-7.914 -13.5,-22.851 -13.5,-44.9254 V 5.05859 Z m -73.64,0 V 177.18 h 29.22 V 5.05859 Z m 0,204.04341 v 33.582 h 29.22 V 209.102 Z M 2195,5.05859 V 242.684 h 29.16 V 5.05859 Z m -110.21,0 V 177.18 h 26.22 v -26.059 c 6.7,12.172 12.9,20.25 18.59,24.121 5.65,3.871 11.9,5.867 18.7,5.867 9.85,0 19.81,-3.156 29.99,-9.406 l -10.07,-27.113 c -7.08,4.262 -14.22,6.363 -21.35,6.363 -6.42,0 -12.12,-1.937 -17.21,-5.754 -5.09,-3.875 -8.69,-9.183 -10.85,-15.988 -3.26,-10.348 -4.86,-21.688 -4.86,-34.0235 V 5.05859 Z m -73.31,0 V 177.18 h 29.22 V 5.05859 Z m 0,204.04341 v 33.582 h 29.22 v -33.582 z m -175.39,-106.45 h 80.62 l -24.85,65.786 c -7.52,19.972 -13.16,36.406 -16.81,49.296 -3.05,-15.269 -7.31,-30.375 -12.84,-45.421 z M 1767.55,5.05859 1858.84,242.684 h 33.86 L 1989.96,5.05859 h -35.85 l -27.72,71.98051 h -99.37 L 1800.96,5.05859 Z m -80.06,26.11721 4.21,-25.78517 c -8.19,-1.71485 -15.55,-2.59766 -22.02,-2.59766 -10.63,0 -18.82,1.65625 -24.68,5.03125 -5.81,3.32028 -9.9,7.74608 -12.28,13.22658 -2.38,5.418 -3.6,16.9258 -3.6,34.4101 v 99.0351 h -21.41 v 22.684 h 21.41 v 42.656 l 29.05,17.484 v -60.14 h 29.32 v -22.684 h -29.32 V 53.8594 c 0,-8.3594 0.49,-13.668 1.49,-16.0508 1.05,-2.375 2.71,-4.2539 5.04,-5.6953 2.32,-1.3828 5.64,-2.1055 9.95,-2.1055 3.27,0 7.53,0.3906 12.84,1.168 z M 1538.5,5.05859 V 154.496 h -25.73 v 22.684 h 25.73 v 18.312 c 0,11.563 1.05,20.196 3.09,25.781 2.83,7.582 7.75,13.719 14.83,18.422 7.09,4.703 16.99,7.028 29.77,7.028 8.19,0 17.26,-0.938 27.22,-2.934 l -4.37,-25.449 c -6.03,1.109 -11.79,1.66 -17.21,1.66 -8.85,0 -15.1,-1.879 -18.75,-5.699 -3.71,-3.762 -5.53,-10.844 -5.53,-21.242 V 177.18 h 33.52 v -22.684 h -33.52 V 5.05859 Z m -81.66,86.42191 c -10.63,-4.3711 -26.5,-8.0235 -47.64,-11.0664 -12.01,-1.7149 -20.52,-3.6524 -25.45,-5.8086 -4.98,-2.1602 -8.85,-5.3125 -11.51,-9.5157 -2.71,-4.1523 -4.1,-8.7421 -4.1,-13.8359 0,-7.7969 2.99,-14.2695 8.86,-19.4726 5.86,-5.1446 14.5,-7.7461 25.84,-7.7461 11.23,0 21.24,2.4336 29.98,7.3593 8.75,4.9258 15.22,11.6758 19.31,20.1914 3.16,6.586 4.71,16.3243 4.71,29.1602 z m 2.43,-65.1758 c -10.84,-9.1836 -21.24,-15.6602 -31.2,-19.47267 -10.02,-3.76562 -20.75,-5.64844 -32.2,-5.64844 -18.92,0 -33.42,4.59375 -43.6,13.83201 -10.13,9.2383 -15.22,21.0821 -15.22,35.4102 0,8.4648 1.88,16.1562 5.76,23.125 3.82,6.9726 8.85,12.5625 15.05,16.7656 6.25,4.207 13.22,7.4141 21.02,9.5703 5.7,1.4923 14.33,2.9923 25.89,4.3713 23.57,2.824 40.94,6.14 52.07,10.07 0.11,3.985 0.16,6.527 0.16,7.582 0,11.895 -2.77,20.305 -8.3,25.117 -7.41,6.637 -18.53,9.903 -33.19,9.903 -13.72,0 -23.85,-2.379 -30.43,-7.192 -6.53,-4.816 -11.35,-13.336 -14.5,-25.562 l -28.49,3.929 c 2.6,12.172 6.86,22.075 12.78,29.543 5.92,7.528 14.55,13.332 25.78,17.375 11.23,4.04 24.23,6.086 39.06,6.086 14.72,0 26.61,-1.773 35.8,-5.203 9.18,-3.488 15.93,-7.801 20.3,-13.058 4.32,-5.254 7.31,-11.84 9.08,-19.86 0.94,-4.98 1.43,-13.945 1.43,-26.89 V 77.2031 c 0,-27.164 0.61,-44.3164 1.89,-51.4531 1.21,-7.1914 3.7,-14.1094 7.36,-20.69141 h -30.49 c -2.99,6.03121 -4.98,13.11331 -5.81,21.24611 z M 1110.6,5.05859 V 242.684 h 32.26 L 1267.67,56.125 v 186.559 h 30.16 V 5.05859 h -32.26 L 1140.76,191.785 V 5.05859 Z m -280.225,0 V 177.18 h 26.227 v -24.457 c 12.668,18.922 30.925,28.386 54.773,28.386 10.398,0 19.914,-1.882 28.602,-5.589 8.742,-3.762 15.211,-8.629 19.531,-14.715 4.371,-6.032 7.355,-13.227 9.129,-21.524 1.047,-5.422 1.601,-14.883 1.601,-28.383 V 5.05859 H 941.027 V 109.789 c 0,11.844 -1.105,20.75 -3.375,26.672 -2.269,5.863 -6.308,10.566 -12.058,14.051 -5.813,3.539 -12.563,5.312 -20.364,5.312 -12.449,0 -23.128,-3.984 -32.199,-11.84 -9.019,-7.914 -13.5,-22.851 -13.5,-44.9254 V 5.05859 Z M 755.629,91.4805 c -10.625,-4.3711 -26.504,-8.0235 -47.637,-11.0664 -12.008,-1.7149 -20.523,-3.6524 -25.449,-5.8086 -4.98,-2.1602 -8.852,-5.3125 -11.512,-9.5157 -2.707,-4.1523 -4.09,-8.7421 -4.09,-13.8359 0,-7.7969 2.985,-14.2695 8.852,-19.4726 5.863,-5.1446 14.496,-7.7461 25.836,-7.7461 11.23,0 21.246,2.4336 29.984,7.3593 8.746,4.9258 15.219,11.6758 19.313,20.1914 3.152,6.586 4.703,16.3243 4.703,29.1602 z m 2.434,-65.1758 C 747.219,17.1211 736.816,10.6445 726.859,6.83203 716.844,3.06641 706.113,1.18359 694.66,1.18359 c -18.922,0 -33.418,4.59375 -43.601,13.83201 -10.121,9.2383 -15.211,21.0821 -15.211,35.4102 0,8.4648 1.882,16.1562 5.754,23.125 3.816,6.9726 8.851,12.5625 15.046,16.7656 6.254,4.207 13.227,7.4141 21.028,9.5703 5.695,1.4923 14.328,2.9923 25.89,4.3713 23.571,2.824 40.942,6.14 52.063,10.07 0.113,3.985 0.164,6.527 0.164,7.582 0,11.895 -2.766,20.305 -8.297,25.117 -7.414,6.637 -18.535,9.903 -33.195,9.903 -13.723,0 -23.848,-2.379 -30.43,-7.192 -6.527,-4.816 -11.344,-13.336 -14.496,-25.562 l -28.496,3.929 c 2.605,12.172 6.863,22.075 12.781,29.543 5.922,7.528 14.551,13.332 25.781,17.375 11.235,4.04 24.235,6.086 39.063,6.086 14.719,0 26.613,-1.773 35.797,-5.203 9.183,-3.488 15.933,-7.801 20.304,-13.058 4.313,-5.254 7.305,-11.84 9.075,-19.86 0.941,-4.98 1.437,-13.945 1.437,-26.89 V 77.2031 c 0,-27.164 0.61,-44.3164 1.883,-51.4531 1.215,-7.1914 3.703,-14.1094 7.355,-20.69141 h -30.484 c -2.988,6.03121 -4.976,13.11331 -5.808,21.24611 z M 572.113,5.05859 V 177.18 h 29.211 V 5.05859 Z m 0,204.04341 v 33.582 h 29.211 V 209.102 Z M 387.375,5.05859 V 177.18 h 26.223 v -24.457 c 12.672,18.922 30.929,28.386 54.773,28.386 10.402,0 19.918,-1.882 28.606,-5.589 8.742,-3.762 15.214,-8.629 19.531,-14.715 4.367,-6.032 7.359,-13.227 9.129,-21.524 1.051,-5.422 1.601,-14.883 1.601,-28.383 V 5.05859 H 498.027 V 109.789 c 0,11.844 -1.105,20.75 -3.375,26.672 -2.265,5.863 -6.308,10.566 -12.062,14.051 -5.809,3.539 -12.555,5.312 -20.356,5.312 -12.453,0 -23.129,-3.984 -32.203,-11.84 -9.015,-7.914 -13.5,-22.851 -13.5,-44.9254 V 5.05859 Z M 312.629,91.4805 c -10.621,-4.3711 -26.5,-8.0235 -47.637,-11.0664 -12.004,-1.7149 -20.523,-3.6524 -25.449,-5.8086 -4.98,-2.1602 -8.852,-5.3125 -11.508,-9.5157 -2.711,-4.1523 -4.094,-8.7421 -4.094,-13.8359 0,-7.7969 2.989,-14.2695 8.852,-19.4726 5.867,-5.1446 14.496,-7.7461 25.84,-7.7461 11.23,0 21.246,2.4336 29.984,7.3593 8.742,4.9258 15.215,11.6758 19.309,20.1914 3.156,6.586 4.703,16.3243 4.703,29.1602 z m 2.434,-65.1758 C 304.223,17.1211 293.816,10.6445 283.859,6.83203 273.844,3.06641 263.113,1.18359 251.66,1.18359 c -18.922,0 -33.418,4.59375 -43.597,13.83201 -10.125,9.2383 -15.215,21.0821 -15.215,35.4102 0,8.4648 1.882,16.1562 5.75,23.125 3.824,6.9726 8.855,12.5625 15.05,16.7656 6.254,4.207 13.223,7.4141 21.028,9.5703 5.699,1.4923 14.328,2.9923 25.89,4.3713 23.571,2.824 40.942,6.14 52.063,10.07 0.109,3.985 0.168,6.527 0.168,7.582 0,11.895 -2.766,20.305 -8.301,25.117 -7.414,6.637 -18.535,9.903 -33.195,9.903 -13.723,0 -23.848,-2.379 -30.43,-7.192 -6.531,-4.816 -11.344,-13.336 -14.496,-25.562 l -28.492,3.929 c 2.597,12.172 6.859,22.075 12.781,29.543 5.918,7.528 14.551,13.332 25.781,17.375 11.231,4.04 24.235,6.086 39.059,6.086 14.719,0 26.613,-1.773 35.797,-5.203 9.187,-3.488 15.933,-7.801 20.304,-13.058 4.317,-5.254 7.305,-11.84 9.071,-19.86 0.941,-4.98 1.441,-13.945 1.441,-26.89 V 77.2031 c 0,-27.164 0.61,-44.3164 1.883,-51.4531 1.215,-7.1914 3.703,-14.1094 7.359,-20.69141 h -30.488 c -2.988,6.03121 -4.976,13.11331 -5.808,21.24611 z M 91.8789,5.05859 V 177.18 h 26.2231 v -26.059 c 6.695,12.172 12.89,20.25 18.593,24.121 5.641,3.871 11.891,5.867 18.7,5.867 9.847,0 19.804,-3.156 29.984,-9.406 l -10.07,-27.113 c -7.082,4.262 -14.219,6.363 -21.356,6.363 -6.418,0 -12.113,-1.937 -17.207,-5.754 -5.09,-3.875 -8.683,-9.183 -10.84,-15.988 -3.265,-10.348 -4.871,-21.688 -4.871,-34.0235 V 5.05859 Z m -82.82421,0 V 242.684 H 40.4805 V 5.05859 H 9.05469"
         style="fill:#091f48;fill-opacity:1;fill-rule:evenodd;stroke:none"
         id="path20" />
      <path
         d="m 2128.87,429.352 c -332.48,-9.512 -546.98,66.738 -710.12,180.222 -196.8,136.91 -337.9,345.992 -323.23,604.726 14.45,254.79 65.52,353.31 92.74,423.93 27.31,70.85 -42.41,119.86 -99.36,124.65 -77.14,6.48 -140.494,36.58 -145.142,105.69 -4.469,66.34 61.722,75.98 75.582,167.4 6.34,41.78 -7,77.64 -26.492,95.75 8.852,56.18 6.07,94.07 -13.246,105.99 -30.395,-20.78 -50.762,-53.01 -60.536,-96.93 -92.347,-39.79 -86.152,-131.82 -79.785,-184.59 -89.426,-129.17 -131.785,-237.67 -153.605,-372.42 -24.86,-153.54 18.91,-404.86 116.293,-591.965 13.922,-26.758 27.426,-10.168 23.183,8.425 -19.664,86.17 -56.785,187.61 -48.8,296.87 2.726,37.28 26.449,25.9 31.316,-3.9 49.082,-300.47 154.648,-479.954 267.692,-633.809 21.55,-29.336 59.05,-44.645 36.72,-8.133 -80.1,130.965 -128.267,277.89 -162.287,433.872 -12.734,58.39 15.629,75.97 36.687,17.51 81.36,-225.835 200.62,-474.195 566.1,-623.609 166.67,-68.136 349.47,-81.426 543.56,-69.894 34.15,2.027 66.04,21.164 32.73,20.215"
         style="fill:#0e5d9f;fill-opacity:1;fill-rule:evenodd;stroke:none"
         id="path22" />
    </g>
  </g>
</svg>
