<?xml version="1.0" encoding="UTF-8" standalone="no"?>
<!-- Created with Inkscape (http://www.inkscape.org/) -->

<svg
   version="1.1"
   id="svg2"
   width="761.33331"
   height="98.666664"
   viewBox="0 0 761.33331 98.666664"
   sodipodi:docname="Qeshmair-logo.eps"
   xmlns:inkscape="http://www.inkscape.org/namespaces/inkscape"
   xmlns:sodipodi="http://sodipodi.sourceforge.net/DTD/sodipodi-0.dtd"
   xmlns="http://www.w3.org/2000/svg"
   xmlns:svg="http://www.w3.org/2000/svg">
  <defs
     id="defs6" />
  <sodipodi:namedview
     id="namedview4"
     pagecolor="#ffffff"
     bordercolor="#000000"
     borderopacity="0.25"
     inkscape:showpageshadow="2"
     inkscape:pageopacity="0.0"
     inkscape:pagecheckerboard="0"
     inkscape:deskcolor="#d1d1d1" />
  <g
     id="g8"
     inkscape:groupmode="layer"
     inkscape:label="ink_ext_XXXXXX"
     transform="matrix(1.3333333,0,0,-1.3333333,0,98.666667)">
    <g
       id="g10"
       transform="scale(0.1)">
      <path
         d="m 1168.66,630.938 c 113.02,0 204.64,-91.622 204.64,-204.645 0,-113.02 -91.62,-204.645 -204.64,-204.645 -113.02,0 -204.648,91.625 -204.648,204.645 0,113.023 91.628,204.645 204.648,204.645"
         style="fill:#f02137;fill-opacity:1;fill-rule:evenodd;stroke:none"
         id="path12" />
      <path
         d="m 964.074,430.742 125.136,-0.621 -0.62,-38.133 H 965.313 l -1.239,38.754"
         style="fill:#f8909b;fill-opacity:1;fill-rule:evenodd;stroke:none"
         id="path14" />
      <path
         d="M 1512.58,730.418 C 1259.87,689.688 1096.38,595.883 1086.23,426.289 H 452.395 c 103.269,202.75 356.683,308.238 574.145,306.973 l 486.04,-2.844"
         style="fill:#f02137;fill-opacity:1;fill-rule:evenodd;stroke:none"
         id="path16" />
      <path
         d="M 1512.58,730.418 C 1259.87,689.688 1096.38,595.883 1086.23,426.289 H 452.395 c 103.269,202.75 356.683,308.238 574.145,306.973 z"
         style="fill:none;stroke:#ffffff;stroke-width:5.6693;stroke-linecap:butt;stroke-linejoin:miter;stroke-miterlimit:22.9256;stroke-dasharray:none;stroke-opacity:1"
         id="path18" />
      <path
         d="M 31.7305,397.867 H 1089.84 c 7.16,-126.402 294,-280.82 871.83,-392.242 L 31.7305,397.867"
         style="fill:#f02137;fill-opacity:1;fill-rule:evenodd;stroke:none"
         id="path20" />
      <path
         d="M 31.7305,397.867 H 1089.84 c 7.16,-126.402 294,-280.82 871.83,-392.242 z"
         style="fill:none;stroke:#ffffff;stroke-width:5.6693;stroke-linecap:butt;stroke-linejoin:miter;stroke-miterlimit:22.9256;stroke-dasharray:none;stroke-opacity:1"
         id="path22" />
      <path
         d="m 2383.17,510.719 c 95.69,0 166.67,-89.391 147.11,-183.446 h -217.79 c -0.04,-33.941 39.07,-57.894 68.91,-57.894 h 145.9 v -63.434 h -144.13 -11.4 v 0.434 c -77.71,5.902 -138.95,71.68 -138.95,151.957 0,84.156 67.32,152.383 150.35,152.383 z m 75.9,-122.067 c 2.45,94.543 -152,92.106 -147.18,0 z m 2767.56,122.067 c 95.68,0 166.67,-89.391 147.11,-183.446 h -217.79 c -0.05,-33.941 39.07,-57.894 68.91,-57.894 h 145.9 v -63.434 h -144.13 -11.41 v 0.434 c -77.7,5.902 -138.95,71.68 -138.95,151.957 0,84.156 67.32,152.383 150.36,152.383 z m 75.89,-122.067 c 2.45,94.543 -152,92.106 -147.17,0 z M 4731.79,633.16 c 33.79,0 61.18,-19.039 61.18,-42.515 0,-23.477 -27.39,-42.512 -61.18,-42.512 -33.79,0 -61.18,19.035 -61.18,42.512 0,23.476 27.39,42.515 61.18,42.515 z m -494.6,0 c 33.79,0 61.19,-19.039 61.19,-42.515 0,-23.477 -27.4,-42.512 -61.19,-42.512 -33.78,0 -61.17,19.035 -61.17,42.512 0,23.476 27.39,42.515 61.17,42.515 z m 1175.5,-365.453 h 168.04 c 14.89,0 25.77,2.281 32.56,6.938 6.77,4.656 10.21,12.066 10.21,22.324 0,10.168 -3.44,17.679 -10.32,22.332 -6.97,4.754 -17.75,7.129 -32.45,7.129 h -68.84 c -40.77,0 -68.36,6.175 -82.78,18.621 -14.32,12.449 -21.48,34.586 -21.48,66.324 0,32.305 8.69,56.063 25.97,71.262 17.38,15.203 44.2,22.808 80.58,22.808 h 171.19 v -62.617 h -140.73 c -22.92,0 -37.81,-2 -44.78,-5.988 -6.88,-3.992 -10.31,-11.117 -10.31,-21.281 0,-9.317 3.06,-16.161 9.07,-20.528 6.11,-4.371 15.65,-6.558 28.64,-6.558 h 72.18 c 33.03,0 58.24,-7.696 75.52,-22.989 17.38,-15.3 26.06,-37.437 26.06,-66.324 0,-27.84 -7.73,-50.457 -23.11,-67.941 -15.36,-17.387 -35.22,-26.129 -59.47,-26.129 h -205.75 z m -609.33,237.738 h 140.25 c 42.32,0 72.59,-8.461 90.71,-25.468 18.13,-17.008 27.23,-45.133 27.23,-84.469 V 205.09 H 4987 v 180.726 c 0,22.422 -3.3,36.961 -9.82,43.707 -6.52,6.649 -19.64,9.977 -39.37,9.977 H 4877.9 V 205.09 h -74.54 z m -31.14,-299.5 h -77.48 v 300.352 h 77.48 z m -115.75,0 h -76.95 v 409.246 h 76.95 z m -345.3,300.352 h 138.76 c 32.45,0 55.19,-5.606 68.25,-16.817 13.05,-11.21 19.59,-30.882 19.59,-58.816 v -50.176 h -78.84 v 38.676 c 0,11.688 -2.17,19.574 -6.52,23.566 -4.36,3.993 -14.25,5.985 -29.68,5.985 h -28.98 v -242.77 h -82.58 z m -37.74,-300.352 h -77.48 v 300.352 h 77.48 z m -376.41,406.473 h 90.06 l 172.35,-406.473 h -94.57 l -37.06,96.735 h -175.62 l -36.04,-96.735 h -90.15 z m 41.75,-80.785 -59.11,-156.473 h 120.37 z M 3183.6,505.445 h 303.92 c 44,0 75.77,-8.648 95.2,-25.847 19.44,-17.293 29.21,-45.325 29.21,-84.09 V 205.09 h -79.75 v 180.152 c 0,22.047 -3.32,36.582 -9.96,43.711 -6.73,7.031 -20.38,10.547 -41.15,10.547 h -44.38 V 205.09 H 3355.8 V 439.5 h -92.45 V 205.09 h -79.75 z m -315.85,108.891 h 81.94 V 505.445 h 73.24 c 45.97,0 79.28,-8.648 99.84,-26.039 20.56,-17.289 30.84,-45.32 30.84,-83.898 V 205.09 h -83.13 v 181.199 c 0,20.617 -3.95,34.684 -11.76,42.094 -7.81,7.41 -22.24,11.117 -43.3,11.117 h -65.73 V 205.09 h -81.94 z m -305.2,-345.773 h 164.29 c 14.55,0 25.19,2.281 31.82,6.933 6.63,4.656 9.99,12.07 9.99,22.332 0,10.164 -3.36,17.676 -10.08,22.328 -6.82,4.754 -17.36,7.129 -31.73,7.129 h -67.31 c -39.85,0 -66.83,6.176 -80.92,18.621 -14,12.449 -21,34.582 -21,66.324 0,32.305 8.49,56.059 25.39,71.262 16.99,15.203 43.21,22.805 78.78,22.805 h 167.35 V 443.68 h -137.58 c -22.4,0 -36.96,-1.996 -43.78,-5.989 -6.72,-3.988 -10.08,-11.113 -10.08,-21.281 0,-9.312 2.99,-16.152 8.87,-20.523 5.98,-4.371 15.31,-6.559 28.01,-6.559 h 70.56 c 32.29,0 56.93,-7.691 73.83,-22.992 16.99,-15.301 25.48,-37.438 25.48,-66.32 0,-27.844 -7.56,-50.457 -22.59,-67.938 -15.03,-17.39 -34.44,-26.133 -58.15,-26.133 h -201.15 z m -459.3,145.941 c 0,47.469 -9.89,82.586 -29.66,105.348 -19.88,22.664 -50.26,34 -91.27,34 -41,0 -71.39,-11.336 -91.05,-34 -19.67,-22.762 -29.55,-57.879 -29.55,-105.348 0,-47.379 9.88,-82.496 29.55,-105.254 19.66,-22.762 50.05,-34.187 91.05,-34.187 90.7,0 120.93,55.843 120.93,139.441 z M 1982.32,205.945 c -76.17,0 -132.47,17.09 -168.99,51.188 -36.42,34.094 -54.64,86.582 -54.64,157.277 0,70.789 18.22,123.184 54.74,157.094 36.42,33.906 92.72,50.906 168.89,50.906 75.97,0 132.16,-17 168.59,-50.906 36.53,-33.91 54.73,-86.305 54.73,-157.094 0,-29.543 -3.22,-56.015 -9.78,-79.426 -6.2,-22.523 -15.39,-42.027 -27.47,-58.527 h 66.5 v -70.512 h -252.57"
         style="fill:#f02137;fill-opacity:1;fill-rule:nonzero;stroke:none"
         id="path24" />
    </g>
  </g>
</svg>
