<?xml version="1.0" encoding="UTF-8" standalone="no"?>
<!-- Created with Inkscape (http://www.inkscape.org/) -->

<svg
   version="1.1"
   id="svg2"
   width="381.33334"
   height="309.33334"
   viewBox="0 0 381.33334 309.33334"
   sodipodi:docname="Taban-Airline-logo.eps"
   xmlns:inkscape="http://www.inkscape.org/namespaces/inkscape"
   xmlns:sodipodi="http://sodipodi.sourceforge.net/DTD/sodipodi-0.dtd"
   xmlns="http://www.w3.org/2000/svg"
   xmlns:svg="http://www.w3.org/2000/svg">
  <defs
     id="defs6" />
  <sodipodi:namedview
     id="namedview4"
     pagecolor="#ffffff"
     bordercolor="#000000"
     borderopacity="0.25"
     inkscape:showpageshadow="2"
     inkscape:pageopacity="0.0"
     inkscape:pagecheckerboard="0"
     inkscape:deskcolor="#d1d1d1" />
  <g
     id="g8"
     inkscape:groupmode="layer"
     inkscape:label="ink_ext_XXXXXX"
     transform="matrix(1.3333333,0,0,-1.3333333,0,309.33333)">
    <g
       id="g10"
       transform="scale(0.1)">
      <path
         d="M 19.0547,624.195 C 643.637,817.441 1463.25,1187.5 1654.13,1669.8 c 44.85,113.33 121.58,-12.86 80.7,-129.82 -58.38,-167.01 -176.65,-364.34 -336.85,-473.69 C 1261.65,973.23 1136.98,897.199 1051,851.789 910.781,777.719 762.277,785.02 706.762,761.039 485.508,665.461 206.488,582.391 19.0547,624.195 Z"
         style="fill:none;stroke:#ffff00;stroke-width:5.6693;stroke-linecap:butt;stroke-linejoin:miter;stroke-miterlimit:22.9256;stroke-dasharray:none;stroke-opacity:1"
         id="path12" />
      <path
         d="m 1698.17,2314.98 c 638.18,0 1155.53,-517.35 1155.53,-1155.53 C 2853.7,521.266 2336.35,3.91406 1698.17,3.91406 1059.98,3.91406 542.633,521.266 542.633,1159.45 c 0,638.18 517.347,1155.53 1155.537,1155.53"
         style="fill:#f88602;fill-opacity:1;fill-rule:evenodd;stroke:none"
         id="path14" />
      <path
         d="M 19.0547,624.195 C 643.637,817.441 1463.25,1187.5 1654.13,1669.8 c 44.85,113.33 121.58,-12.86 80.7,-129.82 -58.38,-167.01 -176.65,-364.34 -336.85,-473.69 C 1261.65,973.23 1136.98,897.199 1051,851.789 910.781,777.719 762.277,785.02 706.762,761.039 485.508,665.461 206.488,582.391 19.0547,624.195 Z M 622.344,132.09 c 310.941,53.726 765.756,220.078 1188.756,546.683 253.9,196.051 347.02,371.607 361.58,499.177 27.61,241.86 -55.91,234.52 -70.26,194.49 C 2004.82,1099.97 1732.09,792.332 1271.95,553.438 1180.36,505.887 1119.1,381.824 1033,324.918 911.828,244.816 752.629,196.363 622.344,132.09 Z m -470.66,99.457 c -103.9887,-43.805 -19.598,69.383 4.949,79.183 514.687,205.458 947.007,427.352 1287.717,705.28 214.42,174.91 384.74,365.03 493.84,620.99 40.95,96.08 32.01,231.16 84.13,321.67 17.75,30.85 94.62,40.28 98.98,4.95 19.11,-154.75 -0.51,-326.97 -39.6,-465.18 C 1970.91,1106.73 1590.07,826.172 1210.71,637.352 1008.47,536.688 501.621,378.969 151.684,231.547"
         style="fill:#110e69;fill-opacity:1;fill-rule:evenodd;stroke:none"
         id="path16" />
    </g>
  </g>
</svg>
