<svg width="40" height="40" viewBox="0 0 40 40" fill="none" xmlns="http://www.w3.org/2000/svg">
<path d="M11.375 34.167C10.9583 34.167 10.618 34.028 10.354 33.75C10.09 33.472 9.958 33.1387 9.958 32.75V29.833C9.29133 29.4997 8.715 28.9373 8.229 28.146C7.743 27.354 7.5 26.472 7.5 25.5V9.62499C7.5 7.73633 8.5 6.35433 10.5 5.47899C12.5 4.60433 15.6667 4.16699 20 4.16699C24.4167 4.16699 27.604 4.59733 29.562 5.45799C31.5207 6.31933 32.5 7.70833 32.5 9.62499V25.5C32.5 26.472 32.257 27.354 31.771 28.146C31.285 28.9373 30.7087 29.4997 30.042 29.833V32.75C30.042 33.1387 29.903 33.472 29.625 33.75C29.347 34.028 29.0137 34.167 28.625 34.167C28.2363 34.167 27.903 34.028 27.625 33.75C27.347 33.472 27.208 33.1387 27.208 32.75V30.792H12.792V32.75C12.792 33.1387 12.653 33.472 12.375 33.75C12.097 34.028 11.7637 34.167 11.375 34.167ZM20.042 8.70799H30.333H9.708H20.042ZM27.042 20.167H9.583H30.417H27.042ZM9.583 18.083H30.417V10.792H9.583V18.083ZM13.875 26.5C14.4583 26.5 14.9513 26.2987 15.354 25.896C15.7567 25.4933 15.958 25.0003 15.958 24.417C15.958 23.861 15.7567 23.3747 15.354 22.958C14.9513 22.5413 14.4583 22.333 13.875 22.333C13.2917 22.333 12.7987 22.5413 12.396 22.958C11.9933 23.3747 11.792 23.8747 11.792 24.458C11.792 25.014 12.0003 25.4933 12.417 25.896C12.8337 26.2987 13.3197 26.5 13.875 26.5ZM26.125 26.5C26.7083 26.5 27.2013 26.2987 27.604 25.896C28.0067 25.4933 28.208 25.0003 28.208 24.417C28.208 23.861 27.9997 23.3747 27.583 22.958C27.1663 22.5413 26.6803 22.333 26.125 22.333C25.5417 22.333 25.0487 22.5413 24.646 22.958C24.2433 23.3747 24.042 23.8747 24.042 24.458C24.042 25.014 24.2433 25.4933 24.646 25.896C25.0487 26.2987 25.5417 26.5 26.125 26.5ZM9.708 8.70799H30.333C29.861 7.90266 28.7847 7.29166 27.104 6.87499C25.4233 6.45833 23.0693 6.24999 20.042 6.24999C16.764 6.24999 14.3193 6.45133 12.708 6.85399C11.0973 7.25666 10.0973 7.87466 9.708 8.70799ZM12.958 28.708H27.042C27.986 28.708 28.7847 28.354 29.438 27.646C30.0907 26.9373 30.417 26.111 30.417 25.167V20.167H9.583V25.167C9.583 26.111 9.90933 26.9373 10.562 27.646C11.2153 28.354 12.014 28.708 12.958 28.708Z" fill="#406D97"/>
</svg>
