<svg width="40" height="40" viewBox="0 0 40 40" fill="none" xmlns="http://www.w3.org/2000/svg">
<path d="M2.08299 34.583V13.958C1.58299 13.6807 1.18033 13.3267 0.874992 12.896C0.569659 12.4653 0.416992 11.9723 0.416992 11.417C0.416992 10.889 0.666992 10.264 1.16699 9.54199C1.66699 8.81933 2.31966 8.06933 3.12499 7.29199C3.93033 8.06933 4.58299 8.81933 5.08299 9.54199C5.58299 10.264 5.83299 10.889 5.83299 11.417C5.83299 11.9723 5.68033 12.4653 5.37499 12.896C5.06966 13.3267 4.66699 13.6807 4.16699 13.958V22.083H8.95799V17.875C8.95799 17.2363 9.19433 16.66 9.66699 16.146C10.139 15.632 10.75 15.361 11.5 15.333H12.083C11.583 14.7777 11.215 14.1807 10.979 13.542C10.743 12.9027 10.625 12.2497 10.625 11.583C10.625 10.583 10.861 9.65266 11.333 8.79199C11.8057 7.93066 12.4587 7.23599 13.292 6.70799L20 2.16699L26.708 6.70799C27.5413 7.23599 28.1943 7.93066 28.667 8.79199C29.139 9.65266 29.375 10.583 29.375 11.583C29.375 12.2497 29.257 12.9027 29.021 13.542C28.785 14.1807 28.417 14.7777 27.917 15.333H28.5C29.25 15.361 29.861 15.632 30.333 16.146C30.8057 16.66 31.042 17.2363 31.042 17.875V22.083H35.833V13.958C35.333 13.6807 34.9303 13.3267 34.625 12.896C34.3197 12.4653 34.167 11.9723 34.167 11.417C34.167 10.889 34.417 10.264 34.917 9.54199C35.417 8.81933 36.0697 8.06933 36.875 7.29199C37.6803 8.06933 38.333 8.81933 38.833 9.54199C39.333 10.264 39.583 10.889 39.583 11.417C39.583 11.9723 39.4303 12.4653 39.125 12.896C38.8197 13.3267 38.417 13.6807 37.917 13.958V34.583H22.292V28.333C22.292 27.6943 22.0697 27.1527 21.625 26.708C21.1803 26.264 20.6387 26.042 20 26.042C19.3613 26.042 18.8197 26.264 18.375 26.708C17.9303 27.1527 17.708 27.6943 17.708 28.333V34.583H2.08299ZM16.5 15.375H23.5C24.5553 15.375 25.4513 15.007 26.188 14.271C26.924 13.535 27.292 12.639 27.292 11.583C27.292 10.9443 27.139 10.3473 26.833 9.79199C26.5277 9.23599 26.125 8.77766 25.625 8.41699L20 4.66699L14.375 8.41699C13.875 8.77766 13.4723 9.23599 13.167 9.79199C12.861 10.3473 12.708 10.9443 12.708 11.583C12.708 12.639 13.076 13.535 13.812 14.271C14.5487 15.007 15.4447 15.375 16.5 15.375ZM4.16699 32.5H15.625V28.333C15.625 27.111 16.0487 26.0763 16.896 25.229C17.7433 24.3817 18.778 23.958 20 23.958C21.222 23.958 22.2567 24.3817 23.104 25.229C23.9513 26.0763 24.375 27.111 24.375 28.333V32.5H35.833V24.167H28.958V17.875C28.958 17.7637 28.9163 17.6663 28.833 17.583C28.7497 17.4997 28.6527 17.458 28.542 17.458H11.458C11.3473 17.458 11.2503 17.4997 11.167 17.583C11.0837 17.6663 11.042 17.7637 11.042 17.875V24.167H4.16699V32.5Z" fill="#406D97"/>
</svg>
