<svg xmlns="http://www.w3.org/2000/svg" width="55.408" height="55.395" viewBox="0 0 55.408 55.395">
  <g id="Layer_2" data-name="Layer 2" transform="translate(0 -0.016)">
    <g id="Search_Loupe_Question" data-name="Search Loupe Question" transform="translate(0 0.016)">
      <path id="Path_19244" data-name="Path 19244" d="M30.222,46.919a21.493,21.493,0,0,1-7.717.3,16.743,16.743,0,0,1-5.352-1.583C11.167,42.538,7.842,35,8,27.939H8A21.6,21.6,0,0,1,29.546,6.34c3.621,0,7.527.855,9.195,2.048a19,19,0,0,1,3.885,3.758,23.731,23.731,0,0,1,3.558,6.5,21.761,21.761,0,0,1-15.962,28.27Z" transform="translate(0.445 0.336)" fill="#69677f" opacity="0.1"/>
      <path id="Path_19571" data-name="Path 19571" d="M54.789,51.811,45.8,42.827a26,26,0,1,0-2.988,2.988L51.8,54.8a2.112,2.112,0,1,0,2.988-2.988ZM10.557,41.4a21.768,21.768,0,1,1,15.4,6.334,21.768,21.768,0,0,1-15.4-6.334Z" transform="translate(0 -0.016)" fill="#abaab8"/>
      <path id="Path_19572" data-name="Path 19572" d="M33.075,30.088a2.112,2.112,0,1,1-2.988,2.988l-4.8-4.8-4.814,4.8a2.112,2.112,0,1,1-2.988-2.988l4.8-4.8-4.814-4.814a2.112,2.112,0,1,1,2.988-2.988l4.824,4.8,4.8-4.814a2.112,2.112,0,1,1,2.988,2.988l-4.8,4.814Z" transform="translate(0.938 0.921)" fill="#abaab8"/>
    </g>
  </g>
</svg>
