<svg width="40" height="40" viewBox="0 0 40 40" fill="none" xmlns="http://www.w3.org/2000/svg">
<path d="M11.292 33.708C11.042 33.708 10.8473 33.6387 10.708 33.5C10.5693 33.3613 10.5 33.167 10.5 32.917C10.5 32.7777 10.5347 32.6317 10.604 32.479C10.6733 32.3263 10.7637 32.2083 10.875 32.125L12.833 30.833C11.333 30.833 10.0693 30.3193 9.042 29.292C8.014 28.264 7.5 27 7.5 25.5V9.99999C7.5 7.97199 8.486 6.49299 10.458 5.56299C12.4307 4.63233 15.6113 4.16699 20 4.16699C24.472 4.16699 27.6733 4.61833 29.604 5.52099C31.5347 6.42366 32.5 7.91666 32.5 9.99999V25.5C32.5 27 31.986 28.264 30.958 29.292C29.9307 30.3193 28.667 30.833 27.167 30.833L29.125 32.125C29.2363 32.2083 29.3267 32.3193 29.396 32.458C29.4653 32.5973 29.5 32.7363 29.5 32.875C29.5 33.125 29.4237 33.3263 29.271 33.479C29.1183 33.6317 28.9307 33.708 28.708 33.708H11.292ZM9.583 17.792H30.417V10.875H9.583V17.792ZM27.167 19.875H9.583H30.417H27.167ZM20 26.458C20.5833 26.458 21.0763 26.2567 21.479 25.854C21.8817 25.4513 22.083 24.9583 22.083 24.375C22.083 23.7917 21.8817 23.2987 21.479 22.896C21.0763 22.4933 20.5833 22.292 20 22.292C19.4167 22.292 18.9237 22.4933 18.521 22.896C18.1183 23.2987 17.917 23.7917 17.917 24.375C17.917 24.9583 18.1183 25.4513 18.521 25.854C18.9237 26.2567 19.4167 26.458 20 26.458ZM12.833 28.833H27.167C28.0837 28.833 28.8543 28.5067 29.479 27.854C30.1043 27.2013 30.417 26.4167 30.417 25.5V19.875H9.583V25.5C9.583 26.4167 9.89567 27.2013 10.521 27.854C11.1457 28.5067 11.9163 28.833 12.833 28.833ZM20 6.24999C16.8333 6.24999 14.486 6.46533 12.958 6.89599C11.4307 7.32666 10.417 7.95866 9.917 8.79199H30.167C29.7777 7.95866 28.7777 7.32666 27.167 6.89599C25.5557 6.46533 23.1667 6.24999 20 6.24999ZM20 8.79199H30.167H9.917H20Z" fill="#406D97"/>
</svg>
