<?xml version="1.0" encoding="UTF-8"?>
<!DOCTYPE svg PUBLIC "-//W3C//DTD SVG 1.1//EN" "http://www.w3.org/Graphics/SVG/1.1/DTD/svg11.dtd">
<!-- Creator: CorelDRAW -->
<svg xmlns="http://www.w3.org/2000/svg" xml:space="preserve" width="139.324mm" height="49.7672mm" version="1.1" style="shape-rendering:geometricPrecision; text-rendering:geometricPrecision; image-rendering:optimizeQuality; fill-rule:evenodd; clip-rule:evenodd"
viewBox="0 0 13931.36 4976.34"
 xmlns:xlink="http://www.w3.org/1999/xlink"
 xmlns:xodm="http://www.corel.com/coreldraw/odm/2003">
 <defs>
  <style type="text/css">
   <![CDATA[
    .fil0 {fill:#FFA458;fill-rule:nonzero}
   ]]>
  </style>
 </defs>
 <g id="Layer_x0020_1">
  <metadata id="CorelCorpID_0Corel-Layer"/>
  <path class="fil0" d="M9119.55 2577.47l0 -59.51 0 -181.51c0,-260.53 58.43,-484.89 175.3,-673.19 117.56,-187.65 274.99,-332.69 472.25,-435.45 197.26,-101.94 414.93,-152.93 653.15,-152.93 241.85,0 460.35,50.99 655.33,152.93 195.69,102.75 352.01,247.8 468.88,435.45 117.56,188.3 176.37,412.66 176.37,673.19l0 144.98 0 1170.13 904.33 2.35c159.98,0 309.63,-37.19 448.84,-111.64 139.92,-74.46 252.66,-181.23 338.28,-320.44 85.53,-139.93 128.39,-308.53 128.39,-505.78l0 -1641.18 390.68 0 0 1657.95c0,260.53 -58.81,484.89 -176.37,673.19 -116.87,187.65 -273.2,332.69 -468.88,435.45 -194.99,101.94 -413.48,152.93 -655.33,152.93l-909.94 0.01 0 172.48c0,253.02 -71.78,451.39 -215.47,595.08 -142.87,142.96 -340.85,214.39 -593.89,214.39l-1794.06 0 0 -340.59 1715.85 0c163.74,0 287.29,-44.59 370.7,-133.88 84.07,-89.37 126.11,-215.85 126.11,-379.68l0 -127.8 -909.82 0c-238.22,0 -455.9,-50.99 -653.15,-152.93 -197.27,-102.75 -354.69,-247.8 -472.25,-435.45 -116.87,-188.3 -175.3,-412.66 -175.3,-673.19l0 -155.36zm-3327.96 1415.65l-131.31 0c-213.05,-8.51 -409.2,-59.39 -588.46,-152.76 -186.25,-96.31 -336.98,-231.78 -452.21,-406.34 -114.76,174.13 -265.09,309.86 -450.93,407.44 -194.99,101.94 -413.48,152.93 -655.33,152.93l-909.94 0.01 0 172.48c0,253.02 -71.78,451.39 -215.47,595.08 -142.87,142.96 -340.85,214.39 -593.89,214.39l-1794.06 0 0 -340.59 1715.85 0c163.74,0 287.29,-44.59 370.7,-133.88 84.07,-89.37 126.11,-215.85 126.11,-379.68l0 -127.8 -909.82 0c-238.22,0 -455.9,-50.99 -653.15,-152.93 -197.27,-102.75 -354.69,-247.8 -472.25,-435.45 -116.87,-188.3 -175.3,-412.66 -175.3,-673.19l0 -155.36 0 -59.51 0 -181.51c0,-260.53 58.43,-484.89 175.3,-673.19 117.56,-187.65 274.99,-332.69 472.25,-435.45 197.26,-101.94 414.93,-152.93 653.15,-152.93 241.85,0 460.35,50.99 655.33,152.93 195.69,102.75 352.01,247.8 468.88,435.45 117.56,188.3 176.37,412.66 176.37,673.19l0 144.98 0 1170.13 904.33 2.35c159.98,0 309.63,-37.19 448.84,-111.64 139.92,-74.46 252.66,-181.23 338.28,-320.44 85.53,-139.93 128.39,-308.53 128.39,-505.78l0 -1641.18 1.02 0 389.66 0 0 1641.18c0,197.26 43.87,366.59 131.69,507.98 87.84,141.48 200.65,248.27 338.29,320.44 137.74,73 284.73,109.44 441.05,109.44 159.99,0 309.64,-37.2 448.82,-111.62 139.94,-74.45 252.68,-181.63 338.3,-321.54 85.51,-139.22 128.38,-307.45 128.38,-504.7l0 -1641.18 390.76 0 0 1657.94c0,256.78 -58.78,480.06 -176.47,669.89 -116.84,189.76 -273.07,335.65 -468.87,437.66 -177.17,93.37 -375.3,144.25 -594.31,152.76zm-1199.01 -3993.12l55.87 0c66.01,6 122.78,33.44 170.42,82.43 53.58,55.78 80.39,120.96 80.39,195.33 0,74.46 -26.82,139.57 -80.39,195.44 -54.32,55.78 -120.52,83.69 -198.74,83.69 -74.45,0 -139.56,-27.92 -195.33,-83.69 -55.88,-55.87 -83.79,-120.97 -83.79,-195.44 0,-78.1 27.92,-144.32 83.79,-198.73 48.78,-46.86 104.7,-73.18 167.78,-79.03zm-138.05 4967.69l0 -357.23 1889.07 0 0 357.23c-960.16,0 -928.9,0 -1889.07,0zm7587.76 -4506.89l0 -357.23 1889.07 0 0 357.23c-960.16,0 -928.9,0 -1889.07,0zm-9829.63 2034.44l0.08 0 0 -142.01c0,-197.26 -42.86,-365.85 -128.39,-505.78 -85.62,-139.21 -198.37,-245.97 -338.28,-320.44 -139.21,-74.45 -288.86,-111.64 -448.84,-111.64 -156.32,0 -303.3,36.08 -441.03,108.34 -137.64,72.9 -249.37,178.95 -334.89,318.16 -85.64,139.91 -128.41,310.35 -128.41,511.36l0 159.91 0 101.46 0 101.46c0,201.01 42.77,371.45 128.41,511.36 85.52,139.21 197.26,245.25 334.89,318.16 137.73,72.26 284.71,108.34 441.03,108.34l915.43 -1.54 0 -1157.14zm9117.41 0l0.08 0 0 -142.01c0,-197.26 -42.86,-365.85 -128.39,-505.78 -85.62,-139.21 -198.37,-245.97 -338.28,-320.44 -139.21,-74.45 -288.86,-111.64 -448.84,-111.64 -156.32,0 -303.3,36.08 -441.03,108.34 -137.64,72.9 -249.37,178.95 -334.89,318.16 -85.64,139.91 -128.41,310.35 -128.41,511.36l0 159.91 0 101.46 0 101.46c0,201.01 42.77,371.45 128.41,511.36 85.52,139.21 197.26,245.25 334.89,318.16 137.73,72.26 284.71,108.34 441.03,108.34l915.43 -1.54 0 -1157.14zm-3448.67 -1420.98l390.76 0 0 3092.63c0,253.02 -71.78,451.39 -215.47,595.08 -142.87,142.96 -340.85,214.39 -593.89,214.39l-491.31 0 0 -340.59 413.1 0c163.74,0 287.29,-44.59 370.7,-133.88 84.07,-89.37 126.11,-215.85 126.11,-379.68l0 -3047.94z"/>
 </g>
</svg>
