<?xml version="1.0" encoding="UTF-8"?>
<!DOCTYPE svg PUBLIC "-//W3C//DTD SVG 1.1//EN" "http://www.w3.org/Graphics/SVG/1.1/DTD/svg11.dtd">
<!-- Creator: CorelDRAW -->
<svg xmlns="http://www.w3.org/2000/svg" xml:space="preserve" width="194.769mm" height="39.89mm" version="1.1" style="shape-rendering:geometricPrecision; text-rendering:geometricPrecision; image-rendering:optimizeQuality; fill-rule:evenodd; clip-rule:evenodd"
viewBox="0 0 19475.88 3988.78"
 xmlns:xlink="http://www.w3.org/1999/xlink"
 xmlns:xodm="http://www.corel.com/coreldraw/odm/2003">
 <defs>
  <style type="text/css">
   <![CDATA[
    .fil0 {fill:#FFA458;fill-rule:nonzero}
   ]]>
  </style>
 </defs>
 <g id="Layer_x0020_1">
  <metadata id="CorelCorpID_0Corel-Layer"/>
  <path class="fil0" d="M2456.26 3917.54l-251.19 0c-197.29,0 -368.43,-42.04 -513.59,-126.2 -145.15,-83.35 -256.8,-199.46 -334.91,-348.27 -78.21,-148.92 -117.22,-318.26 -117.22,-507.99l0 -2567.93 -1239.34 0 0 -357.24 2880.55 0 0 357.24 -1239.25 0 0 2623.71c0,163.73 51.27,299.54 154.03,407.51 101.93,107.89 240.41,161.93 415.32,161.93l245.61 0 0 357.25zm9667.95 -3917.54l55.87 0c66.01,6 122.78,33.44 170.42,82.44 53.58,55.78 80.4,120.96 80.4,195.33 0,74.47 -26.82,139.57 -80.4,195.44 -54.32,55.78 -120.52,83.7 -198.74,83.7 -74.46,0 -139.56,-27.92 -195.33,-83.7 -55.88,-55.87 -83.8,-120.97 -83.8,-195.44 0,-78.11 27.92,-144.32 83.8,-198.73 48.78,-46.86 104.7,-73.19 167.78,-79.04zm5940.82 3988.78l-137.05 0c-258.83,-9.8 -490.86,-75.6 -696.25,-197.45 -223.28,-131.69 -398.2,-311.08 -524.76,-538.12 -126.47,-227.04 -189.76,-480.07 -189.76,-759.21 0,-279.12 63.29,-532.16 189.76,-759.2 126.56,-227.02 301.48,-406.79 524.76,-539.23 223.36,-131.78 478.22,-197.61 764.79,-197.61 286.56,0 540.42,65.83 761.48,197.61 221.81,132.44 396.73,312.21 524.75,539.23 128.76,227.04 193.14,480.07 193.14,759.2 0,279.13 -64.38,532.17 -193.14,759.21 -128.02,227.04 -302.94,406.43 -524.75,538.12 -203.28,121.85 -434.29,187.65 -692.96,197.45zm-9998.8 0l-131.31 0c-213.06,-8.51 -409.21,-59.39 -588.47,-152.76 -197.25,-102 -354.68,-247.91 -472.25,-437.67 -116.87,-189.83 -175.3,-413.12 -175.3,-669.9l0 -1657.97 389.67 0 0 1641.21c0,197.26 43.87,366.6 131.69,507.99 87.85,141.48 200.66,248.28 338.3,320.44 137.74,73.01 284.73,109.44 441.06,109.44 159.99,0 309.64,-37.2 448.83,-111.62 139.94,-74.46 252.69,-181.63 338.31,-321.54 85.52,-139.22 128.38,-307.45 128.38,-504.71l0 -1641.21 390.77 0 0 1657.97c0,256.79 -58.78,480.07 -176.47,669.9 -116.84,189.76 -273.08,335.66 -468.88,437.67 -177.17,93.37 -375.31,144.25 -594.32,152.76zm-3487.13 0l-137.05 0c-258.82,-9.8 -490.92,-75.6 -696.25,-197.45 -223.26,-131.69 -398.18,-311.08 -524.75,-538.12 -126.46,-227.04 -189.74,-480.07 -189.74,-759.21 0,-279.12 63.28,-532.16 189.74,-759.2 126.57,-227.02 301.49,-406.79 524.75,-539.23 223.29,-131.78 478.24,-197.61 764.79,-197.61 286.56,0 540.42,65.83 761.5,197.61 221.81,132.44 396.73,312.21 524.67,539.23 128.84,227.04 193.23,480.07 193.23,759.2 0,279.13 -64.39,532.17 -193.23,759.21 -127.94,227.04 -302.86,406.43 -524.67,538.12 -203.29,121.85 -434.31,187.65 -692.98,197.45zm-68.52 -339.21c212.11,0 400.13,-51.38 563.86,-154.04 163.74,-102.02 291.04,-240.49 381.8,-415.41 91.6,-174.83 137.38,-370.26 137.38,-586.12 0,-215.85 -45.79,-411.19 -137.38,-586.12 -90.76,-174.91 -218.06,-313.75 -381.8,-416.49 -163.73,-101.93 -351.75,-152.95 -563.86,-152.95 -215.85,0 -404.86,51.02 -567.15,152.95 -161.56,102.73 -288.01,241.58 -379.59,416.49 -90.85,174.93 -136.19,370.27 -136.19,586.12 0,215.86 45.35,411.29 136.19,586.12 91.58,174.92 218.03,313.38 379.59,415.41 162.29,102.66 351.3,154.04 567.15,154.04zm6033.49 267.97l-390.77 0 0 -2037.57c0,-253.03 71.79,-451.4 215.48,-595.09 142.87,-142.96 340.86,-214.4 593.9,-214.4l491.32 0 0 340.6 -413.11 0c-163.74,0 -287.29,44.59 -370.71,133.88 -84.08,89.38 -126.11,215.86 -126.11,379.69l0 1992.88zm1803.12 0l-390.77 0 0 -2847.06 390.77 0 0 2847.06zm1250.43 0l-390.77 0 0 -1657.98c0,-260.54 58.43,-484.9 175.3,-673.2 117.56,-187.65 275,-332.7 472.26,-435.46 197.26,-101.94 414.94,-152.93 653.16,-152.93 241.86,0 460.35,50.99 655.34,152.93 195.69,102.75 352.02,247.81 468.89,435.46 117.56,188.3 176.37,412.67 176.37,673.2l0 1657.98 -390.69 0 0 -1641.21c0,-197.26 -42.86,-365.86 -128.39,-505.79 -85.63,-139.21 -198.37,-245.98 -338.29,-320.44 -139.21,-74.46 -288.86,-111.64 -448.85,-111.64 -156.32,0 -303.3,36.08 -441.04,108.34 -137.64,72.91 -249.38,178.95 -334.9,318.16 -85.65,139.91 -128.41,310.35 -128.41,511.37l0 1641.21zm4398.88 -267.97c212.2,0 400.1,-51.38 563.86,-154.04 163.74,-102.02 291.04,-240.49 381.8,-415.41 91.58,-174.83 137.36,-370.26 137.36,-586.12 0,-215.85 -45.79,-411.19 -137.36,-586.12 -90.76,-174.91 -218.06,-313.75 -381.8,-416.49 -163.76,-101.93 -351.66,-152.95 -563.86,-152.95 -215.86,0 -404.89,51.02 -567.17,152.95 -161.44,102.73 -288.02,241.58 -379.59,416.49 -90.76,174.93 -136.19,370.27 -136.19,586.12 0,215.86 45.44,411.29 136.19,586.12 91.57,174.92 218.15,313.38 379.59,415.41 162.28,102.66 351.31,154.04 567.17,154.04z"/>
 </g>
</svg>
